SplineFontDB: 3.0
FontName: Inconsoliga-Regular
FullName: Inconsoliga
FamilyName: Inconsoliga
Weight: Regular
Copyright: Copyright 2006 The Inconsolata Project Authors
UComments: "2018-6-2: Created with FontForge (http://fontforge.org)"
Version: 2.001
ItalicAngle: 0
UnderlinePosition: -200
UnderlineWidth: 50
Ascent: 800
Descent: 200
InvalidEm: 0
sfntRevision: 0x00020041
LayerCount: 2
Layer: 0 1 "Back" 1
Layer: 1 1 "Fore" 0
XUID: [1021 364 -2095688903 11578073]
StyleMap: 0x0000
FSType: 0
OS2Version: 0
OS2_WeightWidthSlopeOnly: 0
OS2_UseTypoMetrics: 1
CreationTime: 1527956454
ModificationTime: 1527966810
PfmFamily: 17
TTFWeight: 400
TTFWidth: 5
LineGap: 90
VLineGap: 0
OS2TypoAscent: 0
OS2TypoAOffset: 1
OS2TypoDescent: 0
OS2TypoDOffset: 1
OS2TypoLinegap: 90
OS2WinAscent: 0
OS2WinAOffset: 1
OS2WinDescent: 0
OS2WinDOffset: 1
HheadAscent: 0
HheadAOffset: 1
HheadDescent: 0
HheadDOffset: 1
OS2Vendor: 'PfEd'
Lookup: 1 0 0 "greater_greater_equal.liga Single Substitution (2nd)" { "greater_greater_equal.liga Single Substitution (2nd)"  } []
Lookup: 1 0 0 "greater_greater_equal.liga Single Substitution" { "greater_greater_equal.liga Single Substitution"  } []
Lookup: 6 0 0 "'>>+AD0A' Contextual Alternates" { "'>>+AD0A' Contextual Alternates 1"  "'>>+AD0A' Contextual Alternates 2"  "'>>+AD0A' Contextual Alternates 3"  } ['calt' ('DFLT' <'dflt' > 'arab' <'dflt' > 'armn' <'dflt' > 'cyrl' <'SRB ' 'dflt' > 'geor' <'dflt' > 'grek' <'dflt' > 'lao ' <'dflt' > 'latn' <'CAT ' 'ESP ' 'GAL ' 'ISM ' 'KSM ' 'LSM ' 'MOL ' 'NSM ' 'ROM ' 'SKS ' 'SSM ' 'dflt' > 'math' <'dflt' > 'thai' <'dflt' > ) ]
MarkAttachClasses: 1
DEI: 91125
ChainSub2: glyph "'>>+AD0A' Contextual Alternates 1" 0 0 0 1
 String: 5 equal
 BString: 8 LIG2 LIG
 FString: 0 
 1
  SeqLookup: 0 "greater_greater_equal.liga Single Substitution"
EndFPST
ChainSub2: glyph "'>>+AD0A' Contextual Alternates 2" 0 0 0 1
 String: 7 greater
 BString: 3 LIG
 FString: 5 equal
 1

StartChar: exclam
Encoding: 33 33 0
Width: 500
Flags: W
LayerCount: 2
Fore
SplineSet
190 594 m 1,0,1
 190 628.999511718 190 628.999511718 203.5 648.5 c 128,-1,2
 217 668 217 668 241 668 c 0,3,4
 292 668 292 668 292 584 c 1,5,-1
 265 194 l 1,6,-1
 215 194 l 1,7,-1
 190 594 l 1,0,1
197.5 6 m 128,-1,9
 179.999511718 22.9995117188 179.999511718 22.9995117188 180 47 c 128,-1,10
 180 71 180 71 197.5 89 c 128,-1,11
 215.000488282 107 215.000488282 107 239 107 c 128,-1,12
 263 107 263 107 281 89 c 128,-1,13
 299 71 299 71 299 47 c 0,14,15
 299 24.0004882812 299 24.0004882812 281 6.5 c 128,-1,16
 263 -11.0004882812 263 -11.0004882812 239 -11 c 128,-1,8
 215 -11 215 -11 197.5 6 c 128,-1,9
EndSplineSet
EndChar

StartChar: quotedbl
Encoding: 34 34 1
Width: 500
Flags: W
LayerCount: 2
Fore
SplineSet
215 665 m 1,0,1
 215 581 215 581 212.5 541.498046875 c 128,-1,2
 209.999511718 501.998535156 209.999511718 501.998535156 205 454.999023438 c 2,3,-1
 199 406.999023438 l 1,4,-1
 151 406.999023438 l 1,5,-1
 145 454.999023438 l 2,6,7
 140.000488282 499.999023438 140.000488282 499.999023438 137.5 539.999023438 c 128,-1,8
 134.999511718 579.999511719 134.999511718 579.999511719 135 665 c 1,9,-1
 215 665 l 1,0,1
365 664.998046875 m 1,10,11
 365 580.998046875 365 580.998046875 362.5 541.49609375 c 128,-1,12
 359.999511718 501.996582032 359.999511718 501.996582032 355 454.997070312 c 2,13,-1
 349 406.997070312 l 1,14,-1
 301 406.997070312 l 1,15,-1
 295 454.997070312 l 2,16,17
 290.000488282 499.997070312 290.000488282 499.997070312 287.5 539.997070312 c 128,-1,18
 284.999511718 579.997558594 284.999511718 579.997558594 285 664.998046875 c 1,19,-1
 365 664.998046875 l 1,10,11
EndSplineSet
EndChar

StartChar: numbersign
Encoding: 35 35 2
Width: 500
Flags: W
LayerCount: 2
Fore
SplineSet
292 193 m 1,0,-1
 181 193 l 1,1,-1
 160 14 l 1,2,-1
 101 13 l 1,3,-1
 122 191 l 1,4,-1
 25 191 l 1,5,-1
 29 236 l 1,6,-1
 128 236 l 1,7,-1
 148 407 l 1,8,-1
 39 407 l 1,9,-1
 42 453 l 1,10,-1
 153 453 l 1,11,-1
 173 624 l 1,12,-1
 234 626 l 1,13,-1
 213 455 l 1,14,-1
 323 455 l 1,15,-1
 343 622 l 1,16,-1
 405 623 l 1,17,-1
 385 457 l 1,18,-1
 476 457 l 1,19,-1
 470 410 l 1,20,-1
 379 410 l 1,21,-1
 358 241 l 1,22,-1
 457 241 l 1,23,-1
 452 196 l 1,24,-1
 353 196 l 1,25,-1
 331 14 l 1,26,-1
 270 10 l 1,27,-1
 292 193 l 1,0,-1
297 238 m 1,28,-1
 318 408 l 1,29,-1
 207 408 l 1,30,-1
 187 238 l 1,31,-1
 297 238 l 1,28,-1
EndSplineSet
EndChar

StartChar: dollar
Encoding: 36 36 3
Width: 500
Flags: W
LayerCount: 2
Fore
SplineSet
235 14 m 5,0,1
 128.000488282 21.0004882812 128.000488282 21.0004882812 59.998046875 93.9990234375 c 5,2,-1
 102.998046875 153.999023438 l 6,3,4
 105.998046875 151.999511719 105.998046875 151.999511719 106.998046875 143.499023438 c 132,-1,5
 107.998535156 134.998535156 107.998535156 134.998535156 109.998046875 132.999023438 c 4,6,7
 158.998535156 79.9995117185 158.998535156 79.9995117185 234.999023438 72 c 5,8,-1
 234.999023438 292 l 5,9,10
 154.999511719 319 154.999511719 319 117 355.5 c 132,-1,11
 79.0004882812 391.999511718 79.0004882812 391.999511718 79 446 c 4,12,13
 79 501.000488282 79 501.000488282 122.5 541.000976562 c 132,-1,14
 166 581.001464844 166 581.001464844 235 591.001953125 c 5,15,-1
 235 651.001953125 l 5,16,-1
 299 651.001953125 l 6,17,18
 300.000488282 650.001464844 300.000488282 650.001464844 300 648.001953125 c 132,-1,19
 300 646.002441406 300 646.002441406 297 640.501953125 c 132,-1,20
 294 635.001464844 294 635.001464844 293 630.001953125 c 6,21,-1
 293 592.001953125 l 5,22,23
 386 582.001464844 386 582.001464844 442 515.000976562 c 5,24,-1
 399 461.000976562 l 5,25,26
 394.999511718 463.000488281 394.999511718 463.000488281 393 471 c 132,-1,27
 391.000488282 478.999511718 391.000488282 478.999511718 388 482 c 4,28,29
 353.999511718 522.000488282 353.999511718 522.000488282 292.999023438 533 c 5,30,-1
 292.999023438 340 l 5,31,32
 382.999023438 311.000488282 382.999023438 311.000488282 421.499023438 276.000976562 c 132,-1,33
 459.999511719 241.001464844 459.999511719 241.001464844 459.999023438 181.000976562 c 4,34,35
 459.999023438 143.001464844 459.999023438 143.001464844 439.499023438 107.500976562 c 132,-1,36
 418.998535156 72.0004882815 418.998535156 72.0004882815 380.999023438 47 c 132,-1,37
 342.999511719 21.9995117188 342.999511719 21.9995117188 293 16 c 5,38,-1
 293 -47 l 5,39,-1
 235 -47 l 5,40,-1
 235 14 l 5,0,1
234.997070312 533.998046875 m 5,41,42
 191.996582031 528.998535156 191.996582031 528.998535156 168.497070312 506.999023438 c 132,-1,43
 144.996582031 484.998535156 144.996582031 484.998535156 144.997070312 453.998046875 c 4,44,45
 144.997070312 396.998046875 144.997070312 396.998046875 234.997070312 360.998046875 c 5,46,-1
 234.997070312 533.998046875 l 5,41,42
367.498046875 111.999023438 m 132,-1,48
 394.997558594 140.998535156 394.997558594 140.998535156 395 177 c 4,49,50
 395 211.999511718 395 211.999511718 371.5 233.499023438 c 132,-1,51
 347.999511718 254.998535156 347.999511718 254.998535156 292.999023438 272.999023438 c 5,52,-1
 292.999023438 73.9990234375 l 5,53,47
 339.998535156 82.9990234375 339.998535156 82.9990234375 367.498046875 111.999023438 c 132,-1,48
EndSplineSet
EndChar

StartChar: percent
Encoding: 37 37 4
Width: 500
Flags: W
LayerCount: 2
Fore
SplineSet
84 390 m 128,-1,1
 58.0004882812 406.999511718 58.0004882812 406.999511718 43 436.999023438 c 128,-1,2
 28 466.999023438 28 466.999023438 28 503.999023438 c 0,3,4
 28 539.999023438 28 539.999023438 43 569.499023438 c 128,-1,5
 58 598.999511719 58 598.999511719 84 616.5 c 128,-1,6
 109.999511718 634.000488282 109.999511718 634.000488282 140 634 c 128,-1,7
 170 634 170 634 196 616.5 c 128,-1,8
 221.999511718 598.999511718 221.999511718 598.999511718 237 569 c 128,-1,9
 252 539 252 539 252 503 c 0,10,11
 252 446 252 446 220 409.5 c 128,-1,12
 188.000488282 373.000488282 188.000488282 373.000488282 140 373 c 0,13,0
 110 373 110 373 84 390 c 128,-1,1
391 622.999023438 m 1,14,-1
 448 622.999023438 l 1,15,-1
 100 -0.0009765625 l 1,16,-1
 46 -0.0009765625 l 1,17,-1
 391 622.999023438 l 1,14,-1
175 444.999023438 m 128,-1,19
 188.999511718 463.999511719 188.999511718 463.999511719 189 503.999023438 c 128,-1,20
 189 543.999511719 189 543.999511719 174 563 c 128,-1,21
 159 582.000488282 159 582.000488282 138 582 c 0,22,23
 118.000488282 582 118.000488282 582 103.5 563 c 128,-1,24
 88.9995117188 543.999511718 88.9995117188 543.999511718 89 503.999023438 c 0,25,26
 89 464.999023438 89 464.999023438 104 445.499023438 c 128,-1,27
 119 425.999023438 119 425.999023438 140 425.999023438 c 128,-1,18
 161 425.999023438 161 425.999023438 175 444.999023438 c 128,-1,19
315 6.998046875 m 128,-1,29
 289.000488282 23.9975585938 289.000488282 23.9975585938 273.999023438 53.4970703125 c 128,-1,30
 258.999023438 82.9975585938 258.999023438 82.9975585938 258.999023438 118.997070312 c 128,-1,31
 258.999023438 154.997070312 258.999023438 154.997070312 273.999023438 184.497070312 c 128,-1,32
 288.999023438 213.997558594 288.999023438 213.997558594 314.999023438 231.498046875 c 128,-1,33
 340.998535156 248.998535156 340.998535156 248.998535156 370.999023438 248.998046875 c 0,34,35
 416.999511719 248.998046875 416.999511719 248.998046875 449.5 210.998046875 c 128,-1,36
 482.000488282 172.998535156 482.000488282 172.998535156 482 118.998046875 c 0,37,38
 482 82.998046875 482 82.998046875 467 53.498046875 c 128,-1,39
 452 23.9975585938 452 23.9975585938 426.5 6.998046875 c 128,-1,40
 401 -10.0014648438 401 -10.0014648438 371 -10.001953125 c 128,-1,28
 341 -10.001953125 341 -10.001953125 315 6.998046875 c 128,-1,29
408.499023438 59.9970703125 m 128,-1,42
 422.999511719 79.9965820312 422.999511719 79.9965820312 422.997070312 117.997070312 c 0,43,44
 422.997070312 152.996582031 422.997070312 152.996582031 408.497070312 175.497070312 c 128,-1,45
 393.996582031 197.997070312 393.996582031 197.997070312 369.997070312 197.997070312 c 0,46,47
 347.996582031 197.997070312 347.996582031 197.997070312 332.997070312 178.497070312 c 128,-1,48
 317.997070312 158.997070312 317.997070312 158.997070312 317.997070312 119.997070312 c 0,49,50
 317.997070312 79.9965820315 317.997070312 79.9965820315 333.997070312 59.9970703125 c 128,-1,51
 349.997558594 39.9975585938 349.997558594 39.9975585938 371.998046875 39.9970703125 c 128,-1,41
 393.998535156 39.9970703125 393.998535156 39.9970703125 408.499023438 59.9970703125 c 128,-1,42
EndSplineSet
EndChar

StartChar: ampersand
Encoding: 38 38 5
Width: 500
Flags: W
LayerCount: 2
Fore
SplineSet
361 76 m 1,0,1
 329.999511718 35.9995117188 329.999511718 35.9995117188 284.999023438 13.0029296875 c 128,-1,2
 239.999023438 -9.99658203125 239.999023438 -9.99658203125 191.999023438 -9.9970703125 c 0,3,4
 147.999511719 -9.9970703125 147.999511719 -9.9970703125 111.999023438 10.5029296875 c 128,-1,5
 75.9990234373 31.0034179688 75.9990234373 31.0034179688 55.9990234375 65.5029296875 c 128,-1,6
 35.9995117188 100.002929688 35.9995117188 100.002929688 35.9990234375 141.002929688 c 0,7,8
 35.9990234375 203.002441406 35.9990234375 203.002441406 69.9990234375 256.502929688 c 128,-1,9
 103.999511719 310.003417969 103.999511719 310.003417969 162 343.002929688 c 1,10,11
 91.000488282 429.002441406 91.000488282 429.002441406 91 498.002929688 c 0,12,13
 91 535.003417969 91 535.003417969 109.5 565.002929688 c 128,-1,14
 127.999511718 595.002929688 127.999511718 595.002929688 159.5 612.002929688 c 128,-1,15
 191 629.002441406 191 629.002441406 228 629.002929688 c 0,16,17
 267 629.002929688 267 629.002929688 298 610.502929688 c 128,-1,18
 329.000488282 592.003417969 329.000488282 592.003417969 346 562.002929688 c 128,-1,19
 362.999511718 532.002929688 362.999511718 532.002929688 363 498.002929688 c 0,20,21
 363 449.002441406 363 449.002441406 332.5 400.001953125 c 128,-1,22
 302.000488282 351.001464844 302.000488282 351.001464844 255.000976562 330.001953125 c 1,23,-1
 367.000976562 173.001953125 l 1,24,25
 391.000976562 202.001464844 391.000976562 202.001464844 400.500976562 223.500976562 c 128,-1,26
 410.000488281 245.000488281 410.000488281 245.000488281 412 274 c 0,27,28
 412 280 412 280 416 284 c 1,29,-1
 481 239 l 1,30,31
 443.999511718 174.000488282 443.999511718 174.000488282 405 123 c 1,32,-1
 475 32 l 1,33,-1
 416 -12 l 1,34,-1
 361 76 l 1,0,1
276.499023438 424.002929688 m 128,-1,36
 296.998046875 458.000988495 296.998046875 458.000988495 296.998046875 492.002929688 c 0,37,38
 296.998046875 525.002929688 296.998046875 525.002929688 276.498046875 547.502929688 c 128,-1,39
 255.997558594 570.002929688 255.997558594 570.002929688 228.998046875 570.002929688 c 0,40,41
 199.998535156 570.002929688 199.998535156 570.002929688 179.999023438 549.502929688 c 128,-1,42
 159.999511719 529.002441406 159.999511719 529.002441406 159.999023438 497.002929688 c 0,43,44
 159.999023438 449.002929688 159.999023438 449.002929688 220.999023438 373.002929688 c 1,45,35
 255.998535156 390.002441406 255.998535156 390.002441406 276.499023438 424.002929688 c 128,-1,36
323.998046875 123.001953125 m 1,46,-1
 196.997070312 296.002929688 l 1,47,48
 157.997070312 272.002929688 157.997070312 272.002929688 134.997070312 232.002929688 c 128,-1,49
 111.997558594 192.002441406 111.997558594 192.002441406 111.997070312 152.001953125 c 0,50,51
 111.997070312 111.002441406 111.997070312 111.002441406 137.497070312 82.501953125 c 128,-1,52
 162.997070312 54.001953125 162.997070312 54.001953125 198.997070312 54.001953125 c 0,53,54
 262.997558594 54.001953125 262.997558594 54.001953125 323.998046875 123.001953125 c 1,46,-1
EndSplineSet
EndChar

StartChar: quotesingle
Encoding: 39 39 6
Width: 500
Flags: W
LayerCount: 2
Fore
SplineSet
290 665 m 1,0,1
 290 581 290 581 287.5 541.498046875 c 128,-1,2
 284.999511718 501.998535156 284.999511718 501.998535156 280 454.999023438 c 2,3,-1
 274 406.999023438 l 1,4,-1
 226 406.999023438 l 1,5,-1
 220 454.999023438 l 2,6,7
 215.000488282 499.999023438 215.000488282 499.999023438 212.5 539.999023438 c 128,-1,8
 209.999511718 579.999511719 209.999511718 579.999511719 210 665 c 1,9,-1
 290 665 l 1,0,1
EndSplineSet
EndChar

StartChar: parenleft
Encoding: 40 40 7
Width: 500
Flags: W
LayerCount: 2
Fore
SplineSet
251 -70 m 128,-1,1
 189.000488282 -4 189.000488282 -4 155.500976562 79 c 128,-1,2
 122.001464844 161.999511718 122.001464844 161.999511718 122.000976562 250 c 128,-1,3
 122.000976562 338.000488282 122.000976562 338.000488282 155.000976562 419 c 128,-1,4
 188.000976562 500 188.000976562 500 248.500976562 563.5 c 128,-1,5
 309.000488281 626.999511718 309.000488281 626.999511718 389 664.999023438 c 1,6,-1
 408 602.999023438 l 1,7,8
 310.000488282 549.999511719 310.000488282 549.999511719 251.5 453.999023438 c 128,-1,9
 193 357.999023438 193 357.999023438 193 246.999023438 c 0,10,11
 193 134.998535156 193 134.998535156 253 36.9990234375 c 128,-1,12
 313 -61.0004882812 313 -61.0004882812 414 -114 c 1,13,-1
 395 -174 l 1,14,0
 312.999511718 -136.000488282 312.999511718 -136.000488282 251 -70 c 128,-1,1
EndSplineSet
EndChar

StartChar: parenright
Encoding: 41 41 8
Width: 500
Flags: W
LayerCount: 2
Fore
SplineSet
114 -114 m 1,0,1
 214.999511718 -61.0004882812 214.999511718 -61.0004882812 275 36.9990234375 c 128,-1,2
 335 134.998535156 335 134.998535156 335 246.999023438 c 0,3,4
 335 357.999023438 335 357.999023438 276.5 453.999023438 c 128,-1,5
 218 549.999023438 218 549.999023438 120 602.999023438 c 1,6,-1
 139 664.999023438 l 1,7,8
 218.999511718 626.999511719 218.999511718 626.999511719 279.499023438 563.5 c 128,-1,9
 339.998535156 500.000488282 339.998535156 500.000488282 372.999023438 419 c 128,-1,10
 405.999023438 338 405.999023438 338 405.999023438 250 c 128,-1,11
 405.999023438 161.999511718 405.999023438 161.999511718 372.499023438 79 c 128,-1,12
 338.999511719 -3.99951171875 338.999511719 -3.99951171875 277 -70 c 128,-1,13
 215.000488282 -136 215.000488282 -136 133 -174 c 1,14,-1
 114 -114 l 1,0,1
EndSplineSet
EndChar

StartChar: asterisk
Encoding: 42 42 9
Width: 500
Flags: W
LayerCount: 2
Fore
SplineSet
84 167 m 1,0,-1
 214 317 l 1,1,-1
 41 370 l 1,2,-1
 67 435 l 1,3,-1
 229 359 l 1,4,-1
 213 536 l 1,5,-1
 291 536 l 1,6,-1
 273 359 l 1,7,-1
 432 431 l 1,8,-1
 458 370 l 1,9,-1
 287 318 l 1,10,-1
 413 167 l 1,11,-1
 358 124 l 1,12,-1
 250 290 l 1,13,-1
 138 123 l 1,14,-1
 84 167 l 1,0,-1
EndSplineSet
EndChar

StartChar: plus
Encoding: 43 43 10
Width: 500
Flags: W
LayerCount: 2
Fore
SplineSet
222 291 m 1,0,-1
 45 291 l 1,1,-1
 45 352 l 1,2,-1
 222 352 l 1,3,-1
 222 523 l 1,4,-1
 285 523 l 1,5,-1
 285 352 l 1,6,-1
 456 352 l 1,7,-1
 456 291 l 1,8,-1
 285 291 l 1,9,-1
 285 104 l 1,10,-1
 222 104 l 1,11,-1
 222 291 l 1,0,-1
EndSplineSet
EndChar

StartChar: comma
Encoding: 44 44 11
Width: 500
Flags: W
LayerCount: 2
Fore
SplineSet
165 -138 m 1,0,1
 193.000488282 -112.000488282 193.000488282 -112.000488282 211.5 -82 c 128,-1,2
 229.999511718 -52 229.999511718 -52 230 -33 c 0,3,4
 230 -24 230 -24 225 -18 c 128,-1,5
 220.000488282 -12 220.000488282 -12 207 0 c 0,6,7
 193.000488282 13.0004882812 193.000488282 13.0004882812 186 22 c 128,-1,8
 178.999511718 31 178.999511718 31 179 44 c 0,9,10
 179 69.0004882812 179 69.0004882812 195.5 86 c 128,-1,11
 212 102.999511719 212 102.999511719 238 103 c 0,12,13
 265 103 265 103 285.5 79.5 c 128,-1,14
 306.000488282 55.9995117188 306.000488282 55.9995117188 306 20 c 0,15,16
 306 -58 306 -58 199 -168 c 1,17,-1
 165 -138 l 1,0,1
EndSplineSet
EndChar

StartChar: hyphen
Encoding: 45 45 12
Width: 500
Flags: W
LayerCount: 2
Fore
SplineSet
71 348 m 1,0,-1
 431 348 l 1,1,-1
 431 281 l 1,2,-1
 71 281 l 1,3,-1
 71 348 l 1,0,-1
EndSplineSet
EndChar

StartChar: period
Encoding: 46 46 13
Width: 500
Flags: W
LayerCount: 2
Fore
SplineSet
197 6 m 128,-1,1
 180.000488282 22.9995117188 180.000488282 22.9995117188 180 45.9990234375 c 128,-1,2
 180 68.9985351562 180 68.9985351562 197 85.998046875 c 128,-1,3
 213.999511718 102.997558594 213.999511718 102.997558594 238 102.998046875 c 0,4,5
 260.999511718 102.998046875 260.999511718 102.998046875 277.999023438 85.998046875 c 128,-1,6
 294.998535156 68.9985351562 294.998535156 68.9985351562 294.999023438 45.9990234375 c 128,-1,7
 294.999023438 22.9995117188 294.999023438 22.9995117188 277.999023438 6 c 128,-1,8
 260.999511719 -10.9995117188 260.999511719 -10.9995117188 238 -11 c 0,9,0
 214 -11 214 -11 197 6 c 128,-1,1
EndSplineSet
EndChar

StartChar: slash
Encoding: 47 47 14
Width: 500
Flags: W
LayerCount: 2
Fore
SplineSet
64 -13 m 1,0,-1
 377 665 l 1,1,-1
 437 634 l 1,2,-1
 123 -42 l 1,3,-1
 64 -13 l 1,0,-1
EndSplineSet
EndChar

StartChar: zero
Encoding: 48 48 15
Width: 500
Flags: W
LayerCount: 2
Fore
SplineSet
392.5 542 m 128,-1,1
 443.000488282 456.999511718 443.000488282 456.999511718 443 308 c 0,2,3
 443 155 443 155 393 72 c 128,-1,4
 343.000488282 -10.9995117188 343.000488282 -10.9995117188 250 -11 c 128,-1,5
 157 -11 157 -11 107 72 c 128,-1,6
 57.0004882812 154.999511718 57.0004882812 154.999511718 57 308 c 0,7,8
 57 456.999511718 57 456.999511718 107.5 542 c 128,-1,9
 158.000488282 627.000488282 158.000488282 627.000488282 250 627 c 128,-1,0
 341.999511718 627 341.999511718 627 392.5 542 c 128,-1,1
161 496.5 m 128,-1,11
 129.000488282 427.000488282 129.000488282 427.000488282 129 307.999023438 c 0,12,13
 129 242.999511719 129 242.999511719 138 193 c 1,14,-1
 350 467 l 1,15,16
 335 515 335 515 309.5 540.5 c 128,-1,17
 284 566 284 566 250 566 c 0,18,10
 193 566 193 566 161 496.5 c 128,-1,11
339 116.998046875 m 128,-1,20
 370.999511718 183.998535156 370.999511718 183.998535156 371 307.998046875 c 0,21,22
 371 365.998535156 371 365.998535156 364 407.998046875 c 1,23,-1
 152 137.998046875 l 1,24,25
 183.999511718 49.9975585938 183.999511718 49.9975585938 250 49.998046875 c 0,26,19
 307 49.998046875 307 49.998046875 339 116.998046875 c 128,-1,20
EndSplineSet
EndChar

StartChar: one
Encoding: 49 49 16
Width: 500
Flags: W
LayerCount: 2
Fore
SplineSet
230 537 m 1,0,-1
 104 500 l 1,1,-1
 88 539 l 1,2,-1
 251 624 l 1,3,-1
 300 624 l 1,4,-1
 300 0 l 1,5,-1
 230 0 l 1,6,-1
 230 537 l 1,0,-1
EndSplineSet
EndChar

StartChar: two
Encoding: 50 50 17
Width: 500
Flags: W
LayerCount: 2
Fore
SplineSet
73 56 m 1,0,-1
 154 138 l 2,1,2
 235 219 235 219 275.5 265 c 128,-1,3
 316 311.000488282 316 311.000488282 340 356.5 c 128,-1,4
 364 401.999511718 364 401.999511718 364 451 c 0,5,6
 364 512.000488282 364 512.000488282 335 539 c 128,-1,7
 306.000488282 566 306.000488282 566 258 566 c 0,8,9
 183 566 183 566 133 503 c 0,10,11
 119.999511718 486.999511718 119.999511718 486.999511718 120 475 c 0,12,13
 120 469 120 469 121 466 c 2,14,-1
 117 461 l 1,15,-1
 109 466 l 1,16,-1
 58 506 l 1,17,18
 88 564.000488282 88 564.000488282 140 595.5 c 128,-1,19
 192.000488282 627 192.000488282 627 257 627 c 0,20,21
 336.999511718 627 336.999511718 627 386.5 579 c 128,-1,22
 436 531 436 531 436 449 c 0,23,24
 436 395 436 395 410 344 c 128,-1,25
 384.000488282 293 384.000488282 293 343.5 247 c 128,-1,26
 303 200.999511718 303 200.999511718 231 130 c 2,27,-1
 163 61 l 1,28,-1
 395 61 l 2,29,30
 411.000488282 61 411.000488282 61 418.5 63 c 128,-1,31
 426 64.9995117188 426 64.9995117188 432 71 c 1,32,-1
 439 71 l 1,33,-1
 439 0 l 1,34,-1
 73 0 l 1,35,-1
 73 56 l 1,0,-1
EndSplineSet
EndChar

StartChar: three
Encoding: 51 51 18
Width: 500
Flags: W
LayerCount: 2
Fore
SplineSet
145.5 7 m 128,-1,1
 100.999511718 25 100.999511718 25 69 60.0009765625 c 1,2,-1
 115 115.000976562 l 1,3,-1
 122 123.000976562 l 1,4,-1
 127 118.000976562 l 1,5,6
 128.000488282 108.000488281 128.000488282 108.000488281 131 100.500976562 c 128,-1,7
 134 93.0009765627 134 93.0009765627 145 83.0009765625 c 0,8,9
 164.000488282 67.0004882812 164.000488282 67.0004882812 185.5 58.0009765625 c 128,-1,10
 206.999511718 49.0009765625 206.999511718 49.0009765625 237 49.0009765625 c 0,11,12
 295.000488282 49.0009765625 295.000488282 49.0009765625 325 83.0009765625 c 128,-1,13
 355 117.001464844 355 117.001464844 355 174.000976562 c 0,14,15
 355 236.000488281 355 236.000488281 317.5 267.000976562 c 128,-1,16
 280 298.001464844 280 298.001464844 212 298.000976562 c 0,17,18
 201.999511718 298.000976562 201.999511718 298.000976562 179.999023438 296.000976562 c 1,19,-1
 179.999023438 352.000976562 l 1,20,21
 268.998535156 352.000976562 268.998535156 352.000976562 301.499023438 385.000976562 c 128,-1,22
 333.999511719 418.000976562 333.999511719 418.000976562 333.999023438 475.000976562 c 0,23,24
 333.999023438 517.000976562 333.999023438 517.000976562 309.499023438 542.000976562 c 128,-1,25
 284.999511719 567.001464844 284.999511719 567.001464844 244.999023438 567.000976562 c 0,26,27
 179.999511719 567.000976562 179.999511719 567.000976562 130.999023438 521.000976562 c 1,28,-1
 88.9990234375 563.000976562 l 1,29,30
 149.999511719 627.001464844 149.999511719 627.001464844 244 627.000976562 c 0,31,32
 319 627.000976562 319 627.000976562 362.5 584.500976562 c 128,-1,33
 406 542.001464844 406 542.001464844 406 472.000976562 c 0,34,35
 406 421.000976562 406 421.000976562 381 383.000976562 c 128,-1,36
 355.999511718 345.001464844 355.999511718 345.001464844 308 330.000976562 c 1,37,38
 363.000488282 312.000976562 363.000488282 312.000976562 395 272.000976562 c 128,-1,39
 426.999511718 232.000488281 426.999511718 232.000488281 427 171 c 0,40,41
 427 121.000488282 427 121.000488282 405 79.5 c 128,-1,42
 382.999511718 37.9995117188 382.999511718 37.9995117188 341 13.5 c 128,-1,43
 299 -10.9995117188 299 -10.9995117188 240 -11 c 0,44,0
 190.000488282 -11 190.000488282 -11 145.5 7 c 128,-1,1
EndSplineSet
EndChar

StartChar: four
Encoding: 52 52 19
Width: 500
Flags: W
LayerCount: 2
Fore
SplineSet
318 153 m 1,0,-1
 48 153 l 1,1,-1
 48 204 l 1,2,-1
 333 624 l 1,3,-1
 392 624 l 1,4,-1
 392 211 l 1,5,-1
 472 211 l 1,6,-1
 472 152 l 1,7,-1
 392 152 l 1,8,-1
 392 0 l 1,9,-1
 318 0 l 1,10,-1
 318 153 l 1,0,-1
318 212 m 1,11,-1
 318 498 l 1,12,-1
 129 212 l 1,13,-1
 318 212 l 1,11,-1
EndSplineSet
EndChar

StartChar: five
Encoding: 53 53 20
Width: 500
Flags: W
LayerCount: 2
Fore
SplineSet
143.5 14 m 128,-1,1
 95.000488282 39.0004882812 95.000488282 39.0004882812 64.0009765625 85.0009765625 c 1,2,-1
 128.000976562 133.000976562 l 1,3,-1
 132.000976562 128.000976562 l 1,4,5
 131.000488281 119.000976562 131.000488281 119.000976562 134.000976562 111.500976562 c 128,-1,6
 137.000976562 104.000976562 137.000976562 104.000976562 148.000976562 93.0009765625 c 0,7,8
 168.000488281 71.0004882812 168.000488281 71.0004882812 193.000976562 60.5009765625 c 128,-1,9
 218.001464844 50.0009765625 218.001464844 50.0009765625 253.000976562 50.0009765625 c 0,10,11
 285.000488281 50.0009765625 285.000488281 50.0009765625 313.000976562 68.5009765625 c 128,-1,12
 341.001464844 87.0004882812 341.001464844 87.0004882812 357.500976562 120.5 c 128,-1,13
 374.000976562 153.999511718 374.000976562 153.999511718 374.000976562 199 c 0,14,15
 374.000976562 266.999511718 374.000976562 266.999511718 337.500976562 307 c 128,-1,16
 301.001464844 347.000488282 301.001464844 347.000488282 246.000976562 347 c 0,17,18
 214.001464844 347 214.001464844 347 183.000976562 331.5 c 128,-1,19
 152.000488281 316.000488282 152.000488281 316.000488282 129.000976562 288 c 1,20,-1
 85.0009765625 306 l 1,21,-1
 106.000976562 623 l 1,22,-1
 422.000976562 623 l 1,23,-1
 422.000976562 560 l 1,24,-1
 165.000976562 560 l 1,25,-1
 155.000976562 381 l 1,26,27
 204.001464844 405 204.001464844 405 257.000976562 405 c 0,28,29
 311.000976562 405 311.000976562 405 353.500976562 379.5 c 128,-1,30
 396.000488281 354 396.000488281 354 420.5 306.5 c 128,-1,31
 444.999511718 258.999511718 444.999511718 258.999511718 445 196 c 128,-1,32
 445 133 445 133 419.5 86 c 128,-1,33
 394 39.0004882812 394 39.0004882812 349.5 14 c 128,-1,34
 304.999511718 -11.0004882812 304.999511718 -11.0004882812 249 -11 c 0,35,0
 192 -11 192 -11 143.5 14 c 128,-1,1
EndSplineSet
EndChar

StartChar: six
Encoding: 54 54 21
Width: 500
Flags: W
LayerCount: 2
Fore
SplineSet
118 68.5 m 128,-1,1
 67 146.999511718 67 146.999511718 66.9990234375 284.000976562 c 0,2,3
 66.9990234375 394.000488281 66.9990234375 394.000488281 93.9990234375 472.000976562 c 128,-1,4
 120.999023438 550.000976562 120.999023438 550.000976562 170.499023438 590.000976562 c 128,-1,5
 219.999023438 630.001464844 219.999023438 630.001464844 286.999023438 630.000976562 c 0,6,7
 364.999023438 630.000976562 364.999023438 630.000976562 423.999023438 573.000976562 c 1,8,-1
 372.999023438 515.000976562 l 1,9,-1
 367.999023438 520.000976562 l 1,10,11
 366.998535156 530.001464844 366.998535156 530.001464844 363.499023438 537.001953125 c 128,-1,12
 359.999511719 544.002441406 359.999511719 544.002441406 346.999023438 553.001953125 c 0,13,14
 324.998535156 568.001953125 324.998535156 568.001953125 288.999023438 568.001953125 c 0,15,16
 255.999023438 568.001953125 255.999023438 568.001953125 221.999023438 547.501953125 c 128,-1,17
 187.998535156 527.001464844 187.998535156 527.001464844 162.499023438 473.500976562 c 128,-1,18
 136.999023438 420.000488281 136.999023438 420.000488281 135.999023438 327.000976562 c 1,19,20
 156.999023438 362.000488281 156.999023438 362.000488281 192.499023438 382 c 128,-1,21
 227.999511719 401.999511718 227.999511719 401.999511718 268 402 c 0,22,23
 314.999511718 402 314.999511718 402 354 376.5 c 128,-1,24
 393 351 393 351 416 304.5 c 128,-1,25
 438.999511718 258 438.999511718 258 439 198 c 0,26,27
 439 136.999511718 439 136.999511718 415.5 90 c 128,-1,28
 391.999511718 43.0004882812 391.999511718 43.0004882812 351 16.5 c 128,-1,29
 310.000488282 -10.0004882812 310.000488282 -10.0004882812 261 -10 c 0,30,0
 169.000488282 -10 169.000488282 -10 118 68.5 c 128,-1,1
339.999023438 90.501953125 m 128,-1,32
 370.999511719 129.002441406 370.999511719 129.002441406 371.000976562 197.001953125 c 0,33,34
 371.000976562 244.001464844 371.000976562 244.001464844 355.000976562 276.501953125 c 128,-1,35
 339.000488281 309.002441406 339.000488281 309.002441406 314 325.002929688 c 128,-1,36
 288.999511718 341.003417969 288.999511718 341.003417969 262 341.002929688 c 0,37,38
 227.000488282 341.002929688 227.000488282 341.002929688 194 317.502929688 c 128,-1,39
 161 294.002441406 161 294.002441406 140 257.001953125 c 1,40,41
 138.000488282 241.001464844 138.000488282 241.001464844 138 231.000976562 c 0,42,43
 138 187.001464844 138 187.001464844 153.5 146.001953125 c 128,-1,44
 168.999511718 105.002441406 168.999511718 105.002441406 197.999023438 78.501953125 c 128,-1,45
 226.998535156 52.0014648438 226.998535156 52.0014648438 263.999023438 52.001953125 c 0,46,31
 308.999023438 52.001953125 308.999023438 52.001953125 339.999023438 90.501953125 c 128,-1,32
EndSplineSet
EndChar

StartChar: seven
Encoding: 55 55 22
Width: 500
Flags: W
LayerCount: 2
Fore
SplineSet
345 557 m 1,0,-1
 79 557.000976562 l 1,1,-1
 79 623.000976562 l 1,2,-1
 432 623.000976562 l 1,3,-1
 432 584.000976562 l 1,4,5
 309 274.000488281 309 274.000488281 234 0 c 1,6,-1
 155 0 l 1,7,8
 242 285 242 285 345 557 c 1,0,-1
EndSplineSet
EndChar

StartChar: eight
Encoding: 56 56 23
Width: 500
Flags: W
LayerCount: 2
Fore
SplineSet
149.5 12 m 128,-1,1
 106 34.0004882812 106 34.0004882812 82.998046875 72.001953125 c 128,-1,2
 59.9985351562 110.001464844 59.9985351562 110.001464844 59.998046875 157.000976562 c 0,3,4
 59.998046875 211.000976562 59.998046875 211.000976562 93.998046875 258.000976562 c 128,-1,5
 127.998535156 305.000488281 127.998535156 305.000488281 184.998046875 331 c 1,6,7
 141.997558594 353.000488282 141.997558594 353.000488282 115.998046875 392.5 c 128,-1,8
 89.9985351562 431.999511718 89.9985351562 431.999511718 89.998046875 477 c 0,9,10
 89.998046875 544.000488282 89.998046875 544.000488282 132.998046875 587.5 c 128,-1,11
 175.998535156 631 175.998535156 631 254.999023438 631 c 0,12,13
 336.999511719 631 336.999511719 631 378.5 589.5 c 128,-1,14
 420.000488282 547.999511718 420.000488282 547.999511718 420 483 c 0,15,16
 420 438 420 438 393 397.5 c 128,-1,17
 366 357 366 357 321 333 c 1,18,19
 375 307.999511718 375 307.999511718 408 261.5 c 128,-1,20
 441 215 441 215 441 161 c 0,21,22
 441 113 441 113 417.5 74 c 128,-1,23
 393.999511718 35 393.999511718 35 350.5 12.5 c 128,-1,24
 307 -10 307 -10 250 -10 c 128,-1,0
 193 -10 193 -10 149.5 12 c 128,-1,1
327.998046875 412.501953125 m 128,-1,26
 351.99609375 445.998738647 351.99609375 445.998738647 351.99609375 481.001953125 c 0,27,28
 351.99609375 519.001464844 351.99609375 519.001464844 325.99609375 545.501953125 c 128,-1,29
 299.996582032 572.002441406 299.996582032 572.002441406 252.997070312 572.001953125 c 128,-1,30
 205.997558594 572.001953125 205.997558594 572.001953125 181.498046875 546.501953125 c 128,-1,31
 156.998535156 521.001953125 156.998535156 521.001953125 156.998046875 484.001953125 c 0,32,33
 156.998046875 442.001953125 156.998046875 442.001953125 183.998046875 415.001953125 c 128,-1,34
 210.998046875 388.001953125 210.998046875 388.001953125 266.998046875 358.001953125 c 1,35,25
 303.998535156 379.001953125 303.998535156 379.001953125 327.998046875 412.501953125 c 128,-1,26
338.99609375 83.5029296875 m 128,-1,37
 369.996582032 114.002441406 369.996582032 114.002441406 369.99609375 160.999023438 c 0,38,39
 369.99609375 206.999511719 369.99609375 206.999511719 333.99609375 245.5 c 128,-1,40
 297.99609375 284.000488282 297.99609375 284.000488282 236.99609375 303.000976562 c 1,41,42
 190.995605468 284.000488281 190.995605468 284.000488281 161.495117188 246.000976562 c 128,-1,43
 131.994628906 208.001464844 131.994628906 208.001464844 131.995117188 164.001953125 c 0,44,45
 131.995117188 117.002441406 131.995117188 117.002441406 164.495117188 85.0029296875 c 128,-1,46
 196.995605469 53.0034179688 196.995605469 53.0034179688 251.99609375 53.0029296875 c 0,47,36
 307.995605468 53.0029296875 307.995605468 53.0029296875 338.99609375 83.5029296875 c 128,-1,37
EndSplineSet
EndChar

StartChar: nine
Encoding: 57 57 24
Width: 500
Flags: W
LayerCount: 2
Fore
SplineSet
348.5 593.5 m 128,-1,1
 392 560.000488282 392 560.000488282 415.5 500.000976562 c 128,-1,2
 439.000488282 440.000976562 439.000488282 440.000976562 439 363.000976562 c 0,3,4
 439 179.000488281 439 179.000488281 384 85.5009765625 c 128,-1,5
 328.999511718 -7.99853515625 328.999511718 -7.99853515625 228 -9.998046875 c 0,6,7
 138 -9.998046875 138 -9.998046875 79 47.001953125 c 1,8,-1
 129 104.001953125 l 1,9,-1
 134 99.001953125 l 1,10,11
 135.000488282 89.0014648438 135.000488282 89.0014648438 139.000976562 82.0009765625 c 128,-1,12
 143.001464844 75.0004882812 143.001464844 75.0004882812 155.000976562 67.0009765625 c 0,13,14
 182.000976562 50.0014648438 182.000976562 50.0014648438 222.000976562 50.0009765625 c 0,15,16
 290.000488281 50.0009765625 290.000488281 50.0009765625 327.000976562 116.000976562 c 128,-1,17
 364.001464844 182.000976562 364.001464844 182.000976562 371.001953125 281.000976562 c 1,18,19
 346.001464844 259.000488281 346.001464844 259.000488281 316.500976562 247.5 c 128,-1,20
 287.000488281 235.999511718 287.000488281 235.999511718 249.000976562 236 c 0,21,22
 198.000976562 236 198.000976562 236 156.500976562 260 c 128,-1,23
 115.000488281 284 115.000488281 284 91.5 326.5 c 128,-1,24
 67.9995117188 368.999511718 67.9995117188 368.999511718 68 424 c 0,25,26
 68 481 68 481 92 527.5 c 128,-1,27
 116 574 116 574 157 600.5 c 128,-1,28
 197.999511718 627.000488282 197.999511718 627.000488282 247 627 c 0,29,0
 305.000488282 627 305.000488282 627 348.5 593.5 c 128,-1,1
320.5 309.000976562 m 128,-1,31
 349 321.000976562 349 321.000976562 372.001953125 349 c 1,32,33
 368.001464844 458.999511718 368.001464844 458.999511718 338.500976562 512.5 c 128,-1,34
 309.000488281 566.000488282 309.000488281 566.000488282 250.000976562 566 c 0,35,36
 198.000488281 566 198.000488281 566 167 528 c 128,-1,37
 135.999511718 490.000488282 135.999511718 490.000488282 136 425.000976562 c 0,38,39
 136 367.000488281 136 367.000488281 169 332.000976562 c 128,-1,40
 202 297.001464844 202 297.001464844 250 297.000976562 c 0,41,30
 292 297.000976562 292 297.000976562 320.5 309.000976562 c 128,-1,31
EndSplineSet
EndChar

StartChar: colon
Encoding: 58 58 25
Width: 500
Flags: W
LayerCount: 2
Fore
SplineSet
197 325 m 128,-1,1
 179 341.999511718 179 341.999511718 179 364.999023438 c 0,2,3
 179 388.999023438 179 388.999023438 196.5 405.999023438 c 128,-1,4
 214.000488282 422.998535156 214.000488282 422.998535156 238 422.999023438 c 128,-1,5
 262 422.999023438 262 422.999023438 280 405.999023438 c 128,-1,6
 298 388.999511719 298 388.999511719 298 364.999023438 c 0,7,8
 298 341.999511719 298 341.999511719 280 325 c 128,-1,9
 262 308.000488282 262 308.000488282 238 308 c 0,10,0
 215.000488282 308 215.000488282 308 197 325 c 128,-1,1
196 5.5 m 128,-1,12
 179.000488282 22 179.000488282 22 179.000976562 45.9990234375 c 128,-1,13
 179.000976562 69.9990234375 179.000976562 69.9990234375 196.500976562 86.9990234375 c 128,-1,14
 214.001464844 103.998535156 214.001464844 103.998535156 238.000976562 103.999023438 c 128,-1,15
 262.000976562 103.999023438 262.000976562 103.999023438 280.000976562 86.9990234375 c 128,-1,16
 298.000976562 69.9995117188 298.000976562 69.9995117188 298.000976562 45.9990234375 c 0,17,18
 298.000976562 22.9995117188 298.000976562 22.9995117188 280.500976562 6 c 128,-1,19
 263.000488281 -10.9995117188 263.000488281 -10.9995117188 238 -11 c 128,-1,11
 212.999511718 -11 212.999511718 -11 196 5.5 c 128,-1,12
EndSplineSet
EndChar

StartChar: semicolon
Encoding: 59 59 26
Width: 500
Flags: W
LayerCount: 2
Fore
SplineSet
197 325 m 128,-1,1
 179 341.999511718 179 341.999511718 179 364.999023438 c 0,2,3
 179 388.999023438 179 388.999023438 196.5 405.999023438 c 128,-1,4
 214.000488282 422.998535156 214.000488282 422.998535156 238 422.999023438 c 128,-1,5
 262 422.999023438 262 422.999023438 280 405.999023438 c 128,-1,6
 298 388.999511719 298 388.999511719 298 364.999023438 c 0,7,8
 298 341.999511719 298 341.999511719 280 325 c 128,-1,9
 262 308.000488282 262 308.000488282 238 308 c 0,10,0
 215.000488282 308 215.000488282 308 197 325 c 128,-1,1
165 -138 m 1,11,12
 193.000488282 -112.000488282 193.000488282 -112.000488282 211.5 -82 c 128,-1,13
 229.999511718 -52 229.999511718 -52 230 -33 c 0,14,15
 230 -24 230 -24 225 -18 c 128,-1,16
 220.000488282 -12 220.000488282 -12 207 0 c 0,17,18
 193.000488282 13.0004882812 193.000488282 13.0004882812 186 22 c 128,-1,19
 178.999511718 31 178.999511718 31 179 44 c 0,20,21
 179 69.0004882812 179 69.0004882812 195.5 86 c 128,-1,22
 212 102.999511719 212 102.999511719 238 103 c 0,23,24
 265 103 265 103 285.5 79.5 c 128,-1,25
 306.000488282 55.9995117188 306.000488282 55.9995117188 306 20 c 0,26,27
 306 -58 306 -58 199 -168 c 1,28,-1
 165 -138 l 1,11,12
EndSplineSet
EndChar

StartChar: less
Encoding: 60 60 27
Width: 500
Flags: W
LayerCount: 2
Fore
SplineSet
35 296 m 1,0,-1
 35 344 l 1,1,-1
 458 567 l 1,2,-1
 458 496 l 1,3,-1
 111 319 l 1,4,-1
 461 123 l 1,5,-1
 461 47 l 1,6,-1
 35 296 l 1,0,-1
EndSplineSet
EndChar

StartChar: equal
Encoding: 61 61 28
Width: 500
Flags: W
LayerCount: 2
Fore
SplineSet
45 429 m 5,0,-1
 456 429 l 5,1,-1
 456 368 l 5,2,-1
 45 368 l 5,3,-1
 45 429 l 5,0,-1
45 272 m 5,4,-1
 456 272 l 5,5,-1
 456 211 l 5,6,-1
 45 211 l 5,7,-1
 45 272 l 5,4,-1
EndSplineSet
Substitution2: "greater_greater_equal.liga Single Substitution" greater_greater_equal.liga
EndChar

StartChar: greater
Encoding: 62 62 29
Width: 500
Flags: W
LayerCount: 2
Fore
SplineSet
40 123 m 5,0,-1
 389 319 l 5,1,-1
 42 496 l 5,2,-1
 42 567 l 5,3,-1
 466 344 l 5,4,-1
 466 296 l 5,5,-1
 40 47 l 5,6,-1
 40 123 l 5,0,-1
EndSplineSet
Substitution2: "greater_greater_equal.liga Single Substitution (2nd)" LIG2
Substitution2: "greater_greater_equal.liga Single Substitution" LIG
EndChar

StartChar: question
Encoding: 63 63 30
Width: 500
Flags: W
LayerCount: 2
Fore
SplineSet
226 226 m 2,0,1
 226 275.000488282 226 275.000488282 244.001953125 305 c 128,-1,2
 262.001953125 335 262.001953125 335 297.001953125 369 c 0,3,4
 331.002441406 403.000488282 331.002441406 403.000488282 348.001953125 431.000976562 c 128,-1,5
 365.001464844 459.001464844 365.001464844 459.001464844 365.001953125 504.000976562 c 128,-1,6
 365.001953125 549.000976562 365.001953125 549.000976562 334.001953125 576.500976562 c 128,-1,7
 303.001464844 604.000488281 303.001464844 604.000488281 254.000976562 604.000976562 c 0,8,9
 216.001464844 604.000976562 216.001464844 604.000976562 187.001953125 593.000976562 c 128,-1,10
 158.002441406 582.001464844 158.002441406 582.001464844 136.001953125 558.000976562 c 0,11,12
 126.001464844 547.001464844 126.001464844 547.001464844 123.500976562 540.000976562 c 128,-1,13
 121.000488281 533.000488281 121.000488281 533.000488281 122.000976562 523 c 1,14,-1
 118.000976562 517 l 1,15,-1
 110.000976562 523 l 1,16,-1
 64.0009765625 561 l 1,17,18
 99.0004882812 613.000488282 99.0004882812 613.000488282 143 639 c 128,-1,19
 186.999511718 664.999511718 186.999511718 664.999511718 257 665 c 0,20,21
 336.999511718 665 336.999511718 665 385.499023438 623 c 128,-1,22
 433.998535156 581 433.998535156 581 433.999023438 509 c 0,23,24
 433.999023438 452 433.999023438 452 413.999023438 418 c 128,-1,25
 393.999511719 383.999511718 393.999511719 383.999511718 356 348 c 0,26,27
 323 315 323 315 307.5 290 c 128,-1,28
 292.000488282 264.999511718 292.000488282 264.999511718 292 226 c 2,29,-1
 292 185 l 1,30,-1
 226 185 l 1,31,-1
 226 226 l 2,0,1
220.001953125 6 m 128,-1,33
 203.002441406 22.9995117188 203.002441406 22.9995117188 203.001953125 45.9990234375 c 128,-1,34
 203.001953125 68.9985351562 203.001953125 68.9985351562 220.001953125 85.998046875 c 128,-1,35
 237.001464844 102.997558594 237.001464844 102.997558594 261.001953125 102.998046875 c 0,36,37
 284.001464844 102.998046875 284.001464844 102.998046875 301.000976562 85.998046875 c 128,-1,38
 318.000488281 68.9985351562 318.000488281 68.9985351562 318.000976562 45.9990234375 c 128,-1,39
 318.000976562 22.9995117188 318.000976562 22.9995117188 301.000976562 6 c 128,-1,40
 284.001464844 -10.9995117188 284.001464844 -10.9995117188 261.001953125 -11 c 0,41,32
 237.001953125 -11 237.001953125 -11 220.001953125 6 c 128,-1,33
EndSplineSet
EndChar

StartChar: at
Encoding: 64 64 31
Width: 500
Flags: W
LayerCount: 2
Fore
SplineSet
165.5 25 m 128,-1,1
 105.000488282 61 105.000488282 61 67.9990234375 134 c 128,-1,2
 30.9985351562 207.000488282 30.9985351562 207.000488282 30.9990234375 313.000976562 c 0,3,4
 30.9990234375 418.000976562 30.9990234375 418.000976562 65.9990234375 490.000976562 c 128,-1,5
 100.998535156 562.000976562 100.998535156 562.000976562 155.999023438 597.500976562 c 128,-1,6
 210.999511719 633.001464844 210.999511719 633.001464844 270.999023438 633.000976562 c 0,7,8
 321.999023438 633.000976562 321.999023438 633.000976562 366.499023438 607.500976562 c 128,-1,9
 410.999511719 582.000976562 410.999511719 582.000976562 437.999023438 531.000976562 c 128,-1,10
 464.999023438 480.000976562 464.999023438 480.000976562 464.999023438 408.000976562 c 2,11,-1
 464.999023438 175.000976562 l 1,12,-1
 404.999023438 175.000976562 l 1,13,-1
 404.999023438 213.000976562 l 1,14,15
 365.999023438 167.000488281 365.999023438 167.000488281 307.999023438 167.000976562 c 0,16,17
 250.999023438 167.000976562 250.999023438 167.000976562 212.999023438 204.500976562 c 128,-1,18
 174.999511719 242.000976562 174.999511719 242.000976562 174.999023438 299.000976562 c 0,19,20
 174.999023438 364.000488281 174.999023438 364.000488281 225.999023438 404.500976562 c 128,-1,21
 276.999023438 445.000976562 276.999023438 445.000976562 371.999023438 445.000976562 c 0,22,23
 391.998535156 445.000976562 391.998535156 445.000976562 401.999023438 444.000976562 c 1,24,25
 401.999023438 502.001464844 401.999023438 502.001464844 365.499023438 540.501953125 c 128,-1,26
 328.999511719 579.002441406 328.999511719 579.002441406 267.999023438 579.001953125 c 0,27,28
 218.998535156 579.001953125 218.998535156 579.001953125 177.999023438 551.001953125 c 128,-1,29
 136.999511719 523.001464844 136.999511719 523.001464844 112.999023438 465.501953125 c 128,-1,30
 88.9990234373 408.002441406 88.9990234373 408.002441406 88.9990234375 324.001953125 c 0,31,32
 88.9990234375 233.001464844 88.9990234375 233.001464844 118.999023438 170.500976562 c 128,-1,33
 148.999023438 108.000488281 148.999023438 108.000488281 197.499023438 77 c 128,-1,34
 245.998535156 45.9995117188 245.998535156 45.9995117188 300.999023438 46 c 0,35,36
 358.999511719 46 358.999511719 46 408 79 c 1,37,-1
 435 30 l 1,38,39
 370.000488282 -10.9995117188 370.000488282 -10.9995117188 295 -11 c 0,40,0
 226 -11 226 -11 165.5 25 c 128,-1,1
384.499023438 261 m 128,-1,42
 404.999511719 300 404.999511719 300 404.999023438 393.998046875 c 1,43,44
 380.999023438 395.997558594 380.999023438 395.997558594 370.999023438 395.998046875 c 0,45,46
 305.999511719 395.998046875 305.999511719 395.998046875 271.499023438 371.498046875 c 128,-1,47
 236.999023438 346.998535156 236.999023438 346.998535156 236.999023438 302.999023438 c 0,48,49
 236.999023438 264.999511719 236.999023438 264.999511719 257.499023438 243.5 c 128,-1,50
 277.999511719 222.000488282 277.999511719 222.000488282 316.999023438 222 c 0,51,41
 363.998535156 222 363.998535156 222 384.499023438 261 c 128,-1,42
EndSplineSet
EndChar

StartChar: A
Encoding: 65 65 32
Width: 500
Flags: W
LayerCount: 2
Fore
SplineSet
349 182 m 5,0,-1
 148 182 l 1,1,-1
 85 0 l 1,2,-1
 16 0 l 1,3,-1
 246 634 l 1,4,-1
 254 634 l 1,5,-1
 484 0 l 1,6,-1
 412 0 l 1,7,-1
 349 182 l 5,0,-1
331 236 m 5,8,-1
 249 474 l 1,9,-1
 167 236 l 1,10,-1
 331 236 l 5,8,-1
EndSplineSet
EndChar

StartChar: B
Encoding: 66 66 33
Width: 500
Flags: W
LayerCount: 2
Fore
SplineSet
48 623 m 1,0,-1
 225 623.001953125 l 2,1,2
 328.999511718 623.001953125 328.999511718 623.001953125 380.499023438 582.501953125 c 128,-1,3
 431.998535156 542.001953125 431.998535156 542.001953125 431.999023438 472.001953125 c 0,4,5
 431.999023438 426.001464844 431.999023438 426.001464844 407.499023438 387.500976562 c 128,-1,6
 382.999511719 349.000488281 382.999511719 349.000488281 339.999023438 334.000976562 c 1,7,8
 391.999511719 316.000976562 391.999511719 316.000976562 424.5 271.500976562 c 128,-1,9
 457.000488282 227.000488281 457.000488282 227.000488281 457 175 c 0,10,11
 457 92.999511718 457 92.999511718 399 46.5 c 128,-1,12
 340.999511718 0 340.999511718 0 224 0 c 2,13,-1
 48 0 l 1,14,-1
 48 623 l 1,0,-1
215 365.001953125 m 2,15,16
 362 365.001953125 362 365.001953125 362 464.001953125 c 0,17,18
 362 509.001953125 362 509.001953125 329 536.501953125 c 128,-1,19
 296 564.001464844 296 564.001464844 226 564.001953125 c 2,20,-1
 117 564.001953125 l 1,21,-1
 117 365.001953125 l 1,22,-1
 215 365.001953125 l 2,15,16
236 61.001953125 m 2,23,24
 383 61.001953125 383 61.001953125 383 179.001953125 c 0,25,26
 383 306.002441406 383 306.002441406 219 306.001953125 c 2,27,-1
 117 306.001953125 l 1,28,-1
 117 61.001953125 l 1,29,-1
 236 61.001953125 l 2,23,24
EndSplineSet
EndChar

StartChar: C
Encoding: 67 67 34
Width: 500
Flags: W
LayerCount: 2
Fore
SplineSet
160.5 24.5 m 128,-1,1
 106.000488282 59 106.000488282 59 73.4990234375 129.999023438 c 128,-1,2
 40.9985351562 200.998535156 40.9985351562 200.998535156 40.9990234375 307.998046875 c 0,3,4
 40.9990234375 422.998535156 40.9990234375 422.998535156 75.9990234375 494.499023438 c 128,-1,5
 110.998535156 565.999511719 110.998535156 565.999511719 164.999023438 597 c 128,-1,6
 218.999023438 628.000488282 218.999023438 628.000488282 280.999023438 628 c 0,7,8
 346.999023438 628 346.999023438 628 395.499023438 595 c 128,-1,9
 443.998535156 562 443.998535156 562 468.999023438 505 c 1,10,-1
 408.999023438 477 l 1,11,-1
 399.999023438 473 l 1,12,-1
 396.999023438 480 l 1,13,-1
 398.999023438 488 l 2,14,15
 398.999023438 498.000488282 398.999023438 498.000488282 384.999023438 516 c 0,16,17
 361.999511719 547.000488282 361.999511719 547.000488282 336 559.5 c 128,-1,18
 310.000488282 571.999511718 310.000488282 571.999511718 279 572 c 0,19,20
 199.999511718 572 199.999511718 572 154.5 503.5 c 128,-1,21
 109.000488282 434.999511718 109.000488282 434.999511718 109 313 c 0,22,23
 109 236.000488282 109 236.000488282 132 176 c 128,-1,24
 154.999511718 116 154.999511718 116 194.499023438 83 c 128,-1,25
 233.998535156 50 233.998535156 50 281.999023438 50 c 0,26,27
 318.999511719 50 318.999511719 50 353 70.5 c 128,-1,28
 387.000488282 91.0004882812 387.000488282 91.0004882812 408 126 c 1,29,-1
 460 92 l 1,30,31
 428.999511718 41 428.999511718 41 387 15.5 c 128,-1,32
 345 -10 345 -10 285 -10 c 0,33,0
 214.999511718 -10 214.999511718 -10 160.5 24.5 c 128,-1,1
EndSplineSet
EndChar

StartChar: D
Encoding: 68 68 35
Width: 500
Flags: W
LayerCount: 2
Fore
SplineSet
54 623 m 1,0,-1
 199.000976562 623.000976562 l 2,1,2
 276.000488281 623.000976562 276.000488281 623.000976562 321.000976562 602.500976562 c 128,-1,3
 366.000976562 582.000488281 366.000976562 582.000488281 399.000976562 538.000976562 c 0,4,5
 460.001464844 456.000488281 460.001464844 456.000488281 460.000976562 308 c 1,6,7
 454.000976562 156.999511718 454.000976562 156.999511718 390.000976562 77.5 c 128,-1,8
 326.000488281 -2 326.000488281 -2 187 -1 c 2,9,-1
 54 -1 l 1,10,-1
 54 623 l 1,0,-1
184.000976562 54.0009765625 m 2,11,12
 390.000488281 54.0009765625 390.000488281 54.0009765625 390.001953125 304.000976562 c 0,13,14
 389.001464844 431.001464844 389.001464844 431.001464844 343.000976562 497.500976562 c 128,-1,15
 297.000488281 564.000488281 297.000488281 564.000488281 195.000976562 564.000976562 c 2,16,-1
 120.000976562 564.000976562 l 1,17,-1
 120.000976562 54.0009765625 l 1,18,-1
 184.000976562 54.0009765625 l 2,11,12
EndSplineSet
EndChar

StartChar: E
Encoding: 69 69 36
Width: 500
Flags: W
LayerCount: 2
Fore
SplineSet
59 624 m 1,0,-1
 441 624 l 1,1,-1
 441 562 l 1,2,-1
 125 562 l 1,3,-1
 125 357 l 1,4,-1
 386 357 l 1,5,-1
 386 293 l 1,6,-1
 125 293 l 1,7,-1
 125 62 l 1,8,-1
 438 62 l 1,9,-1
 438 0 l 1,10,-1
 59 0 l 1,11,-1
 59 624 l 1,0,-1
EndSplineSet
EndChar

StartChar: F
Encoding: 70 70 37
Width: 500
Flags: W
LayerCount: 2
Fore
SplineSet
78 624 m 1,0,-1
 437 624 l 1,1,-1
 437 563 l 1,2,-1
 148 563 l 1,3,-1
 148 367 l 1,4,-1
 381 367 l 1,5,-1
 381 306 l 1,6,-1
 148 306 l 1,7,-1
 148 0 l 1,8,-1
 78 0 l 1,9,-1
 78 624 l 1,0,-1
EndSplineSet
EndChar

StartChar: G
Encoding: 71 71 38
Width: 500
Flags: W
LayerCount: 2
Fore
SplineSet
148.5 29 m 128,-1,1
 94.000488282 68 94.000488282 68 64.9970703125 138.999023438 c 128,-1,2
 35.9975585938 209.998535156 35.9975585938 209.998535156 35.9970703125 303.999023438 c 0,3,4
 34.9965820312 427.999511719 34.9965820312 427.999511719 71.9970703125 500.499023438 c 128,-1,5
 108.997558594 572.998535156 108.997558594 572.998535156 162.997070312 601.499023438 c 128,-1,6
 216.997070312 629.999023438 216.997070312 629.999023438 271.997070312 629.999023438 c 0,7,8
 327.996582031 629.999023438 327.996582031 629.999023438 379.997070312 600.999023438 c 128,-1,9
 431.997558594 571.999511719 431.997558594 571.999511719 457.997070312 525 c 1,10,-1
 408.997070312 486 l 1,11,-1
 400.997070312 479 l 1,12,-1
 396.997070312 485 l 1,13,14
 397.997558594 492.999511718 397.997558594 492.999511718 394.498046875 500 c 128,-1,15
 390.998535156 507.000488282 390.998535156 507.000488282 379.999023438 519 c 0,16,17
 355.999023438 544.999511718 355.999023438 544.999511718 331.499023438 556.5 c 128,-1,18
 306.999511719 568.000488282 306.999511719 568.000488282 272.999023438 568 c 0,19,20
 197.999023438 568 197.999023438 568 151.499023438 510 c 128,-1,21
 104.999023438 451.999511718 104.999023438 451.999511718 104.999023438 318.999023438 c 0,22,23
 104.999023438 190.999511719 104.999023438 190.999511719 150.499023438 121.5 c 128,-1,24
 195.998535156 52.0004882812 195.998535156 52.0004882812 276.999023438 52 c 0,25,26
 306.999023438 52 306.999023438 52 339.999023438 61.5 c 128,-1,27
 372.999023438 70.9995117188 372.999023438 70.9995117188 394.999023438 90 c 1,28,-1
 394.999023438 238 l 1,29,-1
 281.999023438 238 l 1,30,-1
 281.999023438 299 l 1,31,-1
 459.999023438 299 l 1,32,-1
 459.999023438 55 l 1,33,34
 370.999511719 -9.99951171875 370.999511719 -9.99951171875 276.999023438 -10 c 0,35,0
 202.999511719 -10 202.999511719 -10 148.5 29 c 128,-1,1
EndSplineSet
EndChar

StartChar: H
Encoding: 72 72 39
Width: 500
Flags: W
HStem: 0 21G<50 123 366 440> 297 60<123 366> 603 20G<50 132 367 449>
VStem: 50 82<367.406 623> 50 73<0 297 357 615.812> 366 74<0 297 357 615.812> 367 82<370.922 623>
LayerCount: 2
Fore
SplineSet
50 623 m 1,0,-1
 132 623 l 1,1,-1
 132 616 l 1,2,3
 126 610 126 610 124.5 603 c 128,-1,4
 123 595.999511718 123 595.999511718 123 579 c 2,5,-1
 123 357 l 1,6,-1
 367 357 l 1,7,-1
 367 623 l 1,8,-1
 449 623 l 1,9,-1
 449 616 l 1,10,11
 443 610 443 610 441.5 603 c 128,-1,12
 440 595.999511718 440 595.999511718 440 579 c 2,13,-1
 440 0 l 1,14,-1
 366 0 l 1,15,-1
 366 297 l 1,16,-1
 123 297 l 1,17,-1
 123 0 l 1,18,-1
 50 0 l 1,19,-1
 50 623 l 1,0,-1
EndSplineSet
EndChar

StartChar: I
Encoding: 73 73 40
Width: 500
Flags: W
HStem: 0 58<81 204 274 403> 564 59<88 204 274 397>
VStem: 204 70<59 564>
LayerCount: 2
Fore
SplineSet
81 59 m 1,0,-1
 204 59 l 1,1,-1
 204 564 l 1,2,-1
 88 564 l 1,3,-1
 88 623 l 1,4,-1
 397 623 l 1,5,-1
 397 564 l 1,6,-1
 274 564 l 1,7,-1
 274 58 l 1,8,-1
 403 58 l 1,9,-1
 403 0 l 1,10,-1
 81 0 l 1,11,-1
 81 59 l 1,0,-1
EndSplineSet
EndChar

StartChar: J
Encoding: 74 74 41
Width: 500
Flags: W
LayerCount: 2
Fore
SplineSet
49 58 m 1,0,-1
 89 108.002929688 l 1,1,-1
 96 116.002929688 l 1,2,-1
 101 112.002929688 l 1,3,4
 102.000488282 102.002441406 102.000488282 102.002441406 106.000976562 95.001953125 c 128,-1,5
 110.001464844 88.0014648438 110.001464844 88.0014648438 122.000976562 78.0009765625 c 0,6,7
 157.000488281 51.0009765625 157.000488281 51.0009765625 196.000976562 51.0009765625 c 0,8,9
 247.000976562 51.0009765625 247.000976562 51.0009765625 269.500976562 86.5009765625 c 128,-1,10
 292.000976562 122.001464844 292.000976562 122.001464844 292.000976562 208.000976562 c 2,11,-1
 292.000976562 564.000976562 l 1,12,-1
 172.000976562 564.000976562 l 1,13,-1
 172.000976562 623.000976562 l 1,14,-1
 457.000976562 623.000976562 l 1,15,-1
 457.000976562 564.000976562 l 1,16,-1
 361.000976562 564.000976562 l 1,17,-1
 361.000976562 209.000976562 l 2,18,19
 363.000488281 133.000488281 363.000488281 133.000488281 341 84 c 128,-1,20
 318.999511718 34.9995117188 318.999511718 34.9995117188 281.5 12 c 128,-1,21
 244 -10.9995117188 244 -10.9995117188 198 -11 c 0,22,23
 106.000488282 -11 106.000488282 -11 49 58 c 1,0,-1
EndSplineSet
EndChar

StartChar: K
Encoding: 75 75 42
Width: 500
Flags: W
LayerCount: 2
Fore
SplineSet
166 312 m 1,0,-1
 117 258 l 1,1,-1
 117 0 l 1,2,-1
 42 0 l 1,3,-1
 42 623 l 1,4,-1
 126 623 l 1,5,-1
 126 616 l 1,6,7
 120 610 120 610 118.5 603 c 128,-1,8
 117 595.999511718 117 595.999511718 117 579 c 2,9,-1
 117 336 l 1,10,-1
 377 628 l 1,11,12
 402.000488282 623.000488282 402.000488282 623.000488282 429 623 c 2,13,-1
 455 623 l 1,14,-1
 219 354 l 1,15,-1
 471 0 l 1,16,-1
 381 -4 l 1,17,-1
 166 312 l 1,0,-1
EndSplineSet
EndChar

StartChar: L
Encoding: 76 76 43
Width: 500
Flags: W
HStem: 0 60<139 439> 603 20G<66 148>
VStem: 66 82<368.156 623> 66 73<60 615.812>
LayerCount: 2
Fore
SplineSet
66 623 m 1,0,-1
 148 623 l 1,1,-1
 148 616 l 1,2,3
 142 610 142 610 140.5 603 c 128,-1,4
 139 595.999511718 139 595.999511718 139 579 c 2,5,-1
 139 60 l 1,6,-1
 439 60 l 1,7,-1
 439 0 l 1,8,-1
 66 0 l 1,9,-1
 66 623 l 1,0,-1
EndSplineSet
EndChar

StartChar: M
Encoding: 77 77 44
Width: 500
Flags: W
LayerCount: 2
Fore
SplineSet
41 623 m 1,0,-1
 96 623 l 1,1,-1
 250 318 l 1,2,-1
 407 624 l 1,3,-1
 460 624 l 1,4,-1
 460 0 l 1,5,-1
 394 0 l 1,6,-1
 394 470 l 1,7,-1
 259 219 l 1,8,-1
 232 219 l 1,9,-1
 106 467 l 1,10,-1
 106 0 l 1,11,-1
 41 0 l 1,12,-1
 41 623 l 1,0,-1
EndSplineSet
EndChar

StartChar: N
Encoding: 78 78 45
Width: 500
Flags: W
LayerCount: 2
Fore
SplineSet
50 623 m 1,0,-1
 118 623 l 1,1,-1
 380 161 l 1,2,-1
 380 623 l 1,3,-1
 456 623 l 1,4,-1
 456 616 l 1,5,6
 450 610 450 610 448.5 603 c 128,-1,7
 447 595.999511718 447 595.999511718 447 579 c 2,8,-1
 447 0 l 1,9,-1
 392 0 l 1,10,-1
 117 490 l 1,11,-1
 117 0 l 1,12,-1
 50 0 l 1,13,-1
 50 623 l 1,0,-1
EndSplineSet
EndChar

StartChar: O
Encoding: 79 79 46
Width: 500
Flags: W
LayerCount: 2
Fore
SplineSet
85 72 m 128,-1,1
 26.9995117188 154.999511718 26.9995117188 154.999511718 27 308 c 0,2,3
 27 456.999511718 27 456.999511718 85.5 542 c 128,-1,4
 144 627.000488282 144 627.000488282 250 627 c 128,-1,5
 356.000488282 627 356.000488282 627 414.5 542 c 128,-1,6
 473 456.999511718 473 456.999511718 473 308 c 0,7,8
 473 155 473 155 415 72 c 128,-1,9
 356.999511718 -10.9995117188 356.999511718 -10.9995117188 250 -11 c 128,-1,0
 143.000488282 -11 143.000488282 -11 85 72 c 128,-1,1
361.5 117 m 128,-1,11
 400.999511718 184.000488282 400.999511718 184.000488282 401 308.000976562 c 0,12,13
 401 427.000488281 401 427.000488281 361 496.5 c 128,-1,14
 320.999511718 565.999511718 320.999511718 565.999511718 250 566 c 128,-1,15
 179.000488282 566 179.000488282 566 139 496.5 c 128,-1,16
 98.999511718 427.000488282 98.999511718 427.000488282 99 308.000976562 c 0,17,18
 99 184.000488281 99 184.000488281 138.5 117 c 128,-1,19
 177.999511718 49.9995117188 177.999511718 49.9995117188 250 50 c 128,-1,10
 322 50 322 50 361.5 117 c 128,-1,11
EndSplineSet
EndChar

StartChar: P
Encoding: 80 80 47
Width: 500
Flags: W
LayerCount: 2
Fore
SplineSet
59 623 m 1,0,-1
 259 623 l 2,1,2
 358 623 358 623 407 574 c 128,-1,3
 456.000488282 524.999511718 456.000488282 524.999511718 456 447 c 0,4,5
 456 370.000488282 456 370.000488282 408 322.5 c 128,-1,6
 360 274.999511718 360 274.999511718 264 275 c 2,7,-1
 131 275 l 1,8,-1
 131 0 l 1,9,-1
 59 0 l 1,10,-1
 59 623 l 1,0,-1
256 337 m 2,11,12
 322 337 322 337 353 365.5 c 128,-1,13
 384.000488282 394 384.000488282 394 384 445 c 0,14,15
 384 494.000488282 384 494.000488282 352 525.5 c 128,-1,16
 320.000488282 557 320.000488282 557 257 557 c 2,17,-1
 131 557 l 1,18,-1
 131 337 l 1,19,-1
 256 337 l 2,11,12
EndSplineSet
EndChar

StartChar: Q
Encoding: 81 81 48
Width: 500
Flags: W
LayerCount: 2
Fore
SplineSet
265 -117.5 m 128,-1,1
 226 -86 226 -86 225.999023438 -7 c 1,2,3
 173.998535156 0.00048828125 173.998535156 0.00048828125 128.999023438 37.5 c 128,-1,4
 83.9990234373 75 83.9990234373 75 56.4990234375 143.5 c 128,-1,5
 28.9995117188 212.000488282 28.9995117188 212.000488282 28.9990234375 308 c 0,6,7
 28.9990234375 423.999511718 28.9990234375 423.999511718 62.9990234375 496 c 128,-1,8
 96.9995117188 568 96.9995117188 568 147.5 599 c 128,-1,9
 198.000488282 630.000488282 198.000488282 630.000488282 251 630 c 0,10,11
 311 630 311 630 362 596 c 128,-1,12
 413 561.999511718 413 561.999511718 443 490 c 128,-1,13
 473 418 473 418 471 311 c 0,14,15
 471 173 471 173 424.5 93 c 128,-1,16
 378 13.0004882812 378 13.0004882812 287 -6.9990234375 c 1,17,18
 288.999511718 -43.9995117188 288.999511718 -43.9995117188 305.5 -63 c 128,-1,19
 322 -82.0004882812 322 -82.0004882812 361 -82 c 2,20,-1
 442 -77 l 1,21,-1
 440 -145 l 1,22,-1
 401 -145 l 1,23,0
 303.999511718 -149.000488282 303.999511718 -149.000488282 265 -117.5 c 128,-1,1
326.499023438 79.5 m 128,-1,25
 359.998535156 103.999511719 359.998535156 103.999511719 382 157.500976562 c 128,-1,26
 404.000488282 211.001464844 404.000488282 211.001464844 404 294.000976562 c 0,27,28
 404 398.000488281 404 398.000488281 380.5 459.000976562 c 128,-1,29
 356.999511718 520.001464844 356.999511718 520.001464844 322.5 544.500976562 c 128,-1,30
 288 569.000488281 288 569.000488281 251 569.000976562 c 0,31,32
 177.000488282 569.000976562 177.000488282 569.000976562 137 497.500976562 c 128,-1,33
 96.999511718 426.000488281 96.999511718 426.000488281 97 323 c 0,34,35
 97 203 97 203 139.5 129 c 128,-1,36
 181.999511718 55.0004882812 181.999511718 55.0004882812 255.999023438 55 c 0,37,24
 292.999511719 55 292.999511719 55 326.499023438 79.5 c 128,-1,25
EndSplineSet
EndChar

StartChar: R
Encoding: 82 82 49
Width: 500
Flags: W
LayerCount: 2
Fore
SplineSet
56 623 m 1,0,-1
 239.999023438 623.000976562 l 2,1,2
 345.999511719 623.000976562 345.999511719 623.000976562 396.5 576.000976562 c 128,-1,3
 447.000488282 529.001464844 447.000488282 529.001464844 447 445.000976562 c 0,4,5
 447 390.000488281 447 390.000488281 411.5 341 c 128,-1,6
 375.999511718 291.999511718 375.999511718 291.999511718 320 278 c 1,7,-1
 464 0 l 1,8,-1
 386 0 l 1,9,-1
 248 275 l 1,10,-1
 127 275 l 1,11,-1
 127 0 l 1,12,-1
 56 0 l 1,13,-1
 56 623 l 1,0,-1
247.999023438 337.000976562 m 2,14,15
 312.998535156 337.000976562 312.998535156 337.000976562 343.999023438 365.500976562 c 128,-1,16
 374.999511719 394.000976562 374.999511719 394.000976562 374.999023438 445.000976562 c 0,17,18
 374.999023438 495.000488281 374.999023438 495.000488281 343.499023438 526.000976562 c 128,-1,19
 311.999023438 557.001464844 311.999023438 557.001464844 247.999023438 557.000976562 c 2,20,-1
 126.999023438 557.000976562 l 1,21,-1
 126.999023438 337.000976562 l 1,22,-1
 247.999023438 337.000976562 l 2,14,15
EndSplineSet
EndChar

StartChar: S
Encoding: 83 83 50
Width: 500
Flags: W
LayerCount: 2
Fore
SplineSet
52 69 m 1,0,-1
 88.0009765625 132 l 1,1,-1
 92.0009765625 141 l 1,2,-1
 99.0009765625 137 l 2,3,4
 100.001464844 134 100.001464844 134 101.500976562 127 c 128,-1,5
 103.000976562 119.999511718 103.000976562 119.999511718 106.500976562 113.5 c 128,-1,6
 110.000488281 107.000488282 110.000488281 107.000488282 118 101 c 0,7,8
 173.999511718 53 173.999511718 53 256.999023438 53 c 0,9,10
 311.999511719 53 311.999511719 53 349 84 c 128,-1,11
 386.000488282 115.000488282 386.000488282 115.000488282 386 160 c 0,12,13
 386 188.999511718 386 188.999511718 374.5 208.5 c 128,-1,14
 362.999511718 228 362.999511718 228 333 247 c 128,-1,15
 303 266.000488282 303 266.000488282 243 292 c 0,16,17
 151.000488282 328 151.000488282 328 111.500976562 374 c 128,-1,18
 72.001464844 420.000488282 72.001464844 420.000488282 72.0009765625 477 c 0,19,20
 72.0009765625 547.000488282 72.0009765625 547.000488282 123.000976562 589 c 128,-1,21
 174.000976562 631 174.000976562 631 262.000976562 631 c 0,22,23
 313.000976562 631 313.000976562 631 357.500976562 610.5 c 128,-1,24
 402.001464844 589.999511718 402.001464844 589.999511718 435.000976562 552.999023438 c 1,25,-1
 390.000976562 492.999023438 l 1,26,-1
 384.000976562 496.999023438 l 2,27,28
 384.000976562 498.998535156 384.000976562 498.998535156 382.500976562 505.999023438 c 128,-1,29
 381.000976562 512.999511719 381.000976562 512.999511719 377.000976562 519.499023438 c 128,-1,30
 373.000488281 525.998535156 373.000488281 525.998535156 366 532.999023438 c 0,31,32
 343.000488282 554.999511719 343.000488282 554.999511719 316 563.999023438 c 128,-1,33
 289 572.999023438 289 572.999023438 251 572.999023438 c 0,34,35
 203 572.999023438 203 572.999023438 173.5 546.499023438 c 128,-1,36
 143.999511718 519.998535156 143.999511718 519.998535156 144 481.999023438 c 0,37,38
 144 452.999511719 144 452.999511719 156.5 431.5 c 128,-1,39
 168.999511718 410.000488282 168.999511718 410.000488282 202 389.5 c 128,-1,40
 235 368.999511718 235 368.999511718 298 343.999023438 c 0,41,42
 386.999511718 306.998535156 386.999511718 306.998535156 421 267.999023438 c 128,-1,43
 455.000488282 228.999023438 455.000488282 228.999023438 455 169.999023438 c 0,44,45
 455 123.998535156 455 123.998535156 432.5 82.9990234375 c 128,-1,46
 410 41.9995117188 410 41.9995117188 363 16 c 128,-1,47
 316.000488282 -9.99951171875 316.000488282 -9.99951171875 247 -10 c 0,48,49
 125.999511718 -10 125.999511718 -10 52 69 c 1,0,-1
EndSplineSet
EndChar

StartChar: T
Encoding: 84 84 51
Width: 500
Flags: W
HStem: 0 21G<208 279> 561 63<31 208 279 463>
VStem: 208 71<0 561>
LayerCount: 2
Fore
SplineSet
208 561 m 1,0,-1
 31 561 l 1,1,-1
 31 624 l 1,2,-1
 463 624 l 1,3,-1
 463 561 l 1,4,-1
 279 561 l 1,5,-1
 279 0 l 1,6,-1
 208 0 l 1,7,-1
 208 561 l 1,0,-1
EndSplineSet
EndChar

StartChar: U
Encoding: 85 85 52
Width: 500
Flags: W
LayerCount: 2
Fore
SplineSet
101 48 m 128,-1,1
 50 106.999511719 50 106.999511719 50 215 c 2,2,-1
 50 623 l 1,3,-1
 128 623 l 1,4,-1
 128 616 l 1,5,6
 122 610 122 610 120.5 603 c 128,-1,7
 119 595.999511718 119 595.999511718 119 579 c 2,8,-1
 119 214 l 2,9,10
 119 134.000488282 119 134.000488282 150 91 c 128,-1,11
 181.000488282 47.9995117188 181.000488282 47.9995117188 252 48 c 0,12,13
 324 48 324 48 355.5 91 c 128,-1,14
 387 134.000488282 387 134.000488282 387 217 c 2,15,-1
 387 623 l 1,16,-1
 454 623 l 1,17,-1
 454 218 l 2,18,19
 454 102.999511718 454 102.999511718 400.5 46 c 128,-1,20
 346.999511718 -11 346.999511718 -11 251 -11 c 0,21,0
 152 -11 152 -11 101 48 c 128,-1,1
EndSplineSet
EndChar

StartChar: V
Encoding: 86 86 53
Width: 500
Flags: W
LayerCount: 2
Fore
SplineSet
25 624 m 1,0,-1
 98 624 l 1,1,-1
 258 145 l 1,2,-1
 409 623 l 1,3,-1
 478 623 l 1,4,-1
 269 -4 l 1,5,-1
 237 -4 l 1,6,-1
 25 624 l 1,0,-1
EndSplineSet
EndChar

StartChar: W
Encoding: 87 87 54
Width: 500
Flags: W
LayerCount: 2
Fore
SplineSet
17 623 m 1,0,-1
 82 623 l 1,1,-1
 149 202 l 1,2,-1
 249 577 l 1,3,-1
 271 577 l 1,4,-1
 372 200 l 1,5,-1
 429 623 l 1,6,-1
 488 623 l 1,7,-1
 389 0 l 1,8,-1
 362 0 l 1,9,-1
 255 407 l 1,10,-1
 146 0 l 1,11,-1
 117 0 l 1,12,-1
 17 623 l 1,0,-1
EndSplineSet
EndChar

StartChar: X
Encoding: 88 88 55
Width: 500
Flags: W
LayerCount: 2
Fore
SplineSet
211 318 m 1,0,-1
 44 624 l 1,1,-1
 119 624 l 1,2,-1
 250 387 l 1,3,-1
 379 624 l 1,4,-1
 449 624 l 1,5,-1
 291 319 l 1,6,-1
 468 0 l 1,7,-1
 389 0 l 1,8,-1
 251 247 l 1,9,-1
 117 0 l 1,10,-1
 41 0 l 1,11,-1
 211 318 l 1,0,-1
EndSplineSet
EndChar

StartChar: Y
Encoding: 89 89 56
Width: 500
Flags: W
LayerCount: 2
Fore
SplineSet
220 246 m 1,0,-1
 28 623 l 1,1,-1
 108 623 l 1,2,-1
 261 321 l 1,3,-1
 399 623 l 1,4,-1
 473 623 l 1,5,-1
 296 246 l 1,6,-1
 296 0 l 1,7,-1
 220 0 l 1,8,-1
 220 246 l 1,0,-1
EndSplineSet
EndChar

StartChar: Z
Encoding: 90 90 57
Width: 500
Flags: W
LayerCount: 2
Fore
SplineSet
50 49 m 1,0,-1
 364 560 l 1,1,-1
 62 560 l 1,2,-1
 62 623 l 1,3,-1
 447 623 l 1,4,-1
 447 574 l 1,5,-1
 138 62 l 1,6,-1
 419 62 l 2,7,8
 435.000488282 62 435.000488282 62 442.5 64 c 128,-1,9
 450 65.9995117188 450 65.9995117188 456 72 c 1,10,-1
 463 72 l 1,11,-1
 463 0 l 1,12,-1
 50 0 l 1,13,-1
 50 49 l 1,0,-1
EndSplineSet
EndChar

StartChar: bracketleft
Encoding: 91 91 58
Width: 500
Flags: W
LayerCount: 2
Fore
SplineSet
131 670 m 1,0,-1
 417 670 l 1,1,-1
 417 610 l 1,2,-1
 195 610 l 1,3,-1
 195 -32 l 1,4,-1
 418 -32 l 1,5,-1
 418 -89 l 1,6,-1
 131 -89 l 1,7,-1
 131 670 l 1,0,-1
EndSplineSet
EndChar

StartChar: backslash
Encoding: 92 92 59
Width: 500
Flags: W
LayerCount: 2
Fore
SplineSet
64 634 m 1,0,-1
 123 665 l 1,1,-1
 437 -13 l 1,2,-1
 378 -42 l 1,3,-1
 64 634 l 1,0,-1
EndSplineSet
EndChar

StartChar: bracketright
Encoding: 93 93 60
Width: 500
Flags: W
LayerCount: 2
Fore
SplineSet
131 -89 m 1,0,-1
 131 -32 l 1,1,-1
 354 -32 l 1,2,-1
 354 610 l 1,3,-1
 132 610 l 1,4,-1
 132 670 l 1,5,-1
 418 670 l 1,6,-1
 418 -89 l 1,7,-1
 131 -89 l 1,0,-1
EndSplineSet
EndChar

StartChar: asciicircum
Encoding: 94 94 61
Width: 500
Flags: W
LayerCount: 2
Fore
SplineSet
93 367 m 1,0,-1
 246 623 l 1,1,-1
 268 623 l 1,2,-1
 403 368 l 1,3,-1
 350 343 l 1,4,-1
 253 518 l 1,5,-1
 143 343 l 1,6,-1
 93 367 l 1,0,-1
EndSplineSet
EndChar

StartChar: underscore
Encoding: 95 95 62
Width: 500
Flags: W
LayerCount: 2
Fore
SplineSet
35 -19 m 1,0,-1
 466 -19 l 1,1,-1
 466 -80 l 1,2,-1
 35 -80 l 1,3,-1
 35 -19 l 1,0,-1
EndSplineSet
EndChar

StartChar: grave
Encoding: 96 96 63
Width: 500
Flags: W
LayerCount: 2
Fore
SplineSet
154 642 m 1,0,-1
 209 682 l 1,1,-1
 293 533 l 1,2,-1
 255 507 l 1,3,-1
 154 642 l 1,0,-1
EndSplineSet
EndChar

StartChar: a
Encoding: 97 97 64
Width: 500
Flags: W
LayerCount: 2
Fore
SplineSet
393.5 416 m 128,-1,1
 444.999511718 365 444.999511718 365 445.001953125 243.000976562 c 2,2,-1
 445.001953125 0.0009765625 l 1,3,-1
 367.001953125 0.0009765625 l 1,4,-1
 367.001953125 70.0009765625 l 1,5,6
 325.001953125 -10.9990234375 325.001953125 -10.9990234375 211.001953125 -10.9990234375 c 0,7,8
 135.001464844 -10.9990234375 135.001464844 -10.9990234375 92.0009765625 23.5009765625 c 128,-1,9
 49.0004882812 58.0009765625 49.0004882812 58.0009765625 49.0009765625 115.000976562 c 0,10,11
 49.0009765625 163.000976562 49.0009765625 163.000976562 80.0009765625 199.000976562 c 128,-1,12
 111.001464844 235.000976562 111.001464844 235.000976562 163.500976562 254.500976562 c 128,-1,13
 216.000976562 274.000976562 216.000976562 274.000976562 279.000976562 274.000976562 c 0,14,15
 336.000976562 274.000976562 336.000976562 274.000976562 382.000976562 268.000976562 c 1,16,17
 376.000976562 345.000488281 376.000976562 345.000488281 341.500976562 376.500976562 c 128,-1,18
 307.000976562 408.000976562 307.000976562 408.000976562 239.000976562 408.000976562 c 0,19,20
 205.000488281 408.000976562 205.000488281 408.000976562 173.500976562 395.000976562 c 128,-1,21
 142.000976562 382.000488281 142.000976562 382.000488281 116.000976562 357 c 1,22,-1
 81.0009765625 403 l 1,23,24
 145.001464844 467.000488282 145.001464844 467.000488282 244.000976562 467 c 0,25,0
 342.000488281 467 342.000488281 467 393.5 416 c 128,-1,1
335.001953125 87.5009765625 m 128,-1,27
 378.002441406 131.000976562 378.002441406 131.000976562 382.001953125 213.000976562 c 1,28,29
 337.001953125 220.001464844 337.001953125 220.001464844 285.001953125 220.000976562 c 0,30,31
 209.001464844 220.000976562 209.001464844 220.000976562 165.001953125 195.000976562 c 128,-1,32
 121.002441406 170.000488281 121.002441406 170.000488281 121.001953125 119.000976562 c 0,33,34
 121.001953125 44.0009765627 121.001953125 44.0009765627 218.001953125 44.0009765625 c 0,35,26
 292.001464844 44.0009765625 292.001464844 44.0009765625 335.001953125 87.5009765625 c 128,-1,27
EndSplineSet
EndChar

StartChar: b
Encoding: 98 98 65
Width: 500
Flags: W
LayerCount: 2
Fore
SplineSet
190 7.5 m 128,-1,1
 155.000488282 25.9995117188 155.000488282 25.9995117188 130.999023438 59.9990234375 c 1,2,-1
 105.999023438 -0.0009765625 l 1,3,-1
 59.9990234375 -0.0009765625 l 1,4,-1
 59.9990234375 664.999023438 l 1,5,-1
 141.999023438 664.999023438 l 1,6,-1
 141.999023438 657.999023438 l 1,7,8
 135.999023438 651.999023438 135.999023438 651.999023438 134.499023438 644.999023438 c 128,-1,9
 132.999023438 637.998535156 132.999023438 637.998535156 132.999023438 620.999023438 c 2,10,-1
 132.999023438 386.999023438 l 1,11,12
 154.999511719 423.999511719 154.999511719 423.999511719 192.499023438 446 c 128,-1,13
 229.999023438 468.000488282 229.999023438 468.000488282 268.999023438 468 c 0,14,15
 354.998535156 468 354.998535156 468 405.999023438 408 c 128,-1,16
 456.999023438 348 456.999023438 348 456.999023438 233 c 0,17,18
 456.999023438 155 456.999023438 155 429.999023438 99.5 c 128,-1,19
 402.999023438 44 402.999023438 44 358.999023438 16.5 c 128,-1,20
 314.999511719 -10.9995117188 314.999511719 -10.9995117188 265.999023438 -11 c 0,21,0
 224.999511719 -11 224.999511719 -11 190 7.5 c 128,-1,1
346.999023438 95.4990234375 m 128,-1,23
 382.999023438 137.998535156 382.999023438 137.998535156 382.998046875 228.998046875 c 0,24,25
 382.998046875 316.998535156 382.998046875 316.998535156 349.498046875 361.499023438 c 128,-1,26
 315.998535156 405.999511719 315.998535156 405.999511719 258.998046875 405.999023438 c 0,27,28
 202.998535156 405.999023438 202.998535156 405.999023438 167.999023438 355.999023438 c 128,-1,29
 132.999511719 305.999511719 132.999511719 305.999511719 132.999023438 226.999023438 c 0,30,31
 132.999023438 52.999023438 132.999023438 52.999023438 256.999023438 52.9990234375 c 0,32,22
 310.999023438 52.9990234375 310.999023438 52.9990234375 346.999023438 95.4990234375 c 128,-1,23
EndSplineSet
EndChar

StartChar: c
Encoding: 99 99 66
Width: 500
Flags: W
LayerCount: 2
Fore
SplineSet
167 20 m 128,-1,1
 114.999511718 51.0004882812 114.999511718 51.0004882812 85.4990234375 105.499023438 c 128,-1,2
 55.9985351562 159.998535156 55.9985351562 159.998535156 55.9990234375 227.998046875 c 128,-1,3
 55.9990234375 295.997558594 55.9990234375 295.997558594 85.4990234375 349.998046875 c 128,-1,4
 114.999511719 403.998046875 114.999511719 403.998046875 167 434.998046875 c 128,-1,5
 219.000488282 465.998535156 219.000488282 465.998535156 284 465.998046875 c 0,6,7
 339.000488282 465.998046875 339.000488282 465.998046875 384 443.498046875 c 128,-1,8
 429 420.998046875 429 420.998046875 457 380.998046875 c 1,9,-1
 412 336.998046875 l 1,10,-1
 405 329.998046875 l 1,11,-1
 400 334.998046875 l 1,12,13
 400 343.998046875 400 343.998046875 396.5 351.498046875 c 128,-1,14
 393.000488282 358.998046875 393.000488282 358.998046875 381 368.998046875 c 0,15,16
 360 387.998535156 360 387.998535156 335 396.499023438 c 128,-1,17
 309.999511718 404.999511719 309.999511718 404.999511719 275.999023438 404.999023438 c 0,18,19
 236.999023438 404.999023438 236.999023438 404.999023438 203.499023438 383.499023438 c 128,-1,20
 169.999511719 361.999511719 169.999511719 361.999511719 150 322.999023438 c 128,-1,21
 130.000488282 283.999023438 130.000488282 283.999023438 130 232.999023438 c 128,-1,22
 130 181.999023438 130 181.999023438 150.5 140.999023438 c 128,-1,23
 171.000488282 99.9995117185 171.000488282 99.9995117185 207.5 77 c 128,-1,24
 243.999511718 54.0004882812 243.999511718 54.0004882812 289 54 c 0,25,26
 358 54 358 54 408 110 c 1,27,-1
 450 61 l 1,28,29
 382.999511718 -11 382.999511718 -11 285 -11 c 0,30,0
 219 -11 219 -11 167 20 c 128,-1,1
EndSplineSet
EndChar

StartChar: d
Encoding: 100 100 67
Width: 500
Flags: W
LayerCount: 2
Fore
SplineSet
142 17.5 m 128,-1,1
 98.999511718 44.9995117188 98.999511718 44.9995117188 72.0009765625 99.9990234375 c 128,-1,2
 45.0009765625 154.999511719 45.0009765625 154.999511719 45.0009765625 232.999023438 c 0,3,4
 45.0009765625 311.999511719 45.0009765625 311.999511719 73.0009765625 364.999023438 c 128,-1,5
 101.001464844 417.998535156 101.001464844 417.998535156 145.000976562 443.499023438 c 128,-1,6
 189.000488281 468.999023438 189.000488281 468.999023438 238.000976562 468.999023438 c 0,7,8
 284.001464844 468.999023438 284.001464844 468.999023438 318.500976562 447.999023438 c 128,-1,9
 353.000976562 426.999023438 353.000976562 426.999023438 371.000976562 389.999023438 c 1,10,-1
 371.000976562 664.999023438 l 1,11,-1
 447.000976562 664.999023438 l 1,12,-1
 447.000976562 657.999023438 l 1,13,14
 441.000976562 651.999023438 441.000976562 651.999023438 439.500976562 644.999023438 c 128,-1,15
 438.000976562 637.998535156 438.000976562 637.998535156 438.000976562 620.999023438 c 2,16,-1
 439.000976562 70.9990234375 l 2,17,18
 439.000976562 46.9990234375 439.000976562 46.9990234375 440.500976562 31.4990234375 c 128,-1,19
 442.000976562 15.9995117188 442.000976562 15.9995117188 449.000976562 -0.0009765625 c 1,20,-1
 378.000976562 -0.0009765625 l 1,21,22
 371.000488281 15.9995117188 371.000488281 15.9995117188 369.500976562 31.4990234375 c 128,-1,23
 368.000976562 46.9985351562 368.000976562 46.9985351562 368.000976562 70.9990234375 c 1,24,25
 346.000488281 32.9995117188 346.000488281 32.9995117188 311.500976562 11.5 c 128,-1,26
 277.000976562 -9.99951171875 277.000976562 -9.99951171875 234.000976562 -10 c 0,27,0
 185.000488281 -10 185.000488281 -10 142 17.5 c 128,-1,1
336.000976562 101.999023438 m 128,-1,29
 365.000488281 150.999511719 365.000488281 150.999511719 365.001953125 230.999023438 c 0,30,31
 365.001953125 311.999023438 365.001953125 311.999023438 333.501953125 360.999023438 c 128,-1,32
 302.001953125 409.999511719 302.001953125 409.999511719 239.001953125 409.999023438 c 0,33,34
 179.001953125 409.999023438 179.001953125 409.999023438 147.001953125 365.499023438 c 128,-1,35
 115.002441406 320.998535156 115.002441406 320.998535156 115.001953125 243.999023438 c 0,36,37
 115.001953125 155.998535156 115.001953125 155.998535156 148.501953125 104.499023438 c 128,-1,38
 182.001464844 52.9995117185 182.001464844 52.9995117185 245.001953125 52.9990234375 c 0,39,28
 307.001464844 52.9990234375 307.001464844 52.9990234375 336.000976562 101.999023438 c 128,-1,29
EndSplineSet
EndChar

StartChar: e
Encoding: 101 101 68
Width: 500
Flags: W
LayerCount: 2
Fore
SplineSet
109.5 52 m 128,-1,1
 49.0004882812 113.999511719 49.0004882812 113.999511719 48.9990234375 227 c 0,2,3
 48.9990234375 302 48.9990234375 302 76.9990234375 356.5 c 128,-1,4
 104.999511719 410.999511718 104.999511719 410.999511718 152.5 439.5 c 128,-1,5
 200.000488282 468 200.000488282 468 259 468 c 0,6,7
 341.999511718 468 341.999511718 468 393.499023438 413 c 128,-1,8
 444.998535156 357.999511718 444.998535156 357.999511718 444.999023438 251 c 0,9,10
 444.999023438 240.000488282 444.999023438 240.000488282 442.999023438 218 c 1,11,-1
 117.999023438 218 l 1,12,13
 121.999511719 134 121.999511719 134 165 91 c 128,-1,14
 208.000488282 47.9995117188 208.000488282 47.9995117188 274 48 c 0,15,16
 346 48 346 48 392 99 c 1,17,-1
 432 60 l 1,18,19
 373.999511718 -10.0004882812 373.999511718 -10.0004882812 272 -10 c 128,-1,0
 170 -10 170 -10 109.5 52 c 128,-1,1
371.999023438 274.000976562 m 1,20,21
 371.999023438 338.001464844 371.999023438 338.001464844 339.499023438 375.500976562 c 128,-1,22
 306.998535156 413.000976562 306.998535156 413.000976562 253.999023438 413.000976562 c 0,23,24
 203.999511719 413.000976562 203.999511719 413.000976562 166.999023438 378.000976562 c 128,-1,25
 129.998535156 343.001464844 129.998535156 343.001464844 120.999023438 274.000976562 c 1,26,-1
 371.999023438 274.000976562 l 1,20,21
EndSplineSet
EndChar

StartChar: f
Encoding: 102 102 69
Width: 500
Flags: W
HStem: 0 21G<162 231> 400 57<63.002 162 231 381> 613 58.001<264.899 398.854>
VStem: 162 69<0 400 457.001 578.092>
LayerCount: 2
Fore
SplineSet
162 400 m 1,0,-1
 63.001953125 400.000976562 l 1,1,-1
 63.001953125 457.000976562 l 1,2,-1
 162.001953125 457.000976562 l 1,3,-1
 162.001953125 495.000976562 l 2,4,5
 162.001953125 583.001464844 162.001953125 583.001464844 207.501953125 627.000976562 c 128,-1,6
 253.001464844 671.000488281 253.001464844 671.000488281 330.000976562 671.000976562 c 0,7,8
 374.000488281 671.000976562 374.000488281 671.000976562 411.500976562 655.000976562 c 128,-1,9
 449.000976562 639.000488281 449.000976562 639.000488281 473.000976562 608 c 1,10,-1
 435.000976562 555 l 1,11,-1
 429.000976562 547 l 1,12,-1
 423.000976562 551 l 2,13,14
 423.000976562 552.999511718 423.000976562 552.999511718 421.500976562 559.499023438 c 128,-1,15
 420.000976562 565.998535156 420.000976562 565.998535156 416.000976562 572.999023438 c 128,-1,16
 412.000488281 579.999511719 412.000488281 579.999511719 404.000976562 587 c 0,17,18
 389.000976562 600.999511718 389.000976562 600.999511718 373.000976562 607 c 128,-1,19
 357.000488281 613 357.000488281 613 332 613 c 0,20,21
 285.000488282 613 285.000488282 613 258 585 c 128,-1,22
 231 556.999511718 231 556.999511718 231 495 c 2,23,-1
 231 457 l 1,24,-1
 381 457 l 1,25,-1
 381 400 l 1,26,-1
 231 400 l 1,27,-1
 231 0 l 1,28,-1
 162 0 l 1,29,-1
 162 400 l 1,0,-1
EndSplineSet
EndChar

StartChar: g
Encoding: 103 103 70
Width: 500
Flags: W
LayerCount: 2
Fore
SplineSet
449 411 m 0,0,1
 401 411 401 411 369 389.998046875 c 1,2,3
 385.999511718 355.997558594 385.999511718 355.997558594 386 314.998046875 c 0,4,5
 386 269.998046875 386 269.998046875 366.5 233.498046875 c 128,-1,6
 347 196.998535156 347 196.998535156 310.5 175.998046875 c 128,-1,7
 274.000488282 154.998046875 274.000488282 154.998046875 226 154.998046875 c 0,8,9
 188.000488282 154.998046875 188.000488282 154.998046875 155 168.998046875 c 1,10,11
 137 146.997558594 137 146.997558594 137 126.998046875 c 0,12,13
 137 102.998046875 137 102.998046875 167.5 92.498046875 c 128,-1,14
 197.999511718 81.998046875 197.999511718 81.998046875 277 81.998046875 c 0,15,16
 374.000488282 81.998046875 374.000488282 81.998046875 409.500976562 52.498046875 c 128,-1,17
 445.001464844 22.9975585938 445.001464844 22.9975585938 445.000976562 -34.001953125 c 0,18,19
 445.000976562 -93.0014648438 445.000976562 -93.0014648438 397.000976562 -132.500976562 c 128,-1,20
 349.000976562 -172.000488281 349.000976562 -172.000488281 247.000976562 -172.000976562 c 0,21,22
 149.001464844 -172.000976562 149.001464844 -172.000976562 93.5009765625 -142.000976562 c 128,-1,23
 38.0009765625 -112.000976562 38.0009765625 -112.000976562 38.0009765625 -54.0009765625 c 0,24,25
 38.0009765625 -18.0009765625 38.0009765625 -18.0009765625 58.0009765625 7.9990234375 c 128,-1,26
 78.0004882812 33.9985351562 78.0004882812 33.9985351562 109.000976562 48.9990234375 c 1,27,28
 76.0009765627 70.9995117188 76.0009765627 70.9995117188 76.0009765625 109.999023438 c 0,29,30
 76.0009765625 149.999511719 76.0009765625 149.999511719 117.000976562 193.999023438 c 1,31,32
 92.0004882815 215.999511719 92.0004882815 215.999511719 79 247 c 128,-1,33
 65.9995117188 278.000488282 65.9995117188 278.000488282 66 315.000976562 c 0,34,35
 66 359.000488281 66 359.000488281 85.5 395.5 c 128,-1,36
 105 431.999511718 105 431.999511718 141.5 453 c 128,-1,37
 177.999511718 474 177.999511718 474 226 474 c 0,38,39
 299.000488282 474 299.000488282 474 343 427 c 1,40,41
 367 449.000488282 367 449.000488282 392.5 459.5 c 128,-1,42
 418 470 418 470 449 470 c 2,43,-1
 466 469 l 1,44,-1
 475 410 l 1,45,46
 466 411.000488282 466 411.000488282 449 411 c 0,0,1
297.5 243.998046875 m 128,-1,48
 326 272.997558594 326 272.997558594 326 314.998046875 c 128,-1,49
 326 356.998046875 326 356.998046875 297.5 385.998046875 c 128,-1,50
 269 414.997558594 269 414.997558594 226 414.998046875 c 128,-1,51
 182.999511718 414.998046875 182.999511718 414.998046875 154.5 385.998046875 c 128,-1,52
 126 356.998535156 126 356.998535156 126 314.998046875 c 128,-1,53
 126 272.998046875 126 272.998046875 154.5 243.998046875 c 128,-1,54
 183 214.998535156 183 214.998535156 226 214.998046875 c 128,-1,47
 269.000488282 214.998046875 269.000488282 214.998046875 297.5 243.998046875 c 128,-1,48
370.5 -7.501953125 m 128,-1,56
 361.999511718 5.998046875 361.999511718 5.998046875 337.000976562 12.4990234375 c 128,-1,57
 312.000488281 18.9985351562 312.000488281 18.9985351562 262.000976562 18.9990234375 c 0,58,59
 190.000976562 18.9990234375 190.000976562 18.9990234375 147.000976562 31.9990234375 c 1,60,61
 123.000976562 15.9985351562 123.000976562 15.9985351562 113.500976562 -1.0009765625 c 128,-1,62
 104.001464844 -18.0004882812 104.001464844 -18.0004882812 104.000976562 -46.0009765625 c 0,63,64
 104.000976562 -80.0014648438 104.000976562 -80.0014648438 142.000976562 -99.001953125 c 128,-1,65
 180.000488281 -118.002441406 180.000488281 -118.002441406 248 -118.001953125 c 0,66,67
 314 -118.001953125 314 -118.001953125 346.5 -98.501953125 c 128,-1,68
 379.000488282 -79.001953125 379.000488282 -79.001953125 379 -45.001953125 c 0,69,55
 379 -21.001953125 379 -21.001953125 370.5 -7.501953125 c 128,-1,56
EndSplineSet
EndChar

StartChar: h
Encoding: 104 104 71
Width: 500
Flags: W
LayerCount: 2
Fore
SplineSet
73 665 m 1,0,-1
 152 665.000976562 l 1,1,-1
 152 658.000976562 l 1,2,3
 146 652.000976562 146 652.000976562 144.5 645.000976562 c 128,-1,4
 143 638.000488281 143 638.000488281 143 621.000976562 c 2,5,-1
 143 376.000976562 l 1,6,7
 170 418.000976562 170 418.000976562 210.5 443.000976562 c 128,-1,8
 251 468.001464844 251 468.001464844 293 468.000976562 c 0,9,10
 357.999511718 468.000976562 357.999511718 468.000976562 395 422.000976562 c 128,-1,11
 432.000488282 376.000488281 432.000488282 376.000488281 432 277.000976562 c 2,12,-1
 432 0.0009765625 l 1,13,-1
 362 0.0009765625 l 1,14,-1
 362 275.000976562 l 2,15,16
 362 343.000488281 362 343.000488281 339 374.000976562 c 128,-1,17
 316.000488282 405.001464844 316.000488282 405.001464844 278.000976562 405.000976562 c 0,18,19
 246.001464844 405.000976562 246.001464844 405.000976562 215.000976562 387.500976562 c 128,-1,20
 184.000488281 370.000488281 184.000488281 370.000488281 163.5 337.5 c 128,-1,21
 142.999511718 304.999511718 142.999511718 304.999511718 143 263 c 2,22,-1
 143 0 l 1,23,-1
 73 0 l 1,24,-1
 73 665 l 1,0,-1
EndSplineSet
EndChar

StartChar: i
Encoding: 105 105 72
Width: 500
Flags: W
LayerCount: 2
Fore
SplineSet
100 58 m 1,0,-1
 217 58 l 1,1,-1
 217 399 l 1,2,-1
 106 399 l 1,3,-1
 106 457 l 1,4,-1
 289 457 l 1,5,-1
 289 58 l 1,6,-1
 396 58 l 1,7,-1
 396 0 l 1,8,-1
 100 0 l 1,9,-1
 100 58 l 1,0,-1
213 568 m 128,-1,11
 198 583 198 583 197.999023438 604 c 0,12,13
 197.999023438 626.000488282 197.999023438 626.000488282 212.499023438 641 c 128,-1,14
 226.999511719 656 226.999511719 656 249 656 c 0,15,16
 270 656 270 656 285.5 640.5 c 128,-1,17
 300.999511718 625.000488282 300.999511718 625.000488282 301 604 c 128,-1,18
 301 583 301 583 285.5 568 c 128,-1,19
 270.000488282 553 270.000488282 553 249 553 c 128,-1,10
 228 553 228 553 213 568 c 128,-1,11
EndSplineSet
EndChar

StartChar: j
Encoding: 106 106 73
Width: 500
Flags: W
LayerCount: 2
Fore
SplineSet
112 -158 m 128,-1,1
 74.0004882812 -141.999511718 74.0004882812 -141.999511718 47.9990234375 -110.000976562 c 1,2,-1
 87.9990234375 -56.0009765625 l 1,3,-1
 93.9990234375 -48.0009765625 l 1,4,-1
 99.9990234375 -52.0009765625 l 2,5,6
 99.9990234375 -54.0004882812 99.9990234375 -54.0004882812 101.499023438 -60.5 c 128,-1,7
 102.999023438 -66.9995117188 102.999023438 -66.9995117188 106.999023438 -74 c 128,-1,8
 110.999511719 -81.0004882812 110.999511719 -81.0004882812 118.999023438 -87 c 0,9,10
 150.998535156 -112.000488282 150.998535156 -112.000488282 192.999023438 -112 c 0,11,12
 239.998535156 -112 239.998535156 -112 267.999023438 -80 c 128,-1,13
 295.999511719 -48.0004882812 295.999511719 -48.0004882812 295.999023438 18 c 2,14,-1
 295.999023438 398 l 1,15,-1
 125.999023438 398 l 1,16,-1
 125.999023438 457 l 1,17,-1
 368.999023438 457 l 1,18,-1
 368.999023438 22 l 2,19,20
 368.999023438 -77 368.999023438 -77 319.999023438 -125.5 c 128,-1,21
 270.998535156 -173.999511718 270.998535156 -173.999511718 193.999023438 -174 c 0,22,0
 149.999511719 -174 149.999511719 -174 112 -158 c 128,-1,1
290.998046875 567.999023438 m 128,-1,24
 275.998046875 582.999023438 275.998046875 582.999023438 275.997070312 603.999023438 c 0,25,26
 275.997070312 625.999511719 275.997070312 625.999511719 290.497070312 640.999023438 c 128,-1,27
 304.997558594 655.999023438 304.997558594 655.999023438 326.998046875 655.999023438 c 0,28,29
 347.998046875 655.999023438 347.998046875 655.999023438 363.498046875 640.499023438 c 128,-1,30
 378.997558594 624.999511719 378.997558594 624.999511719 378.998046875 603.999023438 c 128,-1,31
 378.998046875 582.999023438 378.998046875 582.999023438 363.498046875 567.999023438 c 128,-1,32
 347.998535156 552.999023438 347.998535156 552.999023438 326.998046875 552.999023438 c 128,-1,23
 305.998046875 552.999023438 305.998046875 552.999023438 290.998046875 567.999023438 c 128,-1,24
EndSplineSet
EndChar

StartChar: k
Encoding: 107 107 74
Width: 500
Flags: W
LayerCount: 2
Fore
SplineSet
199 229 m 1,0,-1
 138.999023438 173 l 1,1,-1
 138.999023438 0 l 1,2,-1
 65.9990234375 0 l 1,3,-1
 65.9990234375 665 l 1,4,-1
 147.999023438 665 l 1,5,-1
 147.999023438 658 l 1,6,7
 141.999023438 652 141.999023438 652 140.499023438 645 c 128,-1,8
 138.999023438 637.999511718 138.999023438 637.999511718 138.999023438 621 c 2,9,-1
 138.999023438 247 l 1,10,-1
 367.999023438 459 l 1,11,12
 392.999511719 454.000488282 392.999511719 454.000488282 421 454 c 2,13,-1
 447 454 l 1,14,-1
 255 273 l 1,15,-1
 479 0 l 1,16,-1
 386 -4 l 1,17,-1
 199 229 l 1,0,-1
EndSplineSet
EndChar

StartChar: l
Encoding: 108 108 75
Width: 500
Flags: W
HStem: 0 58<79 214 287 421> 607 58<85 214>
VStem: 214 73<58 607>
LayerCount: 2
Fore
SplineSet
79 58 m 1,0,-1
 214 58 l 1,1,-1
 214 607 l 1,2,-1
 85 607 l 1,3,-1
 85 665 l 1,4,-1
 287 665 l 1,5,-1
 287 58 l 1,6,-1
 421 58 l 1,7,-1
 421 0 l 1,8,-1
 79 0 l 1,9,-1
 79 58 l 1,0,-1
EndSplineSet
EndChar

StartChar: m
Encoding: 109 109 76
Width: 500
Flags: W
HStem: -0.000976562 21G<38 104 220 287 403 469> 412.999 55.001<135.825 209.908 318.929 393.084> 437 20G<38 103.997>
VStem: 38 66<0 383.84 412 457> 220 67<-0.000976562 376.772> 403 66<-0.000976562 397.458>
LayerCount: 2
Fore
SplineSet
38 457 m 1,0,-1
 103.997070312 457 l 1,1,-1
 103.997070312 412 l 1,2,3
 119.997558594 437.000488282 119.997558594 437.000488282 144.998046875 452.5 c 128,-1,4
 169.998535156 467.999511718 169.998535156 467.999511718 196.998046875 468 c 0,5,6
 226.998046875 468 226.998046875 468 249.498046875 449 c 128,-1,7
 271.998046875 429.999511718 271.998046875 429.999511718 277.998046875 401 c 1,8,9
 290.998535156 431 290.998535156 431 318.999023438 449.5 c 128,-1,10
 346.999511719 467.999511718 346.999511719 467.999511718 381 468 c 0,11,12
 426 468 426 468 448.5 435.5 c 128,-1,13
 471 402.999511718 471 402.999511718 469 350.999023438 c 2,14,-1
 469 -0.0009765625 l 1,15,-1
 403 -0.0009765625 l 1,16,-1
 403 323.999023438 l 2,17,18
 403 380.999023438 403 380.999023438 392 397.999023438 c 128,-1,19
 381.000488282 414.998535156 381.000488282 414.998535156 360 414.999023438 c 0,20,21
 342 414.999023438 342 414.999023438 325 397.999023438 c 128,-1,22
 308.000488282 380.999511719 308.000488282 380.999511719 297.5 354.499023438 c 128,-1,23
 287 327.998535156 287 327.998535156 287 301.999023438 c 2,24,-1
 287 -0.0009765625 l 1,25,-1
 220 -0.0009765625 l 1,26,-1
 220 317.999023438 l 2,27,28
 220 373.998535156 220 373.998535156 209.5 393.499023438 c 128,-1,29
 199 412.999023438 199 412.999023438 170 412.999023438 c 0,30,31
 155 412.999023438 155 412.999023438 139.5 399.499023438 c 128,-1,32
 124.000488282 385.999023438 124.000488282 385.999023438 114 361.499023438 c 128,-1,33
 103.999511718 336.999511719 103.999511718 336.999511719 104 305 c 2,34,-1
 104 0 l 1,35,-1
 38 0 l 1,36,-1
 38 457 l 1,0,-1
EndSplineSet
EndChar

StartChar: n
Encoding: 110 110 77
Width: 500
Flags: W
LayerCount: 2
Fore
SplineSet
72 457 m 1,0,-1
 141.999023438 457 l 1,1,-1
 141.999023438 376 l 1,2,3
 168.999023438 418 168.999023438 418 209.999023438 443 c 128,-1,4
 250.998535156 468.000488282 250.998535156 468.000488282 296.999023438 468 c 0,5,6
 357.999511719 468 357.999511719 468 394.499023438 421.5 c 128,-1,7
 430.998535156 375 430.998535156 375 430.999023438 277 c 2,8,-1
 430.999023438 0 l 1,9,-1
 360.999023438 0 l 1,10,-1
 360.999023438 275 l 2,11,12
 360.999023438 342.999511718 360.999023438 342.999511718 337.999023438 374 c 128,-1,13
 314.999511719 405.000488282 314.999511719 405.000488282 277 405 c 0,14,15
 245.999511718 405 245.999511718 405 214.5 387 c 128,-1,16
 183 369 183 369 162.5 336.5 c 128,-1,17
 141.999511718 303.999511718 141.999511718 303.999511718 142 263 c 2,18,-1
 142 0 l 1,19,-1
 72 0 l 1,20,-1
 72 457 l 1,0,-1
EndSplineSet
EndChar

StartChar: o
Encoding: 111 111 78
Width: 500
Flags: W
LayerCount: 2
Fore
SplineSet
141 22 m 128,-1,1
 93 52 93 52 66 106 c 128,-1,2
 39 160 39 160 39 229 c 128,-1,3
 39 298 39 298 66 352 c 128,-1,4
 93 406 93 406 141 436.5 c 128,-1,5
 189 466.999511718 189 466.999511718 250 467 c 128,-1,6
 311.000488282 467 311.000488282 467 359 436.5 c 128,-1,7
 407 406.000488282 407 406.000488282 434 352 c 128,-1,8
 461 298 461 298 461 229 c 128,-1,9
 461 160 461 160 434 106 c 128,-1,10
 407 52 407 52 359 22 c 128,-1,11
 311 -8 311 -8 250 -8 c 128,-1,0
 188.999511718 -8 188.999511718 -8 141 22 c 128,-1,1
319.5 75 m 128,-1,13
 349.999511718 97.9995117188 349.999511718 97.9995117188 367.498046875 138.5 c 128,-1,14
 384.998535156 179 384.998535156 179 384.998046875 230 c 0,15,16
 384.998046875 308 384.998046875 308 346.998046875 357.5 c 128,-1,17
 308.998535156 407 308.998535156 407 249.999023438 407 c 128,-1,18
 190.999511719 407 190.999511719 407 153 357.5 c 128,-1,19
 115.000488282 308 115.000488282 308 115 230 c 0,20,21
 115 179 115 179 132.5 138.5 c 128,-1,22
 150.000488282 98 150.000488282 98 180.5 75 c 128,-1,23
 210.999511718 52.0004882812 210.999511718 52.0004882812 250 52 c 128,-1,12
 289 52 289 52 319.5 75 c 128,-1,13
EndSplineSet
EndChar

StartChar: p
Encoding: 112 112 79
Width: 500
Flags: W
LayerCount: 2
Fore
SplineSet
60 457 m 1,0,-1
 133 456.999023438 l 1,1,-1
 133 366.999023438 l 1,2,3
 148 416.998535156 148 416.998535156 185 441.999023438 c 128,-1,4
 222.000488282 466.999511719 222.000488282 466.999511719 272 466.999023438 c 0,5,6
 324.000488282 466.999023438 324.000488282 466.999023438 367.5 440.499023438 c 128,-1,7
 411 413.998535156 411 413.998535156 437 360.999023438 c 128,-1,8
 462.999511718 307.999511719 462.999511718 307.999511719 463 231.999023438 c 0,9,10
 463 154.999511719 463 154.999511719 436 99.4990234375 c 128,-1,11
 409 43.9990234375 409 43.9990234375 364.5 15.9990234375 c 128,-1,12
 319.999511718 -12.0014648438 319.999511718 -12.0014648438 270 -12.0009765625 c 0,13,14
 229.000488282 -12.0009765625 229.000488282 -12.0009765625 193 6.9990234375 c 128,-1,15
 157 25.9995117188 157 25.9995117188 134 60 c 1,16,-1
 134 -167 l 1,17,-1
 60 -167 l 1,18,-1
 60 457 l 1,0,-1
350.5 93.4990234375 m 128,-1,20
 388 134.999511719 388 134.999511719 388 229 c 0,21,22
 388 314.000488282 388 314.000488282 355 359.5 c 128,-1,23
 322 404.999511718 322 404.999511718 261 405 c 0,24,25
 204 405 204 405 168.5 357.5 c 128,-1,26
 132.999511718 309.999511718 132.999511718 309.999511718 133 212.999023438 c 0,27,28
 134.999511718 133.998535156 134.999511718 133.998535156 168 92.9990234375 c 128,-1,29
 201 51.9995117188 201 51.9995117188 258 51.9990234375 c 0,30,19
 313.000488282 51.9990234375 313.000488282 51.9990234375 350.5 93.4990234375 c 128,-1,20
EndSplineSet
EndChar

StartChar: q
Encoding: 113 113 80
Width: 500
Flags: W
LayerCount: 2
Fore
SplineSet
370 73 m 1,0,1
 349 34 349 34 312.000976562 12.0009765625 c 128,-1,2
 275.000488281 -9.99951171875 275.000488281 -9.99951171875 230.000976562 -9.9990234375 c 0,3,4
 178.000488281 -9.9990234375 178.000488281 -9.9990234375 135 20.5009765625 c 128,-1,5
 91.999511718 51.0004882812 91.999511718 51.0004882812 66.9990234375 105.5 c 128,-1,6
 41.9985351562 159.999511718 41.9985351562 159.999511718 41.9990234375 230 c 0,7,8
 41.9990234375 303.000488282 41.9990234375 303.000488282 68.9990234375 357.5 c 128,-1,9
 95.9990234375 411.999511718 95.9990234375 411.999511718 141.999023438 440.5 c 128,-1,10
 187.999511719 469 187.999511719 469 243 469 c 0,11,12
 289.999511718 469 289.999511718 469 323 448.5 c 128,-1,13
 356 427.999511718 356 427.999511718 374 390 c 1,14,-1
 374 457 l 1,15,-1
 442 457 l 1,16,-1
 442 -167 l 1,17,-1
 370 -167 l 1,18,-1
 370 73 l 1,0,1
333.500976562 99.5009765625 m 128,-1,20
 368.000976562 146.000976562 368.000976562 146.000976562 368.000976562 241 c 0,21,22
 368.000976562 410.000488282 368.000976562 410.000488282 251.000976562 410 c 0,23,24
 191.000976562 410 191.000976562 410 153.000976562 365 c 128,-1,25
 115.001464844 320 115.001464844 320 115.000976562 233 c 0,26,27
 115.000976562 150.000488282 115.000976562 150.000488282 149.500976562 101.500976562 c 128,-1,28
 184.000976562 53.001464844 184.000976562 53.001464844 243.000976562 53.0009765625 c 0,29,19
 299.000488281 53.0009765625 299.000488281 53.0009765625 333.500976562 99.5009765625 c 128,-1,20
EndSplineSet
EndChar

StartChar: r
Encoding: 114 114 81
Width: 500
Flags: W
LayerCount: 2
Fore
SplineSet
458 418 m 1,0,-1
 426.000976562 362.001953125 l 1,1,-1
 422.000976562 353.001953125 l 1,2,-1
 415.000976562 357.001953125 l 1,3,4
 412.000976562 368.001464844 412.000976562 368.001464844 408.000976562 374.500976562 c 128,-1,5
 404.000488281 381.000488281 404.000488281 381.000488281 391 389 c 0,6,7
 365.000488282 405.999511718 365.000488282 405.999511718 332 406 c 0,8,9
 296 406 296 406 264 388 c 128,-1,10
 232.000488282 370 232.000488282 370 212.000976562 333.5 c 128,-1,11
 192.001464844 297.000488282 192.001464844 297.000488282 192.000976562 242 c 2,12,-1
 192.000976562 -1 l 1,13,-1
 119.000976562 -1 l 1,14,-1
 119.000976562 457 l 1,15,-1
 194.000976562 457 l 1,16,-1
 192.000976562 373 l 1,17,18
 211.001464844 418 211.001464844 418 250.500976562 443 c 128,-1,19
 290.000488281 468.000488282 290.000488281 468.000488282 337 468 c 0,20,21
 410.000488282 468 410.000488282 468 458 418 c 1,0,-1
EndSplineSet
EndChar

StartChar: s
Encoding: 115 115 82
Width: 500
Flags: W
LayerCount: 2
Fore
SplineSet
57 62 m 1,0,-1
 96.998046875 130.000976562 l 1,1,-1
 102.998046875 139.000976562 l 1,2,-1
 108.998046875 135.000976562 l 2,3,4
 108.998046875 133.001464844 108.998046875 133.001464844 110.498046875 126.000976562 c 128,-1,5
 111.998046875 119.000488281 111.998046875 119.000488281 115.998046875 112 c 128,-1,6
 119.998535156 104.999511718 119.998535156 104.999511718 126.999023438 97.9990234375 c 0,7,8
 149.998535156 74.9995117188 149.998535156 74.9995117188 179.499023438 62.5 c 128,-1,9
 208.999511719 50.0004882812 208.999511719 50.0004882812 252.999023438 50 c 0,10,11
 306.999023438 50 306.999023438 50 337.999023438 69.5 c 128,-1,12
 368.999511719 89 368.999511719 89 368.999023438 123 c 0,13,14
 368.999023438 151.999511718 368.999023438 151.999511718 343.999023438 171 c 128,-1,15
 318.998535156 190.000488282 318.998535156 190.000488282 253.999023438 211 c 0,16,17
 81.998535156 260.000488282 81.998535156 260.000488282 81.9990234375 353 c 0,18,19
 81.9990234375 405.999511718 81.9990234375 405.999511718 125.499023438 437 c 128,-1,20
 168.999023438 468.000488282 168.999023438 468.000488282 249.999023438 468 c 0,21,22
 311.998535156 468 311.998535156 468 354.498046875 450.5 c 128,-1,23
 396.997558594 432.999511718 396.997558594 432.999511718 431.997070312 395.999023438 c 1,24,-1
 390.997070312 345.999023438 l 1,25,-1
 383.997070312 337.999023438 l 1,26,-1
 378.997070312 342.999023438 l 1,27,28
 377.996582031 353.998535156 377.996582031 353.998535156 374.497070312 360.999023438 c 128,-1,29
 370.997558594 367.999511719 370.997558594 367.999511719 359.998046875 376.999023438 c 0,30,31
 336.998535156 394.999023438 336.998535156 394.999023438 308.498046875 404.499023438 c 128,-1,32
 279.998046875 413.998535156 279.998046875 413.998535156 251.998046875 413.999023438 c 0,33,34
 208.997558594 413.999023438 208.997558594 413.999023438 181.498046875 398.999023438 c 128,-1,35
 153.998535156 383.999023438 153.998535156 383.999023438 153.998046875 356.999023438 c 0,36,37
 153.998046875 331.998535156 153.998046875 331.998535156 181.998046875 310.999023438 c 128,-1,38
 209.998535156 289.999023438 209.998535156 289.999023438 282.999023438 268.999023438 c 0,39,40
 368.998535156 242.999511719 368.998535156 242.999511719 404.499023438 212.5 c 128,-1,41
 439.999511719 182.000488282 439.999511719 182.000488282 439.999023438 133 c 0,42,43
 439.999023438 71.0004882812 439.999023438 71.0004882812 391.499023438 30.5 c 128,-1,44
 342.999511719 -10 342.999511719 -10 251 -10 c 0,45,46
 135.000488282 -10 135.000488282 -10 57 62 c 1,0,-1
EndSplineSet
EndChar

StartChar: t
Encoding: 116 116 83
Width: 500
Flags: W
HStem: -6.99805 59.998<255.662 385.799> 398.001 59<70.001 171.001 247.001 399.001>
VStem: 160.001 72<77.4807 341.637> 171.001 72<348.002 398.001 457.002 499.468>
DStem2: 171.001 398.002 234.001 243.001 0.060313 0.99818<-203.532 0>
LayerCount: 2
Fore
SplineSet
444 42 m 1,0,1
 378 -7.00048828125 378 -7.00048828125 299.000976562 -6.998046875 c 0,2,3
 223.000488281 -6.998046875 223.000488281 -6.998046875 191.500976562 39.001953125 c 128,-1,4
 160.000976562 85.0024414062 160.000976562 85.0024414062 160.000976562 189.001953125 c 0,5,6
 160.000976562 206.001464844 160.000976562 206.001464844 162.000976562 248.001953125 c 2,7,-1
 171.000976562 398.001953125 l 1,8,-1
 70.0009765625 398.001953125 l 1,9,-1
 70.0009765625 457.001953125 l 1,10,-1
 175.000976562 457.001953125 l 1,11,-1
 182.000976562 579.001953125 l 1,12,-1
 262.000976562 592.001953125 l 1,13,-1
 272.000976562 593.001953125 l 1,14,-1
 273.000976562 587.001953125 l 1,15,16
 266.000488281 577.001464844 266.000488281 577.001464844 262.500976562 570.000976562 c 128,-1,17
 259.001464844 563.000488281 259.001464844 563.000488281 258.000976562 548.000976562 c 2,18,-1
 247.000976562 457.000976562 l 1,19,-1
 399.000976562 457.000976562 l 1,20,-1
 399.000976562 398.000976562 l 1,21,-1
 243.000976562 398.000976562 l 1,22,-1
 234.000976562 243.000976562 l 2,23,24
 232.001464844 203.000488281 232.001464844 203.000488281 232.000976562 190 c 0,25,26
 232.000976562 110.000488282 232.000976562 110.000488282 250.500976562 81.5 c 128,-1,27
 269.000488281 53 269.000488281 53 310 53 c 0,28,29
 340 53 340 53 365 64 c 128,-1,30
 390.000488282 74.9995117188 390.000488282 74.9995117188 422 99 c 1,31,-1
 444 42 l 1,0,1
EndSplineSet
EndChar

StartChar: u
Encoding: 117 117 84
Width: 500
Flags: W
LayerCount: 2
Fore
SplineSet
106 42.5 m 128,-1,1
 62.9995117188 96.0004882812 62.9995117188 96.0004882812 63.9990234375 201.999023438 c 2,2,-1
 64.9990234375 456.999023438 l 1,3,-1
 134.999023438 456.999023438 l 1,4,-1
 134.999023438 201.999023438 l 2,5,6
 134.999023438 119.998535156 134.999023438 119.998535156 163.499023438 83.4990234375 c 128,-1,7
 191.999023438 46.9995117188 191.999023438 46.9995117188 238.999023438 46.9990234375 c 0,8,9
 290.999511719 46.9990234375 290.999511719 46.9990234375 326.5 87.4990234375 c 128,-1,10
 362.000488282 127.999023438 362.000488282 127.999023438 362 204.999023438 c 2,11,-1
 362 456.999023438 l 1,12,-1
 432 456.999023438 l 1,13,-1
 432 70.9990234375 l 2,14,15
 432 46.9990234375 432 46.9990234375 433.5 31.4990234375 c 128,-1,16
 435 15.9995117188 435 15.9995117188 442 -0.0009765625 c 1,17,-1
 373 -0.0009765625 l 1,18,19
 365.999511718 14.9990234375 365.999511718 14.9990234375 364.5 30.9990234375 c 128,-1,20
 363 46.9995117188 363 46.9995117188 363 69.9990234375 c 1,21,22
 340.999511718 31.9995117188 340.999511718 31.9995117188 303.5 10.5 c 128,-1,23
 266 -10.9995117188 266 -10.9995117188 221 -11 c 0,24,0
 149 -11 149 -11 106 42.5 c 128,-1,1
EndSplineSet
EndChar

StartChar: v
Encoding: 118 118 85
Width: 500
Flags: W
HStem: 0 21G<213.079 285.638> 437 20G<40 119.877 382.333 455>
VStem: 387 68<376.067 457>
LayerCount: 2
Fore
SplineSet
455 457 m 1,0,1
 438.999511718 376 438.999511718 376 388 257 c 2,2,-1
 277 0 l 1,3,-1
 221 0 l 1,4,-1
 191.691466083 74 l 1,5,-1
 191.295404814 75 l 1,6,-1
 40 457 l 1,7,-1
 112 457 l 1,8,-1
 221.097765363 180 l 1,9,-1
 253 99 l 1,10,-1
 327 268 l 2,11,12
 373.000488282 371.999511718 373.000488282 371.999511718 387 457 c 1,13,-1
 455 457 l 1,0,1
EndSplineSet
EndChar

StartChar: w
Encoding: 119 119 86
Width: 500
Flags: W
LayerCount: 2
Fore
SplineSet
16 457 m 1,0,-1
 78.9990234375 457.000976562 l 1,1,-1
 152.999023438 90.0009765625 l 1,2,-1
 230.999023438 414.000976562 l 1,3,-1
 274.999023438 414.000976562 l 1,4,-1
 371.999023438 91.0009765625 l 1,5,6
 399.999511719 278.001464844 399.999511719 278.001464844 407 336.500976562 c 128,-1,7
 414.000488282 395.000976562 414.000488282 395.000976562 414 442.000976562 c 2,8,-1
 414 457.000976562 l 1,9,-1
 481 457.000976562 l 1,10,11
 451 225.000488281 451 225.000488281 405 -1 c 1,12,-1
 337 -1 l 1,13,-1
 253 295 l 1,14,-1
 173 -1 l 1,15,-1
 108 -1 l 1,16,-1
 16 457 l 1,0,-1
EndSplineSet
EndChar

StartChar: x
Encoding: 120 120 87
Width: 500
Flags: W
LayerCount: 2
Fore
SplineSet
208 232 m 1,0,-1
 50 457 l 1,1,-1
 129 457 l 1,2,-1
 248 288 l 1,3,-1
 362 457 l 1,4,-1
 436 457 l 1,5,-1
 288 235 l 1,6,-1
 456 0 l 1,7,-1
 374 0 l 1,8,-1
 248 178 l 1,9,-1
 129 0 l 1,10,-1
 47 0 l 1,11,-1
 208 232 l 1,0,-1
EndSplineSet
EndChar

StartChar: y
Encoding: 121 121 88
Width: 500
Flags: W
LayerCount: 2
Fore
SplineSet
443 457 m 1,0,1
 437.000161301 416.001590489 437.000161301 416.001590489 424.5 375.999023438 c 128,-1,2
 412.000488282 335.998535156 412.000488282 335.998535156 389.000976562 269.999023438 c 2,3,-1
 275.000976562 -52.0009765625 l 2,4,5
 252.001464844 -116.001464844 252.001464844 -116.001464844 215.000976562 -145.000976562 c 128,-1,6
 178.000488281 -174.000488281 178.000488281 -174.000488281 127.000976562 -174.000976562 c 0,7,8
 63.0004882815 -174.000976562 63.0004882815 -174.000976562 22.0009765625 -135.000976562 c 1,9,-1
 53.0009765625 -86.0009765625 l 1,10,-1
 59.0009765625 -77.0009765625 l 1,11,-1
 65.0009765625 -81.0009765625 l 1,12,13
 67.0004882812 -91.0014648438 67.0004882812 -91.0014648438 72 -97.5009765625 c 128,-1,14
 76.9995117188 -104.000488281 76.9995117188 -104.000488281 90.9990234375 -109 c 0,15,16
 108.999023438 -115 108.999023438 -115 130.999023438 -115 c 0,17,18
 167.999511719 -115 167.999511719 -115 190 -89 c 128,-1,19
 212.000488282 -63.0004882812 212.000488282 -63.0004882812 233 -3 c 1,20,-1
 46 457 l 1,21,-1
 121 457 l 1,22,-1
 263 91 l 1,23,-1
 323 275 l 2,24,25
 345.000488282 344 345.000488282 344 355.5 380.5 c 128,-1,26
 366 416.999511718 366 416.999511718 371 457 c 1,27,-1
 443 457 l 1,0,1
EndSplineSet
EndChar

StartChar: z
Encoding: 122 122 89
Width: 500
Flags: W
LayerCount: 2
Fore
SplineSet
50 49 m 1,0,-1
 333 394 l 1,1,-1
 71 394 l 1,2,-1
 71 457 l 1,3,-1
 426 457 l 1,4,-1
 426 408 l 1,5,-1
 148 62 l 1,6,-1
 406 62 l 2,7,8
 422.000488282 62 422.000488282 62 429.5 64 c 128,-1,9
 437 65.9995117188 437 65.9995117188 443 72 c 1,10,-1
 450 72 l 1,11,-1
 450 0 l 1,12,-1
 50 0 l 1,13,-1
 50 49 l 1,0,-1
EndSplineSet
EndChar

StartChar: braceleft
Encoding: 123 123 90
Width: 500
Flags: W
LayerCount: 2
Fore
SplineSet
248 -144 m 128,-1,1
 201.000488282 -129 201.000488282 -129 178.502929688 -90.9990234375 c 128,-1,2
 156.002929688 -52.9995117188 156.002929688 -52.9995117188 159.002929688 16.0009765625 c 2,3,-1
 163.002929688 116.000976562 l 2,4,5
 163.002929688 179.000976562 163.002929688 179.000976562 141.002929688 203.500976562 c 128,-1,6
 119.002441406 228.000488281 119.002441406 228.000488281 73.001953125 228.000976562 c 2,7,-1
 53.001953125 228.000976562 l 1,8,-1
 53.001953125 284.000976562 l 1,9,-1
 72.001953125 284.000976562 l 2,10,11
 119.001464844 284.000976562 119.001464844 284.000976562 142.000976562 309.500976562 c 128,-1,12
 165.000488281 335.000976562 165.000488281 335.000976562 165.000976562 391.000976562 c 2,13,-1
 163.000976562 463.000976562 l 1,14,15
 163.000976562 637.000976562 163.000976562 637.000976562 345.000976562 637.000976562 c 2,16,-1
 408.000976562 637.000976562 l 1,17,-1
 408.000976562 580.000976562 l 1,18,-1
 326.000976562 580.000976562 l 2,19,20
 233.000976562 580.000976562 233.000976562 580.000976562 233.000976562 474.000976562 c 2,21,-1
 235.000976562 404.000976562 l 2,22,23
 235.000976562 294.001464844 235.000976562 294.001464844 148.000976562 256.001953125 c 1,24,25
 233.001464844 228.001464844 233.001464844 228.001464844 233.000976562 101.000976562 c 1,26,-1
 230.000976562 17.0009765625 l 2,27,28
 230.000976562 -49.9995117188 230.000976562 -49.9995117188 259.000976562 -76.5 c 128,-1,29
 288.000488281 -103.000488281 288.000488281 -103.000488281 356 -103 c 2,30,-1
 407 -103 l 1,31,-1
 407 -159 l 1,32,-1
 371 -159 l 2,33,0
 294.999511718 -159 294.999511718 -159 248 -144 c 128,-1,1
EndSplineSet
EndChar

StartChar: bar
Encoding: 124 124 91
Width: 500
Flags: W
LayerCount: 2
Fore
SplineSet
217 652 m 1,0,-1
 284 652 l 1,1,-1
 284 -151 l 1,2,-1
 217 -151 l 1,3,-1
 217 652 l 1,0,-1
EndSplineSet
EndChar

StartChar: braceright
Encoding: 125 125 92
Width: 500
Flags: W
LayerCount: 2
Fore
SplineSet
55 -159 m 1,0,-1
 55.0029296875 -103.000976562 l 1,1,-1
 106.002929688 -103.000976562 l 2,2,3
 174.002441406 -103.000976562 174.002441406 -103.000976562 203.001953125 -76.5009765625 c 128,-1,4
 232.001464844 -50.0004882812 232.001464844 -50.0004882812 232.001953125 17 c 2,5,-1
 229.001953125 101 l 1,6,7
 229.001953125 228.000488282 229.001953125 228.000488282 314.001953125 256.000976562 c 1,8,9
 227.001953125 294.000488281 227.001953125 294.000488281 227.001953125 404 c 2,10,-1
 229.001953125 474 l 2,11,12
 229.001953125 580.000488282 229.001953125 580.000488282 136.001953125 580 c 2,13,-1
 54.001953125 580 l 1,14,-1
 54.001953125 637 l 1,15,-1
 117.001953125 637 l 2,16,17
 299.001464844 637 299.001464844 637 299.001953125 463 c 1,18,-1
 297.001953125 391 l 2,19,20
 297.001953125 335.000488282 297.001953125 335.000488282 320.001953125 309.5 c 128,-1,21
 343.001464844 284 343.001464844 284 390.000976562 284 c 2,22,-1
 409.000976562 284 l 1,23,-1
 409.000976562 228 l 1,24,-1
 389.000976562 228 l 2,25,26
 343.000488281 228 343.000488281 228 321 203.5 c 128,-1,27
 298.999511718 179.000488282 298.999511718 179.000488282 299 116 c 2,28,-1
 303 16 l 2,29,30
 306 -53 306 -53 283.5 -91 c 128,-1,31
 261 -128.999511718 261 -128.999511718 214 -144 c 128,-1,32
 167.000488282 -159 167.000488282 -159 91 -159 c 2,33,-1
 55 -159 l 1,0,-1
EndSplineSet
EndChar

StartChar: asciitilde
Encoding: 126 126 93
Width: 500
Flags: W
LayerCount: 2
Fore
SplineSet
303.5 274 m 128,-1,1
 284 281.999511718 284 281.999511718 261 295.999023438 c 0,2,3
 238.999511718 307.999023438 238.999511718 307.999023438 225.5 313.999023438 c 128,-1,4
 212 319.999023438 212 319.999023438 196 319.999023438 c 0,5,6
 172 319.999023438 172 319.999023438 154 309.499023438 c 128,-1,7
 136 298.999023438 136 298.999023438 120 272.999023438 c 1,8,-1
 71 294.999023438 l 1,9,10
 87.9995117188 330.999023438 87.9995117188 330.999023438 119 352.999023438 c 128,-1,11
 150.000488282 374.999511719 150.000488282 374.999511719 194 374.999023438 c 0,12,13
 218 374.999023438 218 374.999023438 235.5 367.499023438 c 128,-1,14
 253.000488282 359.999023438 253.000488282 359.999023438 277 345.999023438 c 0,15,16
 296.999511718 332.998535156 296.999511718 332.998535156 312 326.999023438 c 128,-1,17
 327 320.999023438 327 320.999023438 344 320.999023438 c 0,18,19
 366.000488282 320.999023438 366.000488282 320.999023438 380.500976562 330.999023438 c 128,-1,20
 395.001464844 340.999511719 395.001464844 340.999511719 415.000976562 369 c 1,21,-1
 461.000976562 341 l 1,22,23
 435.001464844 299 435.001464844 299 410.000976562 282.5 c 128,-1,24
 385.000488281 266 385.000488281 266 348 266 c 0,25,0
 322.999511718 266 322.999511718 266 303.5 274 c 128,-1,1
EndSplineSet
EndChar

StartChar: exclamdown
Encoding: 161 161 95
Width: 500
Flags: W
LayerCount: 2
Fore
SplineSet
281 580.5 m 128,-1,1
 299 562.999511718 299 562.999511718 299 540 c 0,2,3
 299 516 299 516 281 498 c 128,-1,4
 263 480 263 480 239 480 c 128,-1,5
 215 480 215 480 197.5 498 c 128,-1,6
 179.999511718 516 179.999511718 516 180 540 c 128,-1,7
 180 564 180 564 197.5 581 c 128,-1,8
 215.000488282 597.999511718 215.000488282 597.999511718 239 598 c 128,-1,0
 263 598 263 598 281 580.5 c 128,-1,1
265 393 m 1,9,-1
 292 3 l 1,10,11
 292 -81 292 -81 241 -81 c 0,12,13
 217 -81 217 -81 203.5 -61.5 c 128,-1,14
 190 -42 190 -42 190 -7 c 2,15,-1
 215 393 l 1,16,-1
 265 393 l 1,9,-1
EndSplineSet
EndChar

StartChar: cent
Encoding: 162 162 96
Width: 500
Flags: W
LayerCount: 2
Fore
SplineSet
408 153 m 1,0,-1
 449.999023438 104.000976562 l 1,1,2
 382.998535156 32.0009765627 382.998535156 32.0009765627 284.999023438 32.0009765625 c 0,3,4
 267.999511719 32.0009765625 267.999511719 32.0009765625 260 33.0009765625 c 1,5,-1
 246 -72.9990234375 l 1,6,-1
 194 -72.9990234375 l 1,7,-1
 210 44.0009765625 l 1,8,9
 139.999511718 67.0004882812 139.999511718 67.0004882812 98 128.000976562 c 128,-1,10
 56 189.001464844 56 189.001464844 56 271.001953125 c 0,11,12
 56 337.001953125 56 337.001953125 84 390.001953125 c 128,-1,13
 112.000488282 443.001464844 112.000488282 443.001464844 161.5 475.000976562 c 128,-1,14
 211 507.000488281 211 507.000488281 273 509 c 1,15,-1
 289 623 l 1,16,-1
 338 623 l 1,17,-1
 323 506 l 1,18,19
 365 498.999511718 365 498.999511718 400 478 c 128,-1,20
 434.999511718 457 434.999511718 457 457 424 c 1,21,-1
 412 380 l 1,22,-1
 405 373 l 1,23,-1
 400 378 l 1,24,25
 400 387 400 387 396.5 394.5 c 128,-1,26
 393.000488282 402 393.000488282 402 381 412 c 0,27,28
 352.999511718 437.999511718 352.999511718 437.999511718 314 445 c 1,29,-1
 269 98 l 1,30,31
 275 96.9995117188 275 96.9995117188 289 97 c 0,32,33
 358 97 358 97 408 153 c 1,0,-1
153.999023438 177.000976562 m 128,-1,35
 177.999023438 134.000488281 177.999023438 134.000488281 218.999023438 113.001953125 c 1,36,-1
 264.999023438 448.001953125 l 1,37,38
 228.999023438 445.001953125 228.999023438 445.001953125 197.999023438 423.001953125 c 128,-1,39
 166.998535156 401.001464844 166.998535156 401.001464844 148.499023438 362.500976562 c 128,-1,40
 129.999511719 324.000488281 129.999511719 324.000488281 129.999023438 276.000976562 c 0,41,34
 129.999023438 220.001464844 129.999023438 220.001464844 153.999023438 177.000976562 c 128,-1,35
EndSplineSet
EndChar

StartChar: sterling
Encoding: 163 163 97
Width: 500
Flags: W
LayerCount: 2
Fore
SplineSet
39 49 m 1,0,1
 100.999511719 79 100.999511719 79 124.498046875 115.501953125 c 128,-1,2
 147.998535156 152.001464844 147.998535156 152.001464844 147.998046875 222.001953125 c 0,3,4
 147.998046875 260.001464844 147.998046875 260.001464844 132.998046875 321.001953125 c 1,5,-1
 66.998046875 321.001953125 l 1,6,-1
 66.998046875 378.001953125 l 1,7,-1
 118.998046875 378.001953125 l 1,8,9
 111.997558594 410.001464844 111.997558594 410.001464844 111.998046875 442.000976562 c 0,10,11
 111.998046875 495.000488281 111.998046875 495.000488281 135.498046875 536.500976562 c 128,-1,12
 158.998535156 578.001464844 158.998535156 578.001464844 199.498046875 600.500976562 c 128,-1,13
 239.998046875 623.000976562 239.998046875 623.000976562 287.998046875 623.000976562 c 0,14,15
 362.998046875 623.000976562 362.998046875 623.000976562 417.998046875 572.000976562 c 1,16,-1
 373.998046875 517.000976562 l 1,17,18
 352.998046875 542.001464844 352.998046875 542.001464844 331.998046875 554.000976562 c 128,-1,19
 310.998046875 566.000976562 310.998046875 566.000976562 269.998046875 566.000976562 c 128,-1,20
 228.998535156 566.000976562 228.998535156 566.000976562 203.998046875 533.000976562 c 128,-1,21
 178.997558594 500.000976562 178.997558594 500.000976562 178.998046875 443.000976562 c 0,22,23
 178.998046875 421.000488281 178.998046875 421.000488281 186.998046875 378 c 1,24,-1
 316.998046875 378 l 1,25,-1
 316.998046875 321 l 1,26,-1
 200.998046875 321 l 1,27,28
 213.998535156 268.000488282 213.998535156 268.000488282 213.998046875 224.000976562 c 0,29,30
 213.998046875 149.000976562 213.998046875 149.000976562 177.998046875 90.0009765625 c 1,31,32
 183.998046875 91.0014648438 183.998046875 91.0014648438 194.998046875 91.0009765625 c 0,33,34
 217.997558594 91.0009765625 217.997558594 91.0009765625 240.498046875 85.5009765625 c 128,-1,35
 262.998046875 80.0004882812 262.998046875 80.0004882812 292.998046875 69.0009765625 c 0,36,37
 322.998046875 59.0004882812 322.998046875 59.0004882812 339.498046875 55 c 128,-1,38
 355.998046875 50.9995117188 355.998046875 50.9995117188 372.998046875 51 c 0,39,40
 409.998535156 51 409.998535156 51 443.999023438 79 c 1,41,-1
 469.999023438 27 l 1,42,43
 417.998535156 -15 417.998535156 -15 365.998046875 -15 c 0,44,45
 348.998535156 -15 348.998535156 -15 289.999023438 4 c 0,46,47
 247.999023438 17.0004882812 247.999023438 17.0004882812 223.999023438 23.5 c 128,-1,48
 199.999023438 29.9995117188 199.999023438 29.9995117188 179.999023438 30 c 0,49,50
 135.999511719 30 135.999511719 30 65 -8 c 1,51,-1
 39 49 l 1,0,1
EndSplineSet
EndChar

StartChar: currency
Encoding: 164 164 98
Width: 500
Flags: W
LayerCount: 2
Fore
SplineSet
68 199 m 1,0,-1
 124.000976562 255.998046875 l 1,1,2
 96.0004882815 295.998535156 96.0004882815 295.998535156 96.0009765625 344.999023438 c 0,3,4
 96.0009765625 395.999023438 96.0009765625 395.999023438 125.000976562 434.999023438 c 1,5,-1
 68.0009765625 491.999023438 l 1,6,-1
 104.000976562 526.999023438 l 1,7,-1
 160.000976562 470.999023438 l 1,8,9
 201.000488281 499.998535156 201.000488281 499.998535156 251 499.999023438 c 0,10,11
 299 499.999023438 299 499.999023438 340 471.999023438 c 1,12,-1
 396 526.999023438 l 1,13,-1
 432 491.999023438 l 1,14,-1
 376 436.999023438 l 1,15,16
 406 394.999023438 406 394.999023438 406 344.999023438 c 128,-1,17
 406 294.999511719 406 294.999511719 377 254 c 1,18,-1
 432 199 l 1,19,-1
 396 164 l 1,20,-1
 341 219 l 1,21,22
 302 190.000488282 302 190.000488282 251 190 c 0,23,24
 201.000488282 190 201.000488282 190 159 220 c 1,25,-1
 104 164 l 1,26,-1
 68 199 l 1,0,-1
324.000976562 273.998046875 m 128,-1,28
 351.000976562 302.997558594 351.000976562 302.997558594 351.000976562 344.998046875 c 0,29,30
 351.000976562 387.998535156 351.000976562 387.998535156 324.000976562 416.998046875 c 128,-1,31
 297.000976562 445.997558594 297.000976562 445.997558594 250.000976562 445.998046875 c 0,32,33
 204.000488281 445.998046875 204.000488281 445.998046875 177.000976562 416.998046875 c 128,-1,34
 150.000976562 387.998535156 150.000976562 387.998535156 150.000976562 344.998046875 c 0,35,36
 150.000976562 302.998046875 150.000976562 302.998046875 177.000976562 273.998046875 c 128,-1,37
 204.000976562 244.998535156 204.000976562 244.998535156 250.000976562 244.998046875 c 0,38,27
 297.000488281 244.998046875 297.000488281 244.998046875 324.000976562 273.998046875 c 128,-1,28
EndSplineSet
EndChar

StartChar: yen
Encoding: 165 165 99
Width: 500
Flags: W
LayerCount: 2
Fore
SplineSet
292 274 m 1,0,-1
 426 274 l 1,1,-1
 426 217 l 1,2,-1
 292 217 l 1,3,-1
 292 154 l 1,4,-1
 426 154 l 1,5,-1
 426 98 l 1,6,-1
 292 98 l 1,7,-1
 292 0 l 1,8,-1
 224 0 l 1,9,-1
 224 98 l 1,10,-1
 84 98 l 1,11,-1
 84 154 l 1,12,-1
 224 154 l 1,13,-1
 224 217 l 1,14,-1
 84 217 l 1,15,-1
 84 274 l 1,16,-1
 224 274 l 1,17,-1
 224 295 l 1,18,-1
 36 624 l 1,19,-1
 114 624 l 1,20,-1
 259 363 l 1,21,-1
 392 623 l 1,22,-1
 466 623 l 1,23,-1
 292 295 l 1,24,-1
 292 274 l 1,0,-1
EndSplineSet
EndChar

StartChar: brokenbar
Encoding: 166 166 100
Width: 500
Flags: W
LayerCount: 2
Fore
SplineSet
217 652 m 1,0,-1
 284 652 l 1,1,-1
 284 295 l 1,2,-1
 217 295 l 1,3,-1
 217 652 l 1,0,-1
217 196 m 1,4,-1
 284 196 l 1,5,-1
 284 -151 l 1,6,-1
 217 -151 l 1,7,-1
 217 196 l 1,4,-1
EndSplineSet
EndChar

StartChar: section
Encoding: 167 167 101
Width: 500
Flags: W
LayerCount: 2
Fore
SplineSet
140.5 -32 m 128,-1,1
 95.000488282 -9.99951171875 95.000488282 -9.99951171875 64.9990234375 30.9990234375 c 1,2,-1
 116.999023438 91.9990234375 l 1,3,4
 123.999511719 89.9995117188 123.999511719 89.9995117188 125.499023438 82.4990234375 c 128,-1,5
 126.999023438 74.9990234375 126.999023438 74.9990234375 131.999023438 65.9990234375 c 128,-1,6
 136.998535156 56.9990234375 136.998535156 56.9990234375 153.998046875 40.9990234375 c 0,7,8
 185.997558594 11.9995117188 185.997558594 11.9995117188 233.998046875 11.9990234375 c 0,9,10
 280.997558594 11.9990234375 280.997558594 11.9990234375 308.998046875 34.4990234375 c 128,-1,11
 336.998535156 56.9990234375 336.998535156 56.9990234375 336.998046875 90.9990234375 c 0,12,13
 336.998046875 125.998535156 336.998046875 125.998535156 312.498046875 146.999023438 c 128,-1,14
 287.998535156 167.999023438 287.998535156 167.999023438 219.999023438 187.999023438 c 0,15,16
 142.999511719 212.999511719 142.999511719 212.999511719 111 241.999023438 c 128,-1,17
 79.0004882812 270.998535156 79.0004882812 270.998535156 79 315.999023438 c 0,18,19
 79 348.999023438 79 348.999023438 101.5 376.499023438 c 128,-1,20
 124 403.998535156 124 403.998535156 161 416.999023438 c 1,21,22
 93.999511718 456.999511719 93.999511718 456.999511719 94 530 c 0,23,24
 94 567.999511718 94 567.999511718 115.5 600.5 c 128,-1,25
 136.999511718 633.000488282 136.999511718 633.000488282 174.5 652.5 c 128,-1,26
 212 672 212 672 257 672 c 0,27,28
 306.000488282 672 306.000488282 672 347.500976562 648.5 c 128,-1,29
 389.001464844 624.999511718 389.001464844 624.999511718 413.000976562 583 c 1,30,-1
 356.000976562 533 l 1,31,32
 352.000488281 537.000488282 352.000488281 537.000488282 350.000976562 544.000976562 c 0,33,34
 346.000488281 571.000976562 346.000488281 571.000976562 319.000976562 592.000976562 c 128,-1,35
 292.000976562 613.000976562 292.000976562 613.000976562 256.000976562 613.000976562 c 0,36,37
 219.000488281 613.000976562 219.000488281 613.000976562 193.000976562 590.500976562 c 128,-1,38
 167.001464844 568.000976562 167.001464844 568.000976562 167.000976562 536.000976562 c 0,39,40
 167.000976562 509.000976562 167.000976562 509.000976562 180.500976562 492.000976562 c 128,-1,41
 194.000976562 475.001464844 194.000976562 475.001464844 220.000976562 462.000976562 c 128,-1,42
 246.000488281 449.000488281 246.000488281 449.000488281 302 428.000976562 c 2,43,-1
 326 419.000976562 l 1,44,45
 417.999511718 375.001464844 417.999511718 375.001464844 418 305.000976562 c 0,46,47
 418 275.000976562 418 275.000976562 397.5 248.500976562 c 128,-1,48
 376.999511718 222.000488281 376.999511718 222.000488281 344 209 c 1,49,50
 408.000488282 165.999511718 408.000488282 165.999511718 408 98 c 0,51,52
 408 54.9995117188 408 54.9995117188 386 20 c 128,-1,53
 363.999511718 -14.9995117188 363.999511718 -14.9995117188 325 -34.5 c 128,-1,54
 286 -54 286 -54 238 -54 c 0,55,0
 185.999511718 -54 185.999511718 -54 140.5 -32 c 128,-1,1
342.999023438 291.999023438 m 0,56,57
 342.999023438 323.998535156 342.999023438 323.998535156 319.498046875 344.498046875 c 128,-1,58
 295.997558594 364.998535156 295.997558594 364.998535156 239.998046875 383.999023438 c 2,59,-1
 196.998046875 398.999023438 l 1,60,61
 176.998535156 391.998535156 176.998535156 391.998535156 164.499023438 374.999023438 c 128,-1,62
 151.999511719 357.999511719 151.999511719 357.999511719 151.999023438 335.999023438 c 0,63,64
 151.999023438 302.999023438 151.999023438 302.999023438 176.499023438 281.499023438 c 128,-1,65
 200.998535156 259.999511719 200.998535156 259.999511719 255.999023438 243.999023438 c 2,66,-1
 275.999023438 237.999023438 l 2,67,68
 302.999023438 229.999511719 302.999023438 229.999511719 306.999023438 228 c 0,69,70
 342.999023438 247.999511718 342.999023438 247.999511718 342.999023438 291.999023438 c 0,56,57
EndSplineSet
EndChar

StartChar: dieresis
Encoding: 168 168 102
Width: 500
Flags: W
LayerCount: 2
Fore
SplineSet
127 579 m 128,-1,1
 112 594 112 594 112 614.000976562 c 128,-1,2
 112 634.000488281 112 634.000488281 127 649.5 c 128,-1,3
 142 664.999511718 142 664.999511718 163 665 c 0,4,5
 182.999511718 665 182.999511718 665 198 650 c 128,-1,6
 213 635 213 635 213 614 c 0,7,8
 213 594.000488282 213 594.000488282 198 579 c 128,-1,9
 183 564 183 564 163 564 c 0,10,0
 142 564 142 564 127 579 c 128,-1,1
305.5 578.500976562 m 128,-1,12
 290.999511718 593.001464844 290.999511718 593.001464844 291 614.000976562 c 128,-1,13
 291 635.000976562 291 635.000976562 305.5 650.000976562 c 128,-1,14
 320.000488282 665.000976562 320.000488282 665.000976562 341 665.000976562 c 0,15,16
 360.999511718 665.000976562 360.999511718 665.000976562 376 650.000976562 c 128,-1,17
 391 635.000976562 391 635.000976562 391 614.000976562 c 0,18,19
 391 594.001464844 391 594.001464844 376 579.000976562 c 128,-1,20
 361 564.000976562 361 564.000976562 341 564.000976562 c 0,21,11
 320 564.000976562 320 564.000976562 305.5 578.500976562 c 128,-1,12
EndSplineSet
EndChar

StartChar: copyright
Encoding: 169 169 103
Width: 500
Flags: W
LayerCount: 2
Fore
SplineSet
134.5 53.5 m 128,-1,1
 79 88 79 88 46.5009765625 146.5 c 128,-1,2
 14.0004882812 205 14.0004882812 205 14.0009765625 274 c 128,-1,3
 14.0009765625 343 14.0009765625 343 46.5009765625 402 c 128,-1,4
 79.0014648438 460.999511718 79.0014648438 460.999511718 135.000976562 495.5 c 128,-1,5
 191.000488281 530 191.000488281 530 256 530 c 128,-1,6
 320.999511718 530 320.999511718 530 376.5 495.5 c 128,-1,7
 432 461 432 461 465 402 c 128,-1,8
 498 343.000488282 498 343.000488282 498 274 c 0,9,10
 498 167.999511718 498 167.999511718 426 93 c 0,11,12
 355.000488282 19.0004882812 355.000488282 19.0004882812 255 19 c 0,13,0
 190.000488282 19 190.000488282 19 134.5 53.5 c 128,-1,1
355.500976562 91 m 128,-1,15
 401.000488281 119.999511718 401.000488281 119.999511718 428.001953125 169 c 128,-1,16
 455.001953125 218.000488282 455.001953125 218.000488282 455.001953125 275 c 128,-1,17
 455.001953125 332 455.001953125 332 428.501953125 381 c 128,-1,18
 402.001464844 430.000488282 402.001464844 430.000488282 356.501953125 459 c 128,-1,19
 311.002441406 487.999511718 311.002441406 487.999511718 257.001953125 488 c 128,-1,20
 203.001953125 488 203.001953125 488 157.501953125 459.5 c 128,-1,21
 112.002441406 431 112.002441406 431 85.501953125 382 c 128,-1,22
 59.0014648438 332.999511718 59.0014648438 332.999511718 59.001953125 274 c 0,23,24
 59.001953125 215.999511718 59.001953125 215.999511718 85.501953125 167.5 c 128,-1,25
 112.002441406 119.000488282 112.002441406 119.000488282 157.501953125 90.5 c 128,-1,26
 203.001464844 62 203.001464844 62 257.001953125 62 c 0,27,14
 310.001464844 62 310.001464844 62 355.500976562 91 c 128,-1,15
187.501953125 143 m 128,-1,29
 154.002441406 164 154.002441406 164 134.502929688 199.501953125 c 128,-1,30
 115.002929688 235.002441406 115.002929688 235.002441406 115.002929688 276.001953125 c 128,-1,31
 115.002929688 317.001464844 115.002929688 317.001464844 135.002929688 351.001953125 c 128,-1,32
 155.002441406 385.002441406 155.002441406 385.002441406 187.502929688 404.501953125 c 128,-1,33
 220.003417969 424.001953125 220.003417969 424.001953125 254.00390625 424.001953125 c 0,34,35
 307.003417968 424.001953125 307.003417968 424.001953125 342.002929688 399.001953125 c 128,-1,36
 377.002441406 374.001464844 377.002441406 374.001464844 387.002929688 331.000976562 c 1,37,-1
 335.002929688 312.000976562 l 1,38,39
 331.002441406 318.000976562 331.002441406 318.000976562 330.502929688 327.000976562 c 128,-1,40
 330.003417969 336.000976562 330.003417969 336.000976562 325.502929688 343.500976562 c 128,-1,41
 321.002929688 351.000976562 321.002929688 351.000976562 302.002929688 364.000976562 c 0,42,43
 286.002441406 374.001464844 286.002441406 374.001464844 262.002929688 374.000976562 c 0,44,45
 229.002929688 374.000976562 229.002929688 374.000976562 200.002929688 350.500976562 c 128,-1,46
 171.003417969 327.000488281 171.003417969 327.000488281 171.002929688 281 c 0,47,48
 171.002929688 237.000488282 171.002929688 237.000488282 198.502929688 205.5 c 128,-1,49
 226.002441406 174 226.002441406 174 265.002929688 174 c 0,50,51
 289.002929688 174 289.002929688 174 309.002929688 186 c 128,-1,52
 329.002441406 198 329.002441406 198 340.001953125 219 c 1,53,-1
 384.001953125 190 l 1,54,55
 363.001953125 158.000488282 363.001953125 158.000488282 330.001953125 140 c 128,-1,56
 297.001953125 122 297.001953125 122 261.001953125 122 c 0,57,28
 221.001464844 122 221.001464844 122 187.501953125 143 c 128,-1,29
EndSplineSet
EndChar

StartChar: ordfeminine
Encoding: 170 170 104
Width: 500
Flags: W
LayerCount: 2
Fore
SplineSet
136 287.5 m 128,-1,1
 101.999511718 317.999511718 101.999511718 317.999511718 101.998046875 362 c 0,2,3
 101.998046875 477.999511718 101.998046875 477.999511718 275.998046875 478 c 0,4,5
 290.998046875 478 290.998046875 478 324.998046875 476 c 1,6,7
 324.998046875 525.000488282 324.998046875 525.000488282 307.998046875 547.000976562 c 128,-1,8
 290.998535156 569.001464844 290.998535156 569.001464844 250.998046875 569.000976562 c 0,9,10
 188.998535156 569.000976562 188.998535156 569.000976562 156.999023438 525.000976562 c 1,11,-1
 122.999023438 566.000976562 l 1,12,13
 172.998535156 622.000488281 172.998535156 622.000488281 256.999023438 622.000976562 c 0,14,15
 326.999511719 620.001464844 326.999511719 620.001464844 358 586.000976562 c 128,-1,16
 389.000488282 552.000488281 389.000488282 552.000488281 389 485 c 2,17,-1
 389 267 l 1,18,-1
 326 267 l 1,19,-1
 326 300 l 1,20,21
 279.999511718 256.999511718 279.999511718 256.999511718 224 257 c 0,22,0
 170 257 170 257 136 287.5 c 128,-1,1
302.498046875 340.000976562 m 128,-1,24
 327.998046875 369.000488281 327.998046875 369.000488281 327.998046875 424 c 1,25,26
 309.998046875 425.999511718 309.998046875 425.999511718 277.998046875 426 c 0,27,28
 220.998046875 426 220.998046875 426 193.498046875 410.5 c 128,-1,29
 165.998535156 395.000488282 165.998535156 395.000488282 165.998046875 363.000976562 c 0,30,31
 165.998046875 342.000976562 165.998046875 342.000976562 183.498046875 326.500976562 c 128,-1,32
 200.998535156 311.001464844 200.998535156 311.001464844 230.998046875 311.000976562 c 0,33,23
 276.998535156 311.000976562 276.998535156 311.000976562 302.498046875 340.000976562 c 128,-1,24
75.998046875 206 m 1,34,-1
 424.998046875 206 l 1,35,-1
 424.998046875 152 l 1,36,-1
 75.998046875 152 l 1,37,-1
 75.998046875 206 l 1,34,-1
EndSplineSet
EndChar

StartChar: guillemotleft
Encoding: 171 171 105
Width: 500
Flags: W
LayerCount: 2
Fore
SplineSet
67 230 m 1,0,-1
 67 253 l 1,1,-1
 219 400 l 1,2,-1
 258 359 l 1,3,-1
 137 241 l 1,4,-1
 265 101 l 1,5,-1
 225 61 l 1,6,-1
 67 230 l 1,0,-1
249 230 m 1,7,-1
 249 253 l 1,8,-1
 400 400 l 1,9,-1
 439 359 l 1,10,-1
 318 241 l 1,11,-1
 446 101 l 1,12,-1
 406 61 l 1,13,-1
 249 230 l 1,7,-1
EndSplineSet
EndChar

StartChar: logicalnot
Encoding: 172 172 106
Width: 500
Flags: W
LayerCount: 2
Fore
SplineSet
350 284 m 1,0,-1
 91 284 l 1,1,-1
 91 347 l 1,2,-1
 414 347 l 1,3,-1
 414 157 l 1,4,-1
 350 157 l 1,5,-1
 350 284 l 1,0,-1
EndSplineSet
EndChar

StartChar: uni00AD
Encoding: 173 173 107
Width: 500
Flags: W
LayerCount: 2
Fore
SplineSet
71 348 m 1,0,-1
 431 348 l 1,1,-1
 431 281 l 1,2,-1
 71 281 l 1,3,-1
 71 348 l 1,0,-1
EndSplineSet
EndChar

StartChar: registered
Encoding: 174 174 108
Width: 500
Flags: W
LayerCount: 2
Fore
SplineSet
134.5 53.5 m 128,-1,1
 79 88 79 88 46.5009765625 146.5 c 128,-1,2
 14.0004882812 205 14.0004882812 205 14.0009765625 274 c 128,-1,3
 14.0009765625 343 14.0009765625 343 46.5009765625 402 c 128,-1,4
 79.0014648438 460.999511718 79.0014648438 460.999511718 135.000976562 495.5 c 128,-1,5
 191.000488281 530 191.000488281 530 256 530 c 128,-1,6
 320.999511718 530 320.999511718 530 376.5 495.5 c 128,-1,7
 432 461 432 461 465 402 c 128,-1,8
 498 343.000488282 498 343.000488282 498 274 c 0,9,10
 498 167.999511718 498 167.999511718 426 93 c 0,11,12
 355.000488282 19.0004882812 355.000488282 19.0004882812 255 19 c 0,13,0
 190.000488282 19 190.000488282 19 134.5 53.5 c 128,-1,1
355.500976562 91 m 128,-1,15
 401.000488281 119.999511718 401.000488281 119.999511718 428.001953125 169 c 128,-1,16
 455.001953125 218.000488282 455.001953125 218.000488282 455.001953125 275 c 128,-1,17
 455.001953125 332 455.001953125 332 428.501953125 381 c 128,-1,18
 402.001464844 430.000488282 402.001464844 430.000488282 356.501953125 459 c 128,-1,19
 311.002441406 487.999511718 311.002441406 487.999511718 257.001953125 488 c 128,-1,20
 203.001953125 488 203.001953125 488 157.501953125 459.5 c 128,-1,21
 112.002441406 431 112.002441406 431 85.501953125 382 c 128,-1,22
 59.0014648438 332.999511718 59.0014648438 332.999511718 59.001953125 274 c 0,23,24
 59.001953125 215.999511718 59.001953125 215.999511718 85.501953125 167.5 c 128,-1,25
 112.002441406 119.000488282 112.002441406 119.000488282 157.501953125 90.5 c 128,-1,26
 203.001464844 62 203.001464844 62 257.001953125 62 c 0,27,14
 310.001464844 62 310.001464844 62 355.500976562 91 c 128,-1,15
267.001953125 256 m 1,28,-1
 201.002929688 255.998046875 l 1,29,-1
 201.002929688 132.998046875 l 1,30,-1
 155.002929688 132.998046875 l 1,31,-1
 155.002929688 424.998046875 l 1,32,-1
 249.002929688 424.998046875 l 2,33,34
 311.002441406 424.998046875 311.002441406 424.998046875 340.001953125 401.998046875 c 128,-1,35
 369.001464844 378.998535156 369.001464844 378.998535156 369.001953125 339.998046875 c 0,36,37
 369.001953125 313.998535156 369.001953125 313.998535156 354.001953125 292.499023438 c 128,-1,38
 339.001953125 270.999511719 339.001953125 270.999511719 312.001953125 263 c 1,39,-1
 376.001953125 138 l 1,40,-1
 329.001953125 131 l 1,41,-1
 267.001953125 256 l 1,28,-1
253.002929688 295.998046875 m 2,42,43
 324.002441406 295.998046875 324.002441406 295.998046875 324.002929688 339.998046875 c 128,-1,44
 324.002929688 383.997558594 324.002929688 383.997558594 250.002929688 383.998046875 c 2,45,-1
 201.002929688 383.998046875 l 1,46,-1
 201.002929688 295.998046875 l 1,47,-1
 253.002929688 295.998046875 l 2,42,43
EndSplineSet
EndChar

StartChar: macron
Encoding: 175 175 109
Width: 500
Flags: W
LayerCount: 2
Fore
SplineSet
123 621 m 1,0,-1
 377 621 l 1,1,-1
 377 565 l 1,2,-1
 123 565 l 1,3,-1
 123 621 l 1,0,-1
EndSplineSet
EndChar

StartChar: degree
Encoding: 176 176 110
Width: 500
Flags: W
LayerCount: 2
Fore
SplineSet
188 388 m 128,-1,1
 156.999511718 406 156.999511718 406 139.001953125 436.498046875 c 128,-1,2
 121.001953125 466.997558594 121.001953125 466.997558594 121.001953125 503.998046875 c 128,-1,3
 121.001953125 540.998535156 121.001953125 540.998535156 139.501953125 571.999023438 c 128,-1,4
 158.001464844 602.999511719 158.001464844 602.999511719 189.001953125 620.999023438 c 128,-1,5
 220.002441406 638.999023438 220.002441406 638.999023438 256.001953125 638.999023438 c 128,-1,6
 292.001953125 638.999023438 292.001953125 638.999023438 323.001953125 620.499023438 c 128,-1,7
 354.002441406 601.999511719 354.002441406 601.999511719 372.501953125 570.999023438 c 128,-1,8
 391.001464844 539.998535156 391.001464844 539.998535156 391.001953125 503.999023438 c 128,-1,9
 391.001953125 467.999023438 391.001953125 467.999023438 373.001953125 437.499023438 c 128,-1,10
 355.001953125 406.999511719 355.001953125 406.999511719 324.001953125 388.5 c 128,-1,11
 293.001464844 370.000488282 293.001464844 370.000488282 256.000976562 370 c 128,-1,0
 219.000488281 370 219.000488281 370 188 388 c 128,-1,1
309.501953125 448.498046875 m 128,-1,13
 331.001464844 471.998535156 331.001464844 471.998535156 331.00390625 504.998046875 c 0,14,15
 331.00390625 536.997558594 331.00390625 536.997558594 309.50390625 561.497070312 c 128,-1,16
 288.004394532 585.996582031 288.004394532 585.996582031 257.00390625 585.997070312 c 128,-1,17
 226.003417968 585.997070312 226.003417968 585.997070312 204.002929688 561.497070312 c 128,-1,18
 182.002441406 536.997558594 182.002441406 536.997558594 182.002929688 504.998046875 c 128,-1,19
 182.002929688 472.998535156 182.002929688 472.998535156 203.502929688 448.998046875 c 128,-1,20
 225.002441406 424.998046875 225.002441406 424.998046875 256.002929688 424.998046875 c 0,21,12
 288.002441406 424.998046875 288.002441406 424.998046875 309.501953125 448.498046875 c 128,-1,13
EndSplineSet
EndChar

StartChar: plusminus
Encoding: 177 177 111
Width: 500
Flags: W
LayerCount: 2
Fore
SplineSet
222 343 m 1,0,-1
 45 343 l 1,1,-1
 45 404 l 1,2,-1
 222 404 l 1,3,-1
 222 575 l 1,4,-1
 285 575 l 1,5,-1
 285 404 l 1,6,-1
 456 404 l 1,7,-1
 456 343 l 1,8,-1
 285 343 l 1,9,-1
 285 155 l 1,10,-1
 222 155 l 1,11,-1
 222 343 l 1,0,-1
46 80 m 1,12,-1
 457 80 l 1,13,-1
 457 17 l 1,14,-1
 46 17 l 1,15,-1
 46 80 l 1,12,-1
EndSplineSet
EndChar

StartChar: uni00B2
Encoding: 178 178 112
Width: 500
Flags: W
LayerCount: 2
Fore
SplineSet
400 317 m 1,0,-1
 400.000976562 253.000976562 l 1,1,-1
 121.000976562 253.000976562 l 1,2,-1
 121.000976562 307.000976562 l 1,3,4
 200.001464844 372.000488281 200.001464844 372.000488281 241.000976562 409.500976562 c 128,-1,5
 282.000488281 447.000976562 282.000488281 447.000976562 302 474.500976562 c 128,-1,6
 321.999511718 502.000488281 321.999511718 502.000488281 322 525 c 0,7,8
 322 553.000488282 322 553.000488282 307 567.500976562 c 128,-1,9
 292 582.001464844 292 582.001464844 266 582.000976562 c 0,10,11
 215 582.000976562 215 582.000976562 181 549.000976562 c 0,12,13
 170.000488282 539.000488281 170.000488282 539.000488281 168.000976562 532 c 128,-1,14
 166.001464844 524.999511718 166.001464844 524.999511718 167.001953125 514 c 1,15,-1
 163.001953125 508 l 1,16,-1
 155.001953125 514 l 1,17,-1
 111.001953125 554 l 1,18,19
 135.001953125 594.000488282 135.001953125 594.000488282 175.501953125 617 c 128,-1,20
 216.001953125 639.999511718 216.001953125 639.999511718 267.001953125 640 c 0,21,22
 325.002441406 640 325.002441406 640 356.501953125 608 c 128,-1,23
 388.001953125 576.000488282 388.001953125 576.000488282 388.001953125 525 c 0,24,25
 388.001953125 493.000488282 388.001953125 493.000488282 369.501953125 464.5 c 128,-1,26
 351.002441406 436 351.002441406 436 323.001953125 411 c 128,-1,27
 295.001464844 385.999511718 295.001464844 385.999511718 243.000976562 345.999023438 c 0,28,29
 232.001464844 336.999023438 232.001464844 336.999023438 219.000976562 327.499023438 c 128,-1,30
 206.000488281 317.999511719 206.000488281 317.999511719 193 307 c 1,31,-1
 356 307 l 2,32,33
 372.000488282 307 372.000488282 307 379.5 309 c 128,-1,34
 387 310.999511718 387 310.999511718 393 317 c 1,35,-1
 400 317 l 1,0,-1
EndSplineSet
EndChar

StartChar: uni00B3
Encoding: 179 179 113
Width: 500
Flags: W
LayerCount: 2
Fore
SplineSet
112 316 m 1,0,-1
 159.999023438 370.998046875 l 1,1,-1
 164.999023438 365.998046875 l 2,2,3
 164.999023438 363.998535156 164.999023438 363.998535156 165.499023438 356.998046875 c 128,-1,4
 165.998535156 349.997558594 165.998535156 349.997558594 169.999023438 343.498046875 c 128,-1,5
 173.999511719 336.998535156 173.999511719 336.998535156 181 329.998046875 c 0,6,7
 196 315.998535156 196 315.998535156 214.5 308.998046875 c 128,-1,8
 232.999511718 301.997558594 232.999511718 301.997558594 260 301.998046875 c 0,9,10
 297.000488282 301.998046875 297.000488282 301.998046875 320 318.498046875 c 128,-1,11
 342.999511718 334.998046875 342.999511718 334.998046875 343 361.998046875 c 0,12,13
 343 392.998535156 343 392.998535156 319 408.999023438 c 128,-1,14
 295 424.999511719 295 424.999511719 256 424.999023438 c 0,15,16
 248.000488282 424.999023438 248.000488282 424.999023438 226 422.999023438 c 1,17,-1
 226 477.999023438 l 1,18,19
 233.000488282 476.998535156 233.000488282 476.998535156 246.000976562 476.999023438 c 0,20,21
 286.001464844 476.999023438 286.001464844 476.999023438 303.501953125 490.999023438 c 128,-1,22
 321.002441406 504.998535156 321.002441406 504.998535156 321.001953125 531.999023438 c 0,23,24
 321.001953125 582.999023438 321.001953125 582.999023438 257.001953125 582.999023438 c 0,25,26
 202.001464844 582.999023438 202.001464844 582.999023438 163.001953125 534.999023438 c 1,27,-1
 123.001953125 578.999023438 l 1,28,29
 175.002441406 639.999511719 175.002441406 639.999511719 258.001953125 639.999023438 c 0,30,31
 314.001464844 639.999023438 314.001464844 639.999023438 349.000976562 613.999023438 c 128,-1,32
 384.000488281 587.999511719 384.000488281 587.999511719 384.000976562 544 c 0,33,34
 384.000976562 512.999511718 384.000976562 512.999511718 372.000976562 492 c 128,-1,35
 360.000976562 471 360.000976562 471 335.000976562 457 c 1,36,37
 368.000976562 449.000488282 368.000976562 449.000488282 387.500976562 425 c 128,-1,38
 407.000976562 401 407.000976562 401 407.000976562 367 c 0,39,40
 407.000976562 334 407.000976562 334 387.000976562 306.5 c 128,-1,41
 367.001464844 279.000488282 367.001464844 279.000488282 333.000976562 263 c 128,-1,42
 299.000488281 246.999511718 299.000488281 246.999511718 259 247 c 0,43,44
 169 247 169 247 112 316 c 1,0,-1
EndSplineSet
EndChar

StartChar: acute
Encoding: 180 180 114
Width: 500
Flags: W
LayerCount: 2
Fore
SplineSet
216 548 m 1,0,-1
 300 697 l 1,1,-1
 355 657 l 1,2,-1
 254 522 l 1,3,-1
 216 548 l 1,0,-1
EndSplineSet
EndChar

StartChar: uni00B5
Encoding: 181 181 115
Width: 500
Flags: W
LayerCount: 2
Fore
SplineSet
33 -1 m 0,0,1
 43.9995117188 174.999511718 43.9995117188 174.999511718 43.998046875 202 c 2,2,-1
 43.998046875 457 l 1,3,-1
 109.998046875 457 l 1,4,-1
 109.998046875 186 l 2,5,6
 109.998046875 109.999511718 109.998046875 109.999511718 135.998046875 78.5 c 128,-1,7
 161.997558594 47 161.997558594 47 206.998046875 43 c 1,8,9
 255.998535156 47.0004882812 255.998535156 47.0004882812 281.998046875 85.5009765625 c 128,-1,10
 307.997558594 124.001464844 307.997558594 124.001464844 307.998046875 192.000976562 c 2,11,-1
 307.998046875 457.000976562 l 1,12,-1
 371.998046875 457.000976562 l 1,13,-1
 371.998046875 116.000976562 l 2,14,15
 371.998046875 47.0009765627 371.998046875 47.0009765627 411.998046875 47.0009765625 c 0,16,17
 425.997558594 47.0009765625 425.997558594 47.0009765625 440.498046875 58.5009765625 c 128,-1,18
 454.998535156 70.0014648438 454.998535156 70.0014648438 460.998046875 84.0009765625 c 2,19,-1
 466.998046875 96.0009765625 l 1,20,-1
 493.998046875 45.0009765625 l 1,21,22
 456.997558594 -9.99951171875 456.997558594 -9.99951171875 405.998046875 -9.9990234375 c 0,23,24
 373.998535156 -9.9990234375 373.998535156 -9.9990234375 350.999023438 12.0009765625 c 128,-1,25
 327.999511719 34.0014648438 327.999511719 34.0014648438 323.999023438 67.0009765625 c 1,26,27
 306.999511719 30.0004882812 306.999511719 30.0004882812 273.5 10.0009765625 c 128,-1,28
 240.000488282 -9.99853515625 240.000488282 -9.99853515625 201 -9.9990234375 c 0,29,30
 163.000488282 -9.9990234375 163.000488282 -9.9990234375 132 8.0009765625 c 128,-1,31
 100.999511718 26.0009765625 100.999511718 26.0009765625 87 60.0009765625 c 1,32,33
 87 -90.9995117188 87 -90.9995117188 86 -167 c 1,34,-1
 24 -167 l 1,35,36
 24 -131 24 -131 33 -1 c 0,0,1
EndSplineSet
EndChar

StartChar: paragraph
Encoding: 182 182 116
Width: 500
Flags: W
LayerCount: 2
Fore
SplineSet
243 322 m 1,0,1
 193.999511718 323.999511718 193.999511718 323.999511718 153 349 c 128,-1,2
 112.000488282 374.000488282 112.000488282 374.000488282 88 414.5 c 128,-1,3
 64 455 64 455 64 502 c 0,4,5
 64 574 64 574 123 619.5 c 128,-1,6
 181.999511718 664.999511718 181.999511718 664.999511718 311 665 c 2,7,-1
 436 665 l 1,8,-1
 436 -68 l 1,9,-1
 378 -68 l 1,10,-1
 378 608 l 1,11,-1
 302 608 l 1,12,-1
 302 -68 l 1,13,-1
 243 -68 l 1,14,-1
 243 322 l 1,0,1
EndSplineSet
EndChar

StartChar: periodcentered
Encoding: 183 183 117
Width: 500
Flags: W
LayerCount: 2
Fore
SplineSet
196 290.5 m 128,-1,1
 179.000488282 307 179.000488282 307 179.001953125 330.998046875 c 128,-1,2
 179.001953125 354.998046875 179.001953125 354.998046875 196.501953125 371.498046875 c 128,-1,3
 214.002441406 387.998046875 214.002441406 387.998046875 238.001953125 387.998046875 c 0,4,5
 261.001464844 387.998046875 261.001464844 387.998046875 279.500976562 370.998046875 c 128,-1,6
 298.000488281 353.998535156 298.000488281 353.998535156 298.000976562 330.999023438 c 128,-1,7
 298.000976562 307.999511719 298.000976562 307.999511719 280.500976562 291 c 128,-1,8
 263.000488281 274.000488282 263.000488281 274.000488282 238 274 c 128,-1,0
 212.999511718 274 212.999511718 274 196 290.5 c 128,-1,1
EndSplineSet
EndChar

StartChar: cedilla
Encoding: 184 184 118
Width: 500
Flags: W
LayerCount: 2
Fore
SplineSet
169 -166 m 1,0,-1
 194 -124.000976562 l 1,1,2
 231.999511718 -154.000976562 231.999511718 -154.000976562 281 -154.000976562 c 0,3,4
 330.999511718 -154.000976562 330.999511718 -154.000976562 331 -118.000976562 c 0,5,6
 331 -102.000488281 331 -102.000488281 317.5 -93.5 c 128,-1,7
 304 -84.9995117188 304 -84.9995117188 280 -85 c 2,8,-1
 250 -85 l 1,9,-1
 261 0 l 1,10,-1
 305 0 l 1,11,-1
 299 -47 l 1,12,13
 341 -51.0004882812 341 -51.0004882812 362.5 -69.5 c 128,-1,14
 383.999511718 -87.9995117188 383.999511718 -87.9995117188 384 -112 c 0,15,16
 384 -148 384 -148 354 -172.5 c 128,-1,17
 324 -196.999511718 324 -196.999511718 268 -197 c 0,18,19
 215.000488282 -197 215.000488282 -197 169 -166 c 1,0,-1
EndSplineSet
EndChar

StartChar: uni00B9
Encoding: 185 185 119
Width: 500
Flags: W
LayerCount: 2
Fore
SplineSet
235 563 m 1,0,-1
 138 528 l 1,1,-1
 122 559 l 1,2,-1
 255 633 l 1,3,-1
 299 633 l 1,4,-1
 299 253 l 1,5,-1
 235 253 l 1,6,-1
 235 563 l 1,0,-1
EndSplineSet
EndChar

StartChar: ordmasculine
Encoding: 186 186 120
Width: 500
Flags: W
LayerCount: 2
Fore
SplineSet
170 278.5 m 128,-1,1
 135.999511718 301 135.999511718 301 116.000976562 341.5 c 128,-1,2
 96.001464844 382 96.001464844 382 96.0009765625 434 c 0,3,4
 96.0009765625 488 96.0009765625 488 117.000976562 531 c 128,-1,5
 138.000976562 574.000488282 138.000976562 574.000488282 173.000976562 598 c 128,-1,6
 208.000488281 622 208.000488281 622 249 622 c 0,7,8
 313.000488282 622 313.000488282 622 355 573.5 c 128,-1,9
 397 525.000488282 397 525.000488282 397 441 c 0,10,11
 397 385.000488282 397 385.000488282 376 343 c 128,-1,12
 355 301 355 301 320.5 278.5 c 128,-1,13
 286 256 286 256 245 256 c 128,-1,0
 204.000488282 256 204.000488282 256 170 278.5 c 128,-1,1
311.000976562 346.5 m 128,-1,15
 337.000488281 379.000488282 337.000488281 379.000488282 337.000976562 437.000976562 c 0,16,17
 337.000976562 496.000488281 337.000976562 496.000488281 311.000976562 531 c 128,-1,18
 285.001464844 565.999511718 285.001464844 565.999511718 247.001953125 566 c 128,-1,19
 209.002441406 566 209.002441406 566 182.501953125 531 c 128,-1,20
 156.001464844 496.000488282 156.001464844 496.000488282 156.001953125 438 c 128,-1,21
 156.001953125 379.999511718 156.001953125 379.999511718 182.001953125 347 c 128,-1,22
 208.001464844 314 208.001464844 314 246.000976562 314 c 0,23,14
 285.000976562 314 285.000976562 314 311.000976562 346.5 c 128,-1,15
76.0009765625 206 m 1,24,-1
 425.000976562 206 l 1,25,-1
 425.000976562 152 l 1,26,-1
 76.0009765625 152 l 1,27,-1
 76.0009765625 206 l 1,24,-1
EndSplineSet
EndChar

StartChar: guillemotright
Encoding: 187 187 121
Width: 500
Flags: W
LayerCount: 2
Fore
SplineSet
72 101 m 1,0,-1
 200 241 l 1,1,-1
 79 359 l 1,2,-1
 118 400 l 1,3,-1
 269 253 l 1,4,-1
 269 230 l 1,5,-1
 112 61 l 1,6,-1
 72 101 l 1,0,-1
253 101 m 1,7,-1
 381 241 l 1,8,-1
 260 359 l 1,9,-1
 299 400 l 1,10,-1
 451 253 l 1,11,-1
 451 230 l 1,12,-1
 293 61 l 1,13,-1
 253 101 l 1,7,-1
EndSplineSet
EndChar

StartChar: onequarter
Encoding: 188 188 122
Width: 500
Flags: W
LayerCount: 2
Fore
SplineSet
95 614 m 1,0,-1
 18 594 l 1,1,-1
 5 619 l 1,2,-1
 112 677 l 1,3,-1
 146 677 l 1,4,-1
 146 374 l 1,5,-1
 95 374 l 1,6,-1
 95 614 l 1,0,-1
76 -16 m 1,7,-1
 389 665 l 1,8,-1
 437 638 l 1,9,-1
 123 -42 l 1,10,-1
 76 -16 l 1,7,-1
381 8 m 1,11,-1
 236 8 l 1,12,-1
 236 37 l 1,13,-1
 396 242 l 1,14,-1
 427 242 l 1,15,-1
 427 45 l 1,16,-1
 477 45 l 1,17,-1
 477 8 l 1,18,-1
 427 8 l 1,19,-1
 427 -70 l 1,20,-1
 381 -70 l 1,21,-1
 381 8 l 1,11,-1
382 45 m 1,22,-1
 382 164 l 1,23,-1
 288 45 l 1,24,-1
 382 45 l 1,22,-1
EndSplineSet
EndChar

StartChar: onehalf
Encoding: 189 189 123
Width: 500
Flags: W
LayerCount: 2
Fore
SplineSet
95 614 m 1,0,-1
 18 594 l 1,1,-1
 5 619 l 1,2,-1
 112 677 l 1,3,-1
 146 677 l 1,4,-1
 146 374 l 1,5,-1
 95 374 l 1,6,-1
 95 614 l 1,0,-1
76 -16 m 1,7,-1
 389 665 l 1,8,-1
 437 638 l 1,9,-1
 123 -42 l 1,10,-1
 76 -16 l 1,7,-1
270 -38 m 1,11,12
 312 17.9995117188 312 17.9995117188 375 64.9990234375 c 0,13,14
 412.999511718 94.9990234375 412.999511718 94.9990234375 426 109.499023438 c 128,-1,15
 439.000488282 123.999511719 439.000488282 123.999511719 439 140 c 0,16,17
 439 165.000488282 439 165.000488282 422.5 179.500976562 c 128,-1,18
 406 194.001464844 406 194.001464844 379 194.000976562 c 0,19,20
 332.999511718 194.000976562 332.999511718 194.000976562 307.999023438 160.000976562 c 0,21,22
 305.999511719 158.001464844 305.999511719 158.001464844 304 152.000976562 c 128,-1,23
 302.000488282 146.000976562 302.000488282 146.000976562 300.000976562 143.000976562 c 2,24,-1
 263.000976562 168.000976562 l 1,25,26
 302.000976562 235.001464844 302.000976562 235.001464844 389.000976562 235.000976562 c 0,27,28
 430.000488281 235.000976562 430.000488281 235.000976562 458.500976562 207.500976562 c 128,-1,29
 487.000976562 180.001464844 487.000976562 180.001464844 487.000976562 143.000976562 c 0,30,31
 487.000976562 121.000488281 487.000976562 121.000488281 480.500976562 106.000976562 c 128,-1,32
 474.001464844 91.0009765627 474.001464844 91.0009765627 456.000976562 75.0009765625 c 128,-1,33
 438.000976562 59.0004882812 438.000976562 59.0004882812 398.000976562 31 c 0,34,35
 354.001464844 -0.99951171875 354.001464844 -0.99951171875 329.000976562 -29 c 1,36,-1
 475.000976562 -29 l 2,37,38
 477.000488281 -29 477.000488281 -29 483.5 -25.5 c 128,-1,39
 489.999511718 -22.0004882812 489.999511718 -22.0004882812 494 -22 c 1,40,-1
 494 -73 l 1,41,-1
 270 -73 l 1,42,-1
 270 -38 l 1,11,12
EndSplineSet
EndChar

StartChar: threequarters
Encoding: 190 190 124
Width: 500
Flags: W
LayerCount: 2
Fore
SplineSet
11 426 m 1,0,-1
 48.998046875 467.999023438 l 2,1,2
 50.9975585938 465.999511719 50.9975585938 465.999511719 53.998046875 456.999023438 c 128,-1,3
 56.998046875 447.999023438 56.998046875 447.999023438 59.998046875 444.999023438 c 0,4,5
 85.9975585938 418.999511719 85.9975585938 418.999511719 122.998046875 418.999023438 c 0,6,7
 151.997558594 418.999023438 151.997558594 418.999023438 174.498046875 433.499023438 c 128,-1,8
 196.998046875 447.999511719 196.998046875 447.999511719 196.998046875 467 c 0,9,10
 196.998046875 491 196.998046875 491 180.498046875 503 c 128,-1,11
 163.998046875 515 163.998046875 515 125.998046875 515 c 0,12,13
 109.997558594 515 109.997558594 515 101.998046875 514 c 1,14,-1
 101.998046875 554 l 1,15,16
 107.998046875 552.000488282 107.998046875 552.000488282 110.998046875 552 c 2,17,-1
 123.998046875 553 l 2,18,19
 153.998046875 553 153.998046875 553 169.498046875 565 c 128,-1,20
 184.997558594 577 184.997558594 577 184.998046875 594 c 0,21,22
 184.998046875 612 184.998046875 612 167.998046875 627 c 128,-1,23
 150.998535156 642 150.998535156 642 124.999023438 642 c 0,24,25
 79.9990234373 642 79.9990234373 642 50.9990234375 604 c 1,26,-1
 21.9990234375 634 l 1,27,28
 63.9990234375 683.999511718 63.9990234375 683.999511718 127.999023438 684 c 0,29,30
 171.998535156 684 171.998535156 684 201.999023438 659 c 128,-1,31
 231.999023438 633.999511718 231.999023438 633.999511718 231.999023438 598 c 0,32,33
 231.999023438 575.999511718 231.999023438 575.999511718 219.499023438 559 c 128,-1,34
 206.999511719 542.000488282 206.999511719 542.000488282 187 535 c 1,35,36
 212.999511718 530.999511718 212.999511718 530.999511718 229.5 511.5 c 128,-1,37
 246 492 246 492 246 467 c 0,38,39
 246 428 246 428 210 401 c 128,-1,40
 174 374 174 374 125 374 c 0,41,42
 57.0004882812 374 57.0004882812 374 11 426 c 1,0,-1
80.998046875 -16.0009765625 m 1,43,-1
 393.998046875 664.999023438 l 1,44,-1
 441.998046875 637.999023438 l 1,45,-1
 127.998046875 -42.0009765625 l 1,46,-1
 80.998046875 -16.0009765625 l 1,43,-1
380.998046875 7.9990234375 m 1,47,-1
 235.998046875 7.9990234375 l 1,48,-1
 235.998046875 36.9990234375 l 1,49,-1
 395.998046875 241.999023438 l 1,50,-1
 426.998046875 241.999023438 l 1,51,-1
 426.998046875 44.9990234375 l 1,52,-1
 476.998046875 44.9990234375 l 1,53,-1
 476.998046875 7.9990234375 l 1,54,-1
 426.998046875 7.9990234375 l 1,55,-1
 426.998046875 -70.0009765625 l 1,56,-1
 380.998046875 -70.0009765625 l 1,57,-1
 380.998046875 7.9990234375 l 1,47,-1
381.998046875 44.9990234375 m 1,58,-1
 381.998046875 163.999023438 l 1,59,-1
 287.998046875 44.9990234375 l 1,60,-1
 381.998046875 44.9990234375 l 1,58,-1
EndSplineSet
EndChar

StartChar: questiondown
Encoding: 191 191 125
Width: 500
Flags: W
LayerCount: 2
Fore
SplineSet
278 536 m 128,-1,1
 294.999511718 519.000488282 294.999511718 519.000488282 295 496.000976562 c 128,-1,2
 295 473.001464844 295 473.001464844 278 456.001953125 c 128,-1,3
 261.000488282 439.002441406 261.000488282 439.002441406 237 439.001953125 c 0,4,5
 214.000488282 439.001953125 214.000488282 439.001953125 197.000976562 456.001953125 c 128,-1,6
 180.001464844 473.001464844 180.001464844 473.001464844 180.000976562 496.000976562 c 128,-1,7
 180.000976562 519.000488281 180.000976562 519.000488281 197.000976562 536 c 128,-1,8
 214.000488281 552.999511718 214.000488281 552.999511718 237 553 c 0,9,0
 261 553 261 553 278 536 c 128,-1,1
272 316 m 2,10,11
 272 266.999511718 272 266.999511718 253.998046875 237 c 128,-1,12
 235.998046875 207 235.998046875 207 200.998046875 173 c 0,13,14
 166.997558594 138.999511718 166.997558594 138.999511718 149.998046875 110.999023438 c 128,-1,15
 132.998535156 82.998535156 132.998535156 82.998535156 132.998046875 37.9990234375 c 128,-1,16
 132.998046875 -7.0009765625 132.998046875 -7.0009765625 163.998046875 -34.5009765625 c 128,-1,17
 194.998535156 -62.0004882812 194.998535156 -62.0004882812 243.999023438 -62.0009765625 c 0,18,19
 281.998535156 -62.0009765625 281.998535156 -62.0009765625 310.998046875 -51.0009765625 c 128,-1,20
 339.997558594 -40.0014648438 339.997558594 -40.0014648438 361.998046875 -16.0009765625 c 0,21,22
 371.998535156 -5.00146484375 371.998535156 -5.00146484375 374.499023438 1.9990234375 c 128,-1,23
 376.999511719 8.99951171875 376.999511719 8.99951171875 375.999023438 19 c 1,24,-1
 379.999023438 25 l 1,25,-1
 387.999023438 19 l 1,26,-1
 433.999023438 -19 l 1,27,28
 398.999511719 -71.0004882812 398.999511719 -71.0004882812 355 -97 c 128,-1,29
 311.000488282 -122.999511718 311.000488282 -122.999511718 241 -123 c 0,30,31
 161.000488282 -123 161.000488282 -123 112.500976562 -81 c 128,-1,32
 64.001464844 -39 64.001464844 -39 64.0009765625 33 c 0,33,34
 64.0009765625 90 64.0009765625 90 84.0009765625 124 c 128,-1,35
 104.000488281 158.000488282 104.000488281 158.000488282 142 194 c 0,36,37
 175 227 175 227 190.5 252 c 128,-1,38
 205.999511718 277.000488282 205.999511718 277.000488282 206 316 c 2,39,-1
 206 357 l 1,40,-1
 272 357 l 1,41,-1
 272 316 l 2,10,11
EndSplineSet
EndChar

StartChar: Agrave
Encoding: 192 192 126
Width: 500
Flags: W
LayerCount: 2
Fore
SplineSet
349 182 m 1,0,-1
 148 182 l 1,1,-1
 85 0 l 1,2,-1
 16 0 l 1,3,-1
 246 634 l 1,4,-1
 254 634 l 1,5,-1
 484 0 l 1,6,-1
 412 0 l 1,7,-1
 349 182 l 1,0,-1
331 236 m 1,8,-1
 249 474 l 1,9,-1
 167 236 l 1,10,-1
 331 236 l 1,8,-1
123 721 m 1,11,-1
 163 791 l 1,12,-1
 316 702 l 1,13,-1
 293 660 l 1,14,-1
 123 721 l 1,11,-1
EndSplineSet
EndChar

StartChar: Aacute
Encoding: 193 193 127
Width: 500
Flags: W
LayerCount: 2
Fore
SplineSet
349 182 m 1,0,-1
 148 182 l 1,1,-1
 85 0 l 1,2,-1
 16 0 l 1,3,-1
 246 634 l 1,4,-1
 254 634 l 1,5,-1
 484 0 l 1,6,-1
 412 0 l 1,7,-1
 349 182 l 1,0,-1
331 236 m 1,8,-1
 249 474 l 1,9,-1
 167 236 l 1,10,-1
 331 236 l 1,8,-1
154 702 m 1,11,-1
 306 791 l 1,12,-1
 346 721 l 1,13,-1
 177 660 l 1,14,-1
 154 702 l 1,11,-1
EndSplineSet
EndChar

StartChar: Acircumflex
Encoding: 194 194 128
Width: 500
Flags: W
LayerCount: 2
Fore
SplineSet
349 182 m 1,0,-1
 148 182 l 1,1,-1
 85 0 l 1,2,-1
 16 0 l 1,3,-1
 246 634 l 1,4,-1
 254 634 l 1,5,-1
 484 0 l 1,6,-1
 412 0 l 1,7,-1
 349 182 l 1,0,-1
331 236 m 1,8,-1
 249 474 l 1,9,-1
 167 236 l 1,10,-1
 331 236 l 1,8,-1
92 693 m 1,11,-1
 235 791 l 1,12,-1
 257 791 l 1,13,-1
 408 692 l 1,14,-1
 378 656 l 1,15,-1
 248 726 l 1,16,-1
 125 655 l 1,17,-1
 92 693 l 1,11,-1
EndSplineSet
EndChar

StartChar: Atilde
Encoding: 195 195 129
Width: 500
Flags: W
LayerCount: 2
Fore
SplineSet
349 182 m 1,0,-1
 148 182 l 1,1,-1
 85 0 l 1,2,-1
 16 0 l 1,3,-1
 246 634 l 1,4,-1
 254 634 l 1,5,-1
 484 0 l 1,6,-1
 412 0 l 1,7,-1
 349 182 l 1,0,-1
331 236 m 1,8,-1
 249 474 l 1,9,-1
 167 236 l 1,10,-1
 331 236 l 1,8,-1
425 763 m 1,11,12
 402.997203643 720.995593772 402.997203643 720.995593772 382.500976562 704.499023438 c 128,-1,13
 362.000488281 687.999023438 362.000488281 687.999023438 332.000976562 687.999023438 c 0,14,15
 311.000976562 687.999023438 311.000976562 687.999023438 294.500976562 695.499023438 c 128,-1,16
 278.000976562 702.999023438 278.000976562 702.999023438 256.000976562 717.999023438 c 0,17,18
 237.000488281 729.999023438 237.000488281 729.999023438 225.5 735.999023438 c 128,-1,19
 213.999511718 741.999023438 213.999511718 741.999023438 200 741.999023438 c 0,20,21
 182 741.999023438 182 741.999023438 169 731.499023438 c 128,-1,22
 155.999511718 720.999023438 155.999511718 720.999023438 144 694.999023438 c 1,23,-1
 95 716.999023438 l 1,24,25
 110 752.999023438 110 752.999023438 135.5 774.999023438 c 128,-1,26
 161 796.999511719 161 796.999511719 198 796.999023438 c 0,27,28
 219 796.999023438 219 796.999023438 234 789.499023438 c 128,-1,29
 249 781.999023438 249 781.999023438 270 767.999023438 c 0,30,31
 286.999511718 754.998535156 286.999511718 754.998535156 300 748.999023438 c 128,-1,32
 313.000488282 742.999023438 313.000488282 742.999023438 328 742.999023438 c 0,33,34
 344.000488282 742.999023438 344.000488282 742.999023438 354.5 752.999023438 c 128,-1,35
 365 762.999511719 365 762.999511719 379 791 c 1,36,-1
 425 763 l 1,11,12
EndSplineSet
EndChar

StartChar: Adieresis
Encoding: 196 196 130
Width: 500
Flags: W
LayerCount: 2
Fore
SplineSet
349 182 m 1,0,-1
 148 182 l 1,1,-1
 85 0 l 1,2,-1
 16 0 l 1,3,-1
 246 634 l 1,4,-1
 254 634 l 1,5,-1
 484 0 l 1,6,-1
 412 0 l 1,7,-1
 349 182 l 1,0,-1
331 236 m 1,8,-1
 249 474 l 1,9,-1
 167 236 l 1,10,-1
 331 236 l 1,8,-1
125 703 m 128,-1,12
 110 718 110 718 110 738.000976562 c 128,-1,13
 110 758.000488281 110 758.000488281 125 773.5 c 128,-1,14
 140 788.999511718 140 788.999511718 160 789 c 0,15,16
 181 789 181 789 196 774 c 128,-1,17
 211 759 211 759 211 738 c 0,18,19
 211 718.000488282 211 718.000488282 196 703 c 128,-1,20
 181 688 181 688 160 688 c 0,21,11
 140.000488282 688 140.000488282 688 125 703 c 128,-1,12
303.5 702.500976562 m 128,-1,23
 288.999511718 717.001464844 288.999511718 717.001464844 289 738.000976562 c 128,-1,24
 289 759.000976562 289 759.000976562 303.5 774.000976562 c 128,-1,25
 318.000488282 789.000976562 318.000488282 789.000976562 338 789.000976562 c 0,26,27
 359 789.000976562 359 789.000976562 374 774.000976562 c 128,-1,28
 389 759.000976562 389 759.000976562 389 738.000976562 c 0,29,30
 389 718.001464844 389 718.001464844 374 703.000976562 c 128,-1,31
 359 688.000976562 359 688.000976562 338 688.000976562 c 0,32,22
 318.000488282 688.000976562 318.000488282 688.000976562 303.5 702.500976562 c 128,-1,23
EndSplineSet
EndChar

StartChar: Aring
Encoding: 197 197 131
Width: 500
Flags: W
LayerCount: 2
Fore
SplineSet
349 182 m 1,0,-1
 148 181.999023438 l 1,1,-1
 85 -0.0009765625 l 1,2,-1
 16 -0.0009765625 l 1,3,-1
 241 618.999023438 l 1,4,5
 206.000488282 622.999511719 206.000488282 622.999511719 182 648 c 128,-1,6
 158 673.000488282 158 673.000488282 158 707.000976562 c 0,7,8
 158 743.000976562 158 743.000976562 185.5 769.000976562 c 128,-1,9
 212.999511718 795.000488281 212.999511718 795.000488281 250 795.000976562 c 128,-1,10
 287.000488282 795.000976562 287.000488282 795.000976562 314 769.000976562 c 128,-1,11
 341 743.001464844 341 743.001464844 341 706.000976562 c 0,12,13
 341 673.000976562 341 673.000976562 317.5 648.000976562 c 128,-1,14
 293.999511718 623.000488281 293.999511718 623.000488281 259 619 c 1,15,-1
 484 0 l 1,16,-1
 412 0 l 1,17,-1
 349 182 l 1,0,-1
221.5 674.999023438 m 128,-1,19
 233.999511718 661.998535156 233.999511718 661.998535156 251 661.999023438 c 128,-1,20
 267.999511718 661.999023438 267.999511718 661.999023438 280 674.999023438 c 128,-1,21
 292 687.999511719 292 687.999511719 292 707 c 0,22,23
 292 726.999511718 292 726.999511718 280 740 c 128,-1,24
 268 753.000488282 268 753.000488282 251 753 c 0,25,26
 233 753 233 753 221 740 c 128,-1,27
 209 726.999511718 209 726.999511718 209 707 c 0,28,18
 209 687.999511718 209 687.999511718 221.5 674.999023438 c 128,-1,19
331.000976562 235.999023438 m 1,29,-1
 249.000976562 473.999023438 l 1,30,-1
 167.000976562 235.999023438 l 1,31,-1
 331.000976562 235.999023438 l 1,29,-1
EndSplineSet
EndChar

StartChar: AE
Encoding: 198 198 132
Width: 500
Flags: W
LayerCount: 2
Fore
SplineSet
211 624 m 1,0,-1
 495 624 l 1,1,-1
 495 562 l 1,2,-1
 324 562 l 1,3,-1
 324 357 l 1,4,-1
 469 357 l 1,5,-1
 469 293 l 1,6,-1
 324 293 l 1,7,-1
 324 62 l 1,8,-1
 493 62 l 1,9,-1
 493 0 l 1,10,-1
 263 0 l 1,11,-1
 263 169 l 1,12,-1
 133 169 l 1,13,-1
 79 0 l 1,14,-1
 15 0 l 1,15,-1
 211 624 l 1,0,-1
263 227 m 1,16,-1
 263 562 l 1,17,-1
 252 562 l 1,18,-1
 147 227 l 1,19,-1
 263 227 l 1,16,-1
EndSplineSet
EndChar

StartChar: Ccedilla
Encoding: 199 199 133
Width: 500
Flags: W
LayerCount: 2
Fore
SplineSet
353 70.5 m 128,-1,1
 387.000488282 91.0004882812 387.000488282 91.0004882812 408.000976562 125.998046875 c 1,2,-1
 460.000976562 91.998046875 l 1,3,4
 433.000976562 46.998046875 433.000976562 46.998046875 397.500976562 21.998046875 c 128,-1,5
 362.000488281 -3.00244140625 362.000488281 -3.00244140625 313 -9.001953125 c 1,6,-1
 308 -47.001953125 l 1,7,8
 350 -51.0024414062 350 -51.0024414062 371.5 -69.501953125 c 128,-1,9
 392.999511718 -88.0014648438 392.999511718 -88.0014648438 393 -112.001953125 c 0,10,11
 393 -148.001953125 393 -148.001953125 363 -172.501953125 c 128,-1,12
 333 -197.001464844 333 -197.001464844 277 -197.001953125 c 0,13,14
 224.000488282 -197.001953125 224.000488282 -197.001953125 178 -166.001953125 c 1,15,-1
 203 -124.001953125 l 1,16,17
 240.999511718 -154.001953125 240.999511718 -154.001953125 290 -154.001953125 c 0,18,19
 339.999511718 -154.001953125 339.999511718 -154.001953125 340 -118.001953125 c 0,20,21
 340 -102.001464844 340 -102.001464844 326.5 -93.5009765625 c 128,-1,22
 313 -85.0004882812 313 -85.0004882812 289 -85.0009765625 c 2,23,-1
 259 -85.0009765625 l 1,24,-1
 269 -10.0009765625 l 1,25,26
 167 -4.0009765625 167 -4.0009765625 104.5 75.9990234375 c 128,-1,27
 41.9995117188 155.998535156 41.9995117188 155.998535156 40.9990234375 307.998046875 c 0,28,29
 40.9990234375 422.998535156 40.9990234375 422.998535156 75.9990234375 494.499023438 c 128,-1,30
 110.998535156 565.999511719 110.998535156 565.999511719 164.999023438 597 c 128,-1,31
 218.999023438 628.000488282 218.999023438 628.000488282 280.999023438 628 c 0,32,33
 346.999023438 628 346.999023438 628 395.499023438 595 c 128,-1,34
 443.998535156 562 443.998535156 562 468.999023438 505 c 1,35,-1
 408.999023438 477 l 1,36,-1
 399.999023438 473 l 1,37,-1
 396.999023438 480 l 1,38,-1
 398.999023438 488 l 2,39,40
 398.999023438 498.000488282 398.999023438 498.000488282 384.999023438 516 c 0,41,42
 361.999511719 547.000488282 361.999511719 547.000488282 336 559.5 c 128,-1,43
 310.000488282 571.999511718 310.000488282 571.999511718 279 572 c 0,44,45
 199.999511718 572 199.999511718 572 154.5 503.5 c 128,-1,46
 109.000488282 434.999511718 109.000488282 434.999511718 109 313 c 0,47,48
 109 236.000488282 109 236.000488282 132 176 c 128,-1,49
 154.999511718 116 154.999511718 116 194.499023438 83 c 128,-1,50
 233.998535156 50 233.998535156 50 281.999023438 50 c 0,51,0
 318.999511719 50 318.999511719 50 353 70.5 c 128,-1,1
EndSplineSet
EndChar

StartChar: Egrave
Encoding: 200 200 134
Width: 500
Flags: W
LayerCount: 2
Fore
SplineSet
59 624 m 1,0,-1
 441 624 l 1,1,-1
 441 562 l 1,2,-1
 125 562 l 1,3,-1
 125 357 l 1,4,-1
 386 357 l 1,5,-1
 386 293 l 1,6,-1
 125 293 l 1,7,-1
 125 62 l 1,8,-1
 438 62 l 1,9,-1
 438 0 l 1,10,-1
 59 0 l 1,11,-1
 59 624 l 1,0,-1
143 721 m 1,12,-1
 183 791 l 1,13,-1
 336 702 l 1,14,-1
 313 660 l 1,15,-1
 143 721 l 1,12,-1
EndSplineSet
EndChar

StartChar: Eacute
Encoding: 201 201 135
Width: 500
Flags: W
LayerCount: 2
Fore
SplineSet
59 624 m 1,0,-1
 441 624 l 1,1,-1
 441 562 l 1,2,-1
 125 562 l 1,3,-1
 125 357 l 1,4,-1
 386 357 l 1,5,-1
 386 293 l 1,6,-1
 125 293 l 1,7,-1
 125 62 l 1,8,-1
 438 62 l 1,9,-1
 438 0 l 1,10,-1
 59 0 l 1,11,-1
 59 624 l 1,0,-1
174 702 m 1,12,-1
 326 791 l 1,13,-1
 366 721 l 1,14,-1
 197 660 l 1,15,-1
 174 702 l 1,12,-1
EndSplineSet
EndChar

StartChar: Ecircumflex
Encoding: 202 202 136
Width: 500
Flags: W
LayerCount: 2
Fore
SplineSet
59 624 m 1,0,-1
 441 624 l 1,1,-1
 441 562 l 1,2,-1
 125 562 l 1,3,-1
 125 357 l 1,4,-1
 386 357 l 1,5,-1
 386 293 l 1,6,-1
 125 293 l 1,7,-1
 125 62 l 1,8,-1
 438 62 l 1,9,-1
 438 0 l 1,10,-1
 59 0 l 1,11,-1
 59 624 l 1,0,-1
112 693 m 1,12,-1
 255 791 l 1,13,-1
 277 791 l 1,14,-1
 428 692 l 1,15,-1
 398 656 l 1,16,-1
 268 726 l 1,17,-1
 145 655 l 1,18,-1
 112 693 l 1,12,-1
EndSplineSet
EndChar

StartChar: Edieresis
Encoding: 203 203 137
Width: 500
Flags: W
LayerCount: 2
Fore
SplineSet
59 624 m 1,0,-1
 441 624 l 1,1,-1
 441 562 l 1,2,-1
 125 562 l 1,3,-1
 125 357 l 1,4,-1
 386 357 l 1,5,-1
 386 293 l 1,6,-1
 125 293 l 1,7,-1
 125 62 l 1,8,-1
 438 62 l 1,9,-1
 438 0 l 1,10,-1
 59 0 l 1,11,-1
 59 624 l 1,0,-1
145 703 m 128,-1,13
 130 718 130 718 130 738.000976562 c 128,-1,14
 130 758.000488281 130 758.000488281 145 773.5 c 128,-1,15
 160 788.999511718 160 788.999511718 180 789 c 0,16,17
 201 789 201 789 216 774 c 128,-1,18
 231 759 231 759 231 738 c 0,19,20
 231 718.000488282 231 718.000488282 216 703 c 128,-1,21
 201 688 201 688 180 688 c 0,22,12
 160.000488282 688 160.000488282 688 145 703 c 128,-1,13
323.5 702.500976562 m 128,-1,24
 308.999511718 717.001464844 308.999511718 717.001464844 309 738.000976562 c 128,-1,25
 309 759.000976562 309 759.000976562 323.5 774.000976562 c 128,-1,26
 338.000488282 789.000976562 338.000488282 789.000976562 358 789.000976562 c 0,27,28
 379 789.000976562 379 789.000976562 394 774.000976562 c 128,-1,29
 409 759.000976562 409 759.000976562 409 738.000976562 c 0,30,31
 409 718.001464844 409 718.001464844 394 703.000976562 c 128,-1,32
 379 688.000976562 379 688.000976562 358 688.000976562 c 0,33,23
 338.000488282 688.000976562 338.000488282 688.000976562 323.5 702.500976562 c 128,-1,24
EndSplineSet
EndChar

StartChar: Igrave
Encoding: 204 204 138
Width: 500
Flags: W
LayerCount: 2
Fore
SplineSet
81 59 m 1,0,-1
 204 59 l 1,1,-1
 204 564 l 1,2,-1
 88 564 l 1,3,-1
 88 623 l 1,4,-1
 397 623 l 1,5,-1
 397 564 l 1,6,-1
 274 564 l 1,7,-1
 274 58 l 1,8,-1
 403 58 l 1,9,-1
 403 0 l 1,10,-1
 81 0 l 1,11,-1
 81 59 l 1,0,-1
112 721 m 1,12,-1
 152 791 l 1,13,-1
 305 702 l 1,14,-1
 282 660 l 1,15,-1
 112 721 l 1,12,-1
EndSplineSet
EndChar

StartChar: Iacute
Encoding: 205 205 139
Width: 500
Flags: W
LayerCount: 2
Fore
SplineSet
81 59 m 1,0,-1
 204 59 l 1,1,-1
 204 564 l 1,2,-1
 88 564 l 1,3,-1
 88 623 l 1,4,-1
 397 623 l 1,5,-1
 397 564 l 1,6,-1
 274 564 l 1,7,-1
 274 58 l 1,8,-1
 403 58 l 1,9,-1
 403 0 l 1,10,-1
 81 0 l 1,11,-1
 81 59 l 1,0,-1
143 702 m 1,12,-1
 295 791 l 1,13,-1
 335 721 l 1,14,-1
 166 660 l 1,15,-1
 143 702 l 1,12,-1
EndSplineSet
EndChar

StartChar: Icircumflex
Encoding: 206 206 140
Width: 500
Flags: W
LayerCount: 2
Fore
SplineSet
81 59 m 1,0,-1
 204 59 l 1,1,-1
 204 564 l 1,2,-1
 88 564 l 1,3,-1
 88 623 l 1,4,-1
 397 623 l 1,5,-1
 397 564 l 1,6,-1
 274 564 l 1,7,-1
 274 58 l 1,8,-1
 403 58 l 1,9,-1
 403 0 l 1,10,-1
 81 0 l 1,11,-1
 81 59 l 1,0,-1
81 693 m 1,12,-1
 224 791 l 1,13,-1
 246 791 l 1,14,-1
 397 692 l 1,15,-1
 367 656 l 1,16,-1
 237 726 l 1,17,-1
 114 655 l 1,18,-1
 81 693 l 1,12,-1
EndSplineSet
EndChar

StartChar: Idieresis
Encoding: 207 207 141
Width: 500
Flags: W
LayerCount: 2
Fore
SplineSet
81 59 m 1,0,-1
 204 59 l 1,1,-1
 204 564 l 1,2,-1
 88 564 l 1,3,-1
 88 623 l 1,4,-1
 397 623 l 1,5,-1
 397 564 l 1,6,-1
 274 564 l 1,7,-1
 274 58 l 1,8,-1
 403 58 l 1,9,-1
 403 0 l 1,10,-1
 81 0 l 1,11,-1
 81 59 l 1,0,-1
114 703 m 128,-1,13
 99 718 99 718 99 738.000976562 c 128,-1,14
 99 758.000488281 99 758.000488281 114 773.5 c 128,-1,15
 129 788.999511718 129 788.999511718 149 789 c 0,16,17
 170 789 170 789 185 774 c 128,-1,18
 200 759 200 759 200 738 c 0,19,20
 200 718.000488282 200 718.000488282 185 703 c 128,-1,21
 170 688 170 688 149 688 c 0,22,12
 129.000488282 688 129.000488282 688 114 703 c 128,-1,13
292.5 702.500976562 m 128,-1,24
 277.999511718 717.001464844 277.999511718 717.001464844 278 738.000976562 c 128,-1,25
 278 759.000976562 278 759.000976562 292.5 774.000976562 c 128,-1,26
 307.000488282 789.000976562 307.000488282 789.000976562 327 789.000976562 c 0,27,28
 348 789.000976562 348 789.000976562 363 774.000976562 c 128,-1,29
 378 759.000976562 378 759.000976562 378 738.000976562 c 0,30,31
 378 718.001464844 378 718.001464844 363 703.000976562 c 128,-1,32
 348 688.000976562 348 688.000976562 327 688.000976562 c 0,33,23
 307.000488282 688.000976562 307.000488282 688.000976562 292.5 702.500976562 c 128,-1,24
EndSplineSet
EndChar

StartChar: Eth
Encoding: 208 208 142
Width: 500
Flags: W
LayerCount: 2
Fore
SplineSet
79 301 m 1,0,-1
 29.9990234375 301.000976562 l 1,1,-1
 29.9990234375 359.000976562 l 1,2,-1
 78.9990234375 359.000976562 l 1,3,-1
 78.9990234375 623.000976562 l 1,4,-1
 217.999023438 623.000976562 l 2,5,6
 345.998535156 623.000976562 345.998535156 623.000976562 405.999023438 539.000976562 c 128,-1,7
 465.999023438 455.000976562 465.999023438 455.000976562 465.999023438 306.000976562 c 0,8,9
 465.999023438 213.000976562 465.999023438 213.000976562 426.499023438 131.000976562 c 128,-1,10
 386.999511719 49.0004882815 386.999511719 49.0004882815 319 18 c 0,11,12
 281.000488282 -1.00048828125 281.000488282 -1.00048828125 206 -1 c 2,13,-1
 79 -1 l 1,14,-1
 79 301 l 1,0,-1
202.999023438 57.0009765625 m 2,15,16
 297.998535156 57.0009765625 297.998535156 57.0009765625 348.499023438 122.000976562 c 128,-1,17
 398.999511719 187.000488281 398.999511719 187.000488281 398.999023438 306 c 0,18,19
 398.999023438 430.000488282 398.999023438 430.000488282 353.499023438 497.000976562 c 128,-1,20
 307.999511719 564.001464844 307.999511719 564.001464844 213.999023438 564.000976562 c 2,21,-1
 142.999023438 564.000976562 l 1,22,-1
 142.999023438 359.000976562 l 1,23,-1
 247.999023438 359.000976562 l 1,24,-1
 247.999023438 301.000976562 l 1,25,-1
 142.999023438 301.000976562 l 1,26,-1
 142.999023438 57.0009765625 l 1,27,-1
 202.999023438 57.0009765625 l 2,15,16
EndSplineSet
EndChar

StartChar: Ntilde
Encoding: 209 209 143
Width: 500
Flags: W
LayerCount: 2
Fore
SplineSet
50 623 m 1,0,-1
 118 623 l 1,1,-1
 380 161 l 1,2,-1
 380 623 l 1,3,-1
 456 623 l 1,4,-1
 456 616 l 1,5,6
 450 610 450 610 448.5 603 c 128,-1,7
 447 595.999511718 447 595.999511718 447 579 c 2,8,-1
 447 0 l 1,9,-1
 392 0 l 1,10,-1
 117 490 l 1,11,-1
 117 0 l 1,12,-1
 50 0 l 1,13,-1
 50 623 l 1,0,-1
425 763 m 1,14,15
 402.997203643 720.995593772 402.997203643 720.995593772 382.500976562 704.499023438 c 128,-1,16
 362.000488281 687.999023438 362.000488281 687.999023438 332.000976562 687.999023438 c 0,17,18
 311.000976562 687.999023438 311.000976562 687.999023438 294.500976562 695.499023438 c 128,-1,19
 278.000976562 702.999023438 278.000976562 702.999023438 256.000976562 717.999023438 c 0,20,21
 237.000488281 729.999023438 237.000488281 729.999023438 225.5 735.999023438 c 128,-1,22
 213.999511718 741.999023438 213.999511718 741.999023438 200 741.999023438 c 0,23,24
 182 741.999023438 182 741.999023438 169 731.499023438 c 128,-1,25
 155.999511718 720.999023438 155.999511718 720.999023438 144 694.999023438 c 1,26,-1
 95 716.999023438 l 1,27,28
 110 752.999023438 110 752.999023438 135.5 774.999023438 c 128,-1,29
 161 796.999511719 161 796.999511719 198 796.999023438 c 0,30,31
 219 796.999023438 219 796.999023438 234 789.499023438 c 128,-1,32
 249 781.999023438 249 781.999023438 270 767.999023438 c 0,33,34
 286.999511718 754.998535156 286.999511718 754.998535156 300 748.999023438 c 128,-1,35
 313.000488282 742.999023438 313.000488282 742.999023438 328 742.999023438 c 0,36,37
 344.000488282 742.999023438 344.000488282 742.999023438 354.5 752.999023438 c 128,-1,38
 365 762.999511719 365 762.999511719 379 791 c 1,39,-1
 425 763 l 1,14,15
EndSplineSet
EndChar

StartChar: Ograve
Encoding: 210 210 144
Width: 500
Flags: W
LayerCount: 2
Fore
SplineSet
85 72 m 128,-1,1
 26.9995117188 154.999511718 26.9995117188 154.999511718 27 308 c 0,2,3
 27 456.999511718 27 456.999511718 85.5 542 c 128,-1,4
 144 627.000488282 144 627.000488282 250 627 c 128,-1,5
 356.000488282 627 356.000488282 627 414.5 542 c 128,-1,6
 473 456.999511718 473 456.999511718 473 308 c 0,7,8
 473 155 473 155 415 72 c 128,-1,9
 356.999511718 -10.9995117188 356.999511718 -10.9995117188 250 -11 c 128,-1,0
 143.000488282 -11 143.000488282 -11 85 72 c 128,-1,1
361.5 117 m 128,-1,11
 400.999511718 184.000488282 400.999511718 184.000488282 401 308.000976562 c 0,12,13
 401 427.000488281 401 427.000488281 361 496.5 c 128,-1,14
 320.999511718 565.999511718 320.999511718 565.999511718 250 566 c 128,-1,15
 179.000488282 566 179.000488282 566 139 496.5 c 128,-1,16
 98.999511718 427.000488282 98.999511718 427.000488282 99 308.000976562 c 0,17,18
 99 184.000488281 99 184.000488281 138.5 117 c 128,-1,19
 177.999511718 49.9995117188 177.999511718 49.9995117188 250 50 c 128,-1,10
 322 50 322 50 361.5 117 c 128,-1,11
123 721 m 1,20,-1
 163 791 l 1,21,-1
 316 702 l 1,22,-1
 293 660 l 1,23,-1
 123 721 l 1,20,-1
EndSplineSet
EndChar

StartChar: Oacute
Encoding: 211 211 145
Width: 500
Flags: W
LayerCount: 2
Fore
SplineSet
85 72 m 128,-1,1
 26.9995117188 154.999511718 26.9995117188 154.999511718 27 308 c 0,2,3
 27 456.999511718 27 456.999511718 85.5 542 c 128,-1,4
 144 627.000488282 144 627.000488282 250 627 c 128,-1,5
 356.000488282 627 356.000488282 627 414.5 542 c 128,-1,6
 473 456.999511718 473 456.999511718 473 308 c 0,7,8
 473 155 473 155 415 72 c 128,-1,9
 356.999511718 -10.9995117188 356.999511718 -10.9995117188 250 -11 c 128,-1,0
 143.000488282 -11 143.000488282 -11 85 72 c 128,-1,1
361.5 117 m 128,-1,11
 400.999511718 184.000488282 400.999511718 184.000488282 401 308.000976562 c 0,12,13
 401 427.000488281 401 427.000488281 361 496.5 c 128,-1,14
 320.999511718 565.999511718 320.999511718 565.999511718 250 566 c 128,-1,15
 179.000488282 566 179.000488282 566 139 496.5 c 128,-1,16
 98.999511718 427.000488282 98.999511718 427.000488282 99 308.000976562 c 0,17,18
 99 184.000488281 99 184.000488281 138.5 117 c 128,-1,19
 177.999511718 49.9995117188 177.999511718 49.9995117188 250 50 c 128,-1,10
 322 50 322 50 361.5 117 c 128,-1,11
154 702 m 1,20,-1
 306 791 l 1,21,-1
 346 721 l 1,22,-1
 177 660 l 1,23,-1
 154 702 l 1,20,-1
EndSplineSet
EndChar

StartChar: Ocircumflex
Encoding: 212 212 146
Width: 500
Flags: W
LayerCount: 2
Fore
SplineSet
85 72 m 128,-1,1
 26.9995117188 154.999511718 26.9995117188 154.999511718 27 308 c 0,2,3
 27 456.999511718 27 456.999511718 85.5 542 c 128,-1,4
 144 627.000488282 144 627.000488282 250 627 c 128,-1,5
 356.000488282 627 356.000488282 627 414.5 542 c 128,-1,6
 473 456.999511718 473 456.999511718 473 308 c 0,7,8
 473 155 473 155 415 72 c 128,-1,9
 356.999511718 -10.9995117188 356.999511718 -10.9995117188 250 -11 c 128,-1,0
 143.000488282 -11 143.000488282 -11 85 72 c 128,-1,1
361.5 117 m 128,-1,11
 400.999511718 184.000488282 400.999511718 184.000488282 401 308.000976562 c 0,12,13
 401 427.000488281 401 427.000488281 361 496.5 c 128,-1,14
 320.999511718 565.999511718 320.999511718 565.999511718 250 566 c 128,-1,15
 179.000488282 566 179.000488282 566 139 496.5 c 128,-1,16
 98.999511718 427.000488282 98.999511718 427.000488282 99 308.000976562 c 0,17,18
 99 184.000488281 99 184.000488281 138.5 117 c 128,-1,19
 177.999511718 49.9995117188 177.999511718 49.9995117188 250 50 c 128,-1,10
 322 50 322 50 361.5 117 c 128,-1,11
92 693 m 1,20,-1
 235 791 l 1,21,-1
 257 791 l 1,22,-1
 408 692 l 1,23,-1
 378 656 l 1,24,-1
 248 726 l 1,25,-1
 125 655 l 1,26,-1
 92 693 l 1,20,-1
EndSplineSet
EndChar

StartChar: Otilde
Encoding: 213 213 147
Width: 500
Flags: W
LayerCount: 2
Fore
SplineSet
85 72 m 128,-1,1
 26.9995117188 154.999511718 26.9995117188 154.999511718 27 308 c 0,2,3
 27 456.999511718 27 456.999511718 85.5 542 c 128,-1,4
 144 627.000488282 144 627.000488282 250 627 c 128,-1,5
 356.000488282 627 356.000488282 627 414.5 542 c 128,-1,6
 473 456.999511718 473 456.999511718 473 308 c 0,7,8
 473 155 473 155 415 72 c 128,-1,9
 356.999511718 -10.9995117188 356.999511718 -10.9995117188 250 -11 c 128,-1,0
 143.000488282 -11 143.000488282 -11 85 72 c 128,-1,1
361.5 117 m 128,-1,11
 400.999511718 184.000488282 400.999511718 184.000488282 401 308.000976562 c 0,12,13
 401 427.000488281 401 427.000488281 361 496.5 c 128,-1,14
 320.999511718 565.999511718 320.999511718 565.999511718 250 566 c 128,-1,15
 179.000488282 566 179.000488282 566 139 496.5 c 128,-1,16
 98.999511718 427.000488282 98.999511718 427.000488282 99 308.000976562 c 0,17,18
 99 184.000488281 99 184.000488281 138.5 117 c 128,-1,19
 177.999511718 49.9995117188 177.999511718 49.9995117188 250 50 c 128,-1,10
 322 50 322 50 361.5 117 c 128,-1,11
425 763 m 1,20,21
 402.997203643 720.995593772 402.997203643 720.995593772 382.500976562 704.499023438 c 128,-1,22
 362.000488281 687.999023438 362.000488281 687.999023438 332.000976562 687.999023438 c 0,23,24
 311.000976562 687.999023438 311.000976562 687.999023438 294.500976562 695.499023438 c 128,-1,25
 278.000976562 702.999023438 278.000976562 702.999023438 256.000976562 717.999023438 c 0,26,27
 237.000488281 729.999023438 237.000488281 729.999023438 225.5 735.999023438 c 128,-1,28
 213.999511718 741.999023438 213.999511718 741.999023438 200 741.999023438 c 0,29,30
 182 741.999023438 182 741.999023438 169 731.499023438 c 128,-1,31
 155.999511718 720.999023438 155.999511718 720.999023438 144 694.999023438 c 1,32,-1
 95 716.999023438 l 1,33,34
 110 752.999023438 110 752.999023438 135.5 774.999023438 c 128,-1,35
 161 796.999511719 161 796.999511719 198 796.999023438 c 0,36,37
 219 796.999023438 219 796.999023438 234 789.499023438 c 128,-1,38
 249 781.999023438 249 781.999023438 270 767.999023438 c 0,39,40
 286.999511718 754.998535156 286.999511718 754.998535156 300 748.999023438 c 128,-1,41
 313.000488282 742.999023438 313.000488282 742.999023438 328 742.999023438 c 0,42,43
 344.000488282 742.999023438 344.000488282 742.999023438 354.5 752.999023438 c 128,-1,44
 365 762.999511719 365 762.999511719 379 791 c 1,45,-1
 425 763 l 1,20,21
EndSplineSet
EndChar

StartChar: Odieresis
Encoding: 214 214 148
Width: 500
Flags: W
LayerCount: 2
Fore
SplineSet
85 72 m 128,-1,1
 26.9995117188 154.999511718 26.9995117188 154.999511718 27 308 c 0,2,3
 27 456.999511718 27 456.999511718 85.5 542 c 128,-1,4
 144 627.000488282 144 627.000488282 250 627 c 128,-1,5
 356.000488282 627 356.000488282 627 414.5 542 c 128,-1,6
 473 456.999511718 473 456.999511718 473 308 c 0,7,8
 473 155 473 155 415 72 c 128,-1,9
 356.999511718 -10.9995117188 356.999511718 -10.9995117188 250 -11 c 128,-1,0
 143.000488282 -11 143.000488282 -11 85 72 c 128,-1,1
361.5 117 m 128,-1,11
 400.999511718 184.000488282 400.999511718 184.000488282 401 308.000976562 c 0,12,13
 401 427.000488281 401 427.000488281 361 496.5 c 128,-1,14
 320.999511718 565.999511718 320.999511718 565.999511718 250 566 c 128,-1,15
 179.000488282 566 179.000488282 566 139 496.5 c 128,-1,16
 98.999511718 427.000488282 98.999511718 427.000488282 99 308.000976562 c 0,17,18
 99 184.000488281 99 184.000488281 138.5 117 c 128,-1,19
 177.999511718 49.9995117188 177.999511718 49.9995117188 250 50 c 128,-1,10
 322 50 322 50 361.5 117 c 128,-1,11
125 703 m 128,-1,21
 110 718 110 718 110 738.000976562 c 128,-1,22
 110 758.000488281 110 758.000488281 125 773.5 c 128,-1,23
 140 788.999511718 140 788.999511718 160 789 c 0,24,25
 181 789 181 789 196 774 c 128,-1,26
 211 759 211 759 211 738 c 0,27,28
 211 718.000488282 211 718.000488282 196 703 c 128,-1,29
 181 688 181 688 160 688 c 0,30,20
 140.000488282 688 140.000488282 688 125 703 c 128,-1,21
303.5 702.500976562 m 128,-1,32
 288.999511718 717.001464844 288.999511718 717.001464844 289 738.000976562 c 128,-1,33
 289 759.000976562 289 759.000976562 303.5 774.000976562 c 128,-1,34
 318.000488282 789.000976562 318.000488282 789.000976562 338 789.000976562 c 0,35,36
 359 789.000976562 359 789.000976562 374 774.000976562 c 128,-1,37
 389 759.000976562 389 759.000976562 389 738.000976562 c 0,38,39
 389 718.001464844 389 718.001464844 374 703.000976562 c 128,-1,40
 359 688.000976562 359 688.000976562 338 688.000976562 c 0,41,31
 318.000488282 688.000976562 318.000488282 688.000976562 303.5 702.500976562 c 128,-1,32
EndSplineSet
EndChar

StartChar: multiply
Encoding: 215 215 149
Width: 500
Flags: W
LayerCount: 2
Fore
SplineSet
254 278 m 1,0,-1
 129 149 l 1,1,-1
 85 193 l 1,2,-1
 211 324 l 1,3,-1
 85 457 l 1,4,-1
 132 503 l 1,5,-1
 256 372 l 1,6,-1
 382 503 l 1,7,-1
 430 459 l 1,8,-1
 300 325 l 1,9,-1
 427 191 l 1,10,-1
 381 145 l 1,11,-1
 254 278 l 1,0,-1
EndSplineSet
EndChar

StartChar: Oslash
Encoding: 216 216 150
Width: 500
Flags: W
LayerCount: 2
Fore
SplineSet
455 452.5 m 128,-1,1
 473 389.000488282 473 389.000488282 473 307.999023438 c 0,2,3
 473 154.999023438 473 154.999023438 415 71.9990234375 c 128,-1,4
 356.999511718 -11.0004882812 356.999511718 -11.0004882812 250 -11.0009765625 c 0,5,6
 175 -11.0009765625 175 -11.0009765625 123 29.9990234375 c 1,7,-1
 85 -42.0009765625 l 1,8,-1
 41 -22.0009765625 l 1,9,-1
 88 66.9990234375 l 1,10,11
 26.9995117188 148.999511719 26.9995117188 148.999511719 27 307.999023438 c 0,12,13
 27 456.998535156 27 456.998535156 85.5 541.999023438 c 128,-1,14
 144 626.999511719 144 626.999511719 250 626.999023438 c 0,15,16
 316 626.999023438 316 626.999023438 368 590.999023438 c 1,17,-1
 416 681.999023438 l 1,18,-1
 458 659.999023438 l 1,19,-1
 403 556.999023438 l 1,20,0
 437.000488282 515.999511719 437.000488282 515.999511719 455 452.5 c 128,-1,1
127 139.999023438 m 1,21,-1
 335 529.998046875 l 1,22,23
 299 565.998046875 299 565.998046875 250 565.998046875 c 0,24,25
 179.000488282 565.998046875 179.000488282 565.998046875 139 496.498046875 c 128,-1,26
 98.999511718 426.998535156 98.999511718 426.998535156 99 307.999023438 c 0,27,28
 99 204.998535156 99 204.998535156 127 139.999023438 c 1,21,-1
361.5 116.998046875 m 128,-1,30
 400.999511718 183.998535156 400.999511718 183.998535156 401.000976562 307.997070312 c 0,31,32
 401.000976562 419.997558594 401.000976562 419.997558594 366.000976562 486.998046875 c 1,33,-1
 156.000976562 91.998046875 l 1,34,35
 194.000488281 49.998046875 194.000488281 49.998046875 250 49.998046875 c 0,36,29
 322 49.998046875 322 49.998046875 361.5 116.998046875 c 128,-1,30
EndSplineSet
EndChar

StartChar: Ugrave
Encoding: 217 217 151
Width: 500
Flags: W
LayerCount: 2
Fore
SplineSet
101 48 m 128,-1,1
 50 106.999511719 50 106.999511719 50 215 c 2,2,-1
 50 623 l 1,3,-1
 128 623 l 1,4,-1
 128 616 l 1,5,6
 122 610 122 610 120.5 603 c 128,-1,7
 119 595.999511718 119 595.999511718 119 579 c 2,8,-1
 119 214 l 2,9,10
 119 134.000488282 119 134.000488282 150 91 c 128,-1,11
 181.000488282 47.9995117188 181.000488282 47.9995117188 252 48 c 0,12,13
 324 48 324 48 355.5 91 c 128,-1,14
 387 134.000488282 387 134.000488282 387 217 c 2,15,-1
 387 623 l 1,16,-1
 454 623 l 1,17,-1
 454 218 l 2,18,19
 454 102.999511718 454 102.999511718 400.5 46 c 128,-1,20
 346.999511718 -11 346.999511718 -11 251 -11 c 0,21,0
 152 -11 152 -11 101 48 c 128,-1,1
123 721 m 1,22,-1
 163 791 l 1,23,-1
 316 702 l 1,24,-1
 293 660 l 1,25,-1
 123 721 l 1,22,-1
EndSplineSet
EndChar

StartChar: Uacute
Encoding: 218 218 152
Width: 500
Flags: W
LayerCount: 2
Fore
SplineSet
101 48 m 128,-1,1
 50 106.999511719 50 106.999511719 50 215 c 2,2,-1
 50 623 l 1,3,-1
 128 623 l 1,4,-1
 128 616 l 1,5,6
 122 610 122 610 120.5 603 c 128,-1,7
 119 595.999511718 119 595.999511718 119 579 c 2,8,-1
 119 214 l 2,9,10
 119 134.000488282 119 134.000488282 150 91 c 128,-1,11
 181.000488282 47.9995117188 181.000488282 47.9995117188 252 48 c 0,12,13
 324 48 324 48 355.5 91 c 128,-1,14
 387 134.000488282 387 134.000488282 387 217 c 2,15,-1
 387 623 l 1,16,-1
 454 623 l 1,17,-1
 454 218 l 2,18,19
 454 102.999511718 454 102.999511718 400.5 46 c 128,-1,20
 346.999511718 -11 346.999511718 -11 251 -11 c 0,21,0
 152 -11 152 -11 101 48 c 128,-1,1
154 702 m 1,22,-1
 306 791 l 1,23,-1
 346 721 l 1,24,-1
 177 660 l 1,25,-1
 154 702 l 1,22,-1
EndSplineSet
EndChar

StartChar: Ucircumflex
Encoding: 219 219 153
Width: 500
Flags: W
LayerCount: 2
Fore
SplineSet
101 48 m 128,-1,1
 50 106.999511719 50 106.999511719 50 215 c 2,2,-1
 50 623 l 1,3,-1
 128 623 l 1,4,-1
 128 616 l 1,5,6
 122 610 122 610 120.5 603 c 128,-1,7
 119 595.999511718 119 595.999511718 119 579 c 2,8,-1
 119 214 l 2,9,10
 119 134.000488282 119 134.000488282 150 91 c 128,-1,11
 181.000488282 47.9995117188 181.000488282 47.9995117188 252 48 c 0,12,13
 324 48 324 48 355.5 91 c 128,-1,14
 387 134.000488282 387 134.000488282 387 217 c 2,15,-1
 387 623 l 1,16,-1
 454 623 l 1,17,-1
 454 218 l 2,18,19
 454 102.999511718 454 102.999511718 400.5 46 c 128,-1,20
 346.999511718 -11 346.999511718 -11 251 -11 c 0,21,0
 152 -11 152 -11 101 48 c 128,-1,1
92 693 m 1,22,-1
 235 791 l 1,23,-1
 257 791 l 1,24,-1
 408 692 l 1,25,-1
 378 656 l 1,26,-1
 248 726 l 1,27,-1
 125 655 l 1,28,-1
 92 693 l 1,22,-1
EndSplineSet
EndChar

StartChar: Udieresis
Encoding: 220 220 154
Width: 500
Flags: W
LayerCount: 2
Fore
SplineSet
101 48 m 128,-1,1
 50 106.999511719 50 106.999511719 50 215 c 2,2,-1
 50 623 l 1,3,-1
 128 623 l 1,4,-1
 128 616 l 1,5,6
 122 610 122 610 120.5 603 c 128,-1,7
 119 595.999511718 119 595.999511718 119 579 c 2,8,-1
 119 214 l 2,9,10
 119 134.000488282 119 134.000488282 150 91 c 128,-1,11
 181.000488282 47.9995117188 181.000488282 47.9995117188 252 48 c 0,12,13
 324 48 324 48 355.5 91 c 128,-1,14
 387 134.000488282 387 134.000488282 387 217 c 2,15,-1
 387 623 l 1,16,-1
 454 623 l 1,17,-1
 454 218 l 2,18,19
 454 102.999511718 454 102.999511718 400.5 46 c 128,-1,20
 346.999511718 -11 346.999511718 -11 251 -11 c 0,21,0
 152 -11 152 -11 101 48 c 128,-1,1
125 703 m 128,-1,23
 110 718 110 718 110 738.000976562 c 128,-1,24
 110 758.000488281 110 758.000488281 125 773.5 c 128,-1,25
 140 788.999511718 140 788.999511718 160 789 c 0,26,27
 181 789 181 789 196 774 c 128,-1,28
 211 759 211 759 211 738 c 0,29,30
 211 718.000488282 211 718.000488282 196 703 c 128,-1,31
 181 688 181 688 160 688 c 0,32,22
 140.000488282 688 140.000488282 688 125 703 c 128,-1,23
303.5 702.500976562 m 128,-1,34
 288.999511718 717.001464844 288.999511718 717.001464844 289 738.000976562 c 128,-1,35
 289 759.000976562 289 759.000976562 303.5 774.000976562 c 128,-1,36
 318.000488282 789.000976562 318.000488282 789.000976562 338 789.000976562 c 0,37,38
 359 789.000976562 359 789.000976562 374 774.000976562 c 128,-1,39
 389 759.000976562 389 759.000976562 389 738.000976562 c 0,40,41
 389 718.001464844 389 718.001464844 374 703.000976562 c 128,-1,42
 359 688.000976562 359 688.000976562 338 688.000976562 c 0,43,33
 318.000488282 688.000976562 318.000488282 688.000976562 303.5 702.500976562 c 128,-1,34
EndSplineSet
EndChar

StartChar: Yacute
Encoding: 221 221 155
Width: 500
Flags: W
LayerCount: 2
Fore
SplineSet
220 246 m 1,0,-1
 28 623 l 1,1,-1
 108 623 l 1,2,-1
 261 321 l 1,3,-1
 399 623 l 1,4,-1
 473 623 l 1,5,-1
 296 246 l 1,6,-1
 296 0 l 1,7,-1
 220 0 l 1,8,-1
 220 246 l 1,0,-1
154 702 m 1,9,-1
 306 791 l 1,10,-1
 346 721 l 1,11,-1
 177 660 l 1,12,-1
 154 702 l 1,9,-1
EndSplineSet
EndChar

StartChar: Thorn
Encoding: 222 222 156
Width: 500
Flags: W
LayerCount: 2
Fore
SplineSet
59 623 m 1,0,-1
 137 622.999023438 l 2,1,2
 138.999511718 620.999511719 138.999511718 620.999511719 139 619.999023438 c 0,3,4
 139 617.999511719 139 617.999511719 135 610 c 128,-1,5
 130.999511718 602.000488282 130.999511718 602.000488282 129 595 c 2,6,-1
 129 506 l 1,7,-1
 259 506 l 2,8,9
 356.999511718 506 356.999511718 506 404.5 457.5 c 128,-1,10
 452.000488282 409.000488282 452.000488282 409.000488282 456.000976562 330 c 1,11,12
 452.000488281 252 452.000488281 252 406 205 c 128,-1,13
 359.999511718 158.000488282 359.999511718 158.000488282 264 158 c 2,14,-1
 129 158 l 1,15,-1
 129 0 l 1,16,-1
 59 0 l 1,17,-1
 59 623 l 1,0,-1
264 218.999023438 m 2,18,19
 375 218.999023438 375 218.999023438 383.999023438 327.999023438 c 1,20,21
 379.998535156 377.998535156 379.998535156 377.998535156 349.499023438 408.999023438 c 128,-1,22
 318.999511719 439.999511719 318.999511719 439.999511719 257 439.999023438 c 2,23,-1
 129 439.999023438 l 1,24,-1
 129 218.999023438 l 1,25,-1
 264 218.999023438 l 2,18,19
EndSplineSet
EndChar

StartChar: germandbls
Encoding: 223 223 157
Width: 500
Flags: W
LayerCount: 2
Fore
SplineSet
177 21 m 1,0,-1
 211.998046875 77.001953125 l 1,1,2
 241.998046875 53.001953125 241.998046875 53.001953125 284.998046875 53.001953125 c 0,3,4
 312.998535156 53.001953125 312.998535156 53.001953125 339.499023438 71.501953125 c 128,-1,5
 365.999511719 90.0014648438 365.999511719 90.0014648438 382 122.000976562 c 128,-1,6
 398.000488282 154.000488281 398.000488282 154.000488281 398 193.000976562 c 0,7,8
 398 251.001464844 398 251.001464844 359.5 287.000976562 c 128,-1,9
 320.999511718 323.000976562 320.999511718 323.000976562 244 323.000976562 c 2,10,-1
 214 323.000976562 l 1,11,-1
 214 380.000976562 l 1,12,-1
 250 380.000976562 l 2,13,14
 290.000488282 380.000976562 290.000488282 380.000976562 321.000976562 409.500976562 c 128,-1,15
 352.001464844 439.001464844 352.001464844 439.001464844 352.000976562 490.000976562 c 128,-1,16
 352.000976562 541.000976562 352.000976562 541.000976562 320.000976562 576.000976562 c 128,-1,17
 288.001464844 611.000488281 288.001464844 611.000488281 241.001953125 611.000976562 c 0,18,19
 185.002441406 611.000976562 185.002441406 611.000976562 154.001953125 560.500976562 c 128,-1,20
 123.001464844 510.000488281 123.001464844 510.000488281 123.001953125 425 c 2,21,-1
 123.001953125 0 l 1,22,-1
 55.001953125 0 l 1,23,-1
 55.001953125 423 l 2,24,25
 55.001953125 543 55.001953125 543 102.501953125 606 c 128,-1,26
 150.002441406 669 150.002441406 669 231.001953125 669 c 0,27,28
 283.002441406 669 283.002441406 669 326.501953125 644.5 c 128,-1,29
 370.001953125 620.000488282 370.001953125 620.000488282 395.001953125 579.5 c 128,-1,30
 420.002441406 539 420.002441406 539 420.001953125 493 c 0,31,32
 420.001953125 449.999511718 420.001953125 449.999511718 399.001953125 414 c 128,-1,33
 378.001953125 378 378.001953125 378 341.001953125 359 c 1,34,35
 398.001953125 341 398.001953125 341 431.001953125 292.5 c 128,-1,36
 464.001953125 244.000488282 464.001953125 244.000488282 464.001953125 181 c 0,37,38
 464.001953125 128.000488282 464.001953125 128.000488282 441.501953125 84.5 c 128,-1,39
 419.001953125 41 419.001953125 41 377.501953125 15.5 c 128,-1,40
 336.001464844 -10 336.001464844 -10 281.000976562 -10 c 0,41,42
 223.000488281 -10 223.000488281 -10 177 21 c 1,0,-1
EndSplineSet
EndChar

StartChar: agrave
Encoding: 224 224 158
Width: 500
Flags: W
LayerCount: 2
Fore
SplineSet
393.5 416 m 128,-1,1
 444.999511718 365 444.999511718 365 445.001953125 243.000976562 c 2,2,-1
 445.001953125 0.0009765625 l 1,3,-1
 367.001953125 0.0009765625 l 1,4,-1
 367.001953125 70.0009765625 l 1,5,6
 325.001953125 -10.9990234375 325.001953125 -10.9990234375 211.001953125 -10.9990234375 c 0,7,8
 135.001464844 -10.9990234375 135.001464844 -10.9990234375 92.0009765625 23.5009765625 c 128,-1,9
 49.0004882812 58.0009765625 49.0004882812 58.0009765625 49.0009765625 115.000976562 c 0,10,11
 49.0009765625 163.000976562 49.0009765625 163.000976562 80.0009765625 199.000976562 c 128,-1,12
 111.001464844 235.000976562 111.001464844 235.000976562 163.500976562 254.500976562 c 128,-1,13
 216.000976562 274.000976562 216.000976562 274.000976562 279.000976562 274.000976562 c 0,14,15
 336.000976562 274.000976562 336.000976562 274.000976562 382.000976562 268.000976562 c 1,16,17
 376.000976562 345.000488281 376.000976562 345.000488281 341.500976562 376.500976562 c 128,-1,18
 307.000976562 408.000976562 307.000976562 408.000976562 239.000976562 408.000976562 c 0,19,20
 205.000488281 408.000976562 205.000488281 408.000976562 173.500976562 395.000976562 c 128,-1,21
 142.000976562 382.000488281 142.000976562 382.000488281 116.000976562 357 c 1,22,-1
 81.0009765625 403 l 1,23,24
 145.001464844 467.000488282 145.001464844 467.000488282 244.000976562 467 c 0,25,0
 342.000488281 467 342.000488281 467 393.5 416 c 128,-1,1
335.001953125 87.5009765625 m 128,-1,27
 378.002441406 131.000976562 378.002441406 131.000976562 382.001953125 213.000976562 c 1,28,29
 337.001953125 220.001464844 337.001953125 220.001464844 285.001953125 220.000976562 c 0,30,31
 209.001464844 220.000976562 209.001464844 220.000976562 165.001953125 195.000976562 c 128,-1,32
 121.002441406 170.000488281 121.002441406 170.000488281 121.001953125 119.000976562 c 0,33,34
 121.001953125 44.0009765627 121.001953125 44.0009765627 218.001953125 44.0009765625 c 0,35,26
 292.001464844 44.0009765625 292.001464844 44.0009765625 335.001953125 87.5009765625 c 128,-1,27
143.000976562 642.000976562 m 1,36,-1
 198.000976562 682.000976562 l 1,37,-1
 282.000976562 533.000976562 l 1,38,-1
 244.000976562 507.000976562 l 1,39,-1
 143.000976562 642.000976562 l 1,36,-1
EndSplineSet
EndChar

StartChar: aacute
Encoding: 225 225 159
Width: 500
Flags: W
LayerCount: 2
Fore
SplineSet
393.5 416 m 128,-1,1
 444.999511718 365 444.999511718 365 445.001953125 243.000976562 c 2,2,-1
 445.001953125 0.0009765625 l 1,3,-1
 367.001953125 0.0009765625 l 1,4,-1
 367.001953125 70.0009765625 l 1,5,6
 325.001953125 -10.9990234375 325.001953125 -10.9990234375 211.001953125 -10.9990234375 c 0,7,8
 135.001464844 -10.9990234375 135.001464844 -10.9990234375 92.0009765625 23.5009765625 c 128,-1,9
 49.0004882812 58.0009765625 49.0004882812 58.0009765625 49.0009765625 115.000976562 c 0,10,11
 49.0009765625 163.000976562 49.0009765625 163.000976562 80.0009765625 199.000976562 c 128,-1,12
 111.001464844 235.000976562 111.001464844 235.000976562 163.500976562 254.500976562 c 128,-1,13
 216.000976562 274.000976562 216.000976562 274.000976562 279.000976562 274.000976562 c 0,14,15
 336.000976562 274.000976562 336.000976562 274.000976562 382.000976562 268.000976562 c 1,16,17
 376.000976562 345.000488281 376.000976562 345.000488281 341.500976562 376.500976562 c 128,-1,18
 307.000976562 408.000976562 307.000976562 408.000976562 239.000976562 408.000976562 c 0,19,20
 205.000488281 408.000976562 205.000488281 408.000976562 173.500976562 395.000976562 c 128,-1,21
 142.000976562 382.000488281 142.000976562 382.000488281 116.000976562 357 c 1,22,-1
 81.0009765625 403 l 1,23,24
 145.001464844 467.000488282 145.001464844 467.000488282 244.000976562 467 c 0,25,0
 342.000488281 467 342.000488281 467 393.5 416 c 128,-1,1
335.001953125 87.5009765625 m 128,-1,27
 378.002441406 131.000976562 378.002441406 131.000976562 382.001953125 213.000976562 c 1,28,29
 337.001953125 220.001464844 337.001953125 220.001464844 285.001953125 220.000976562 c 0,30,31
 209.001464844 220.000976562 209.001464844 220.000976562 165.001953125 195.000976562 c 128,-1,32
 121.002441406 170.000488281 121.002441406 170.000488281 121.001953125 119.000976562 c 0,33,34
 121.001953125 44.0009765627 121.001953125 44.0009765627 218.001953125 44.0009765625 c 0,35,26
 292.001464844 44.0009765625 292.001464844 44.0009765625 335.001953125 87.5009765625 c 128,-1,27
205.000976562 533.000976562 m 1,36,-1
 289.000976562 682.000976562 l 1,37,-1
 344.000976562 642.000976562 l 1,38,-1
 243.000976562 507.000976562 l 1,39,-1
 205.000976562 533.000976562 l 1,36,-1
EndSplineSet
EndChar

StartChar: acircumflex
Encoding: 226 226 160
Width: 500
Flags: W
LayerCount: 2
Fore
SplineSet
393.5 416 m 128,-1,1
 444.999511718 365 444.999511718 365 445.001953125 243.000976562 c 2,2,-1
 445.001953125 0.0009765625 l 1,3,-1
 367.001953125 0.0009765625 l 1,4,-1
 367.001953125 70.0009765625 l 1,5,6
 325.001953125 -10.9990234375 325.001953125 -10.9990234375 211.001953125 -10.9990234375 c 0,7,8
 135.001464844 -10.9990234375 135.001464844 -10.9990234375 92.0009765625 23.5009765625 c 128,-1,9
 49.0004882812 58.0009765625 49.0004882812 58.0009765625 49.0009765625 115.000976562 c 0,10,11
 49.0009765625 163.000976562 49.0009765625 163.000976562 80.0009765625 199.000976562 c 128,-1,12
 111.001464844 235.000976562 111.001464844 235.000976562 163.500976562 254.500976562 c 128,-1,13
 216.000976562 274.000976562 216.000976562 274.000976562 279.000976562 274.000976562 c 0,14,15
 336.000976562 274.000976562 336.000976562 274.000976562 382.000976562 268.000976562 c 1,16,17
 376.000976562 345.000488281 376.000976562 345.000488281 341.500976562 376.500976562 c 128,-1,18
 307.000976562 408.000976562 307.000976562 408.000976562 239.000976562 408.000976562 c 0,19,20
 205.000488281 408.000976562 205.000488281 408.000976562 173.500976562 395.000976562 c 128,-1,21
 142.000976562 382.000488281 142.000976562 382.000488281 116.000976562 357 c 1,22,-1
 81.0009765625 403 l 1,23,24
 145.001464844 467.000488282 145.001464844 467.000488282 244.000976562 467 c 0,25,0
 342.000488281 467 342.000488281 467 393.5 416 c 128,-1,1
335.001953125 87.5009765625 m 128,-1,27
 378.002441406 131.000976562 378.002441406 131.000976562 382.001953125 213.000976562 c 1,28,29
 337.001953125 220.001464844 337.001953125 220.001464844 285.001953125 220.000976562 c 0,30,31
 209.001464844 220.000976562 209.001464844 220.000976562 165.001953125 195.000976562 c 128,-1,32
 121.002441406 170.000488281 121.002441406 170.000488281 121.001953125 119.000976562 c 0,33,34
 121.001953125 44.0009765627 121.001953125 44.0009765627 218.001953125 44.0009765625 c 0,35,26
 292.001464844 44.0009765625 292.001464844 44.0009765625 335.001953125 87.5009765625 c 128,-1,27
99.0009765625 545.000976562 m 1,36,-1
 238.000976562 685.000976562 l 1,37,-1
 262.000976562 685.000976562 l 1,38,-1
 401.000976562 545.000976562 l 1,39,-1
 361.000976562 511.000976562 l 1,40,-1
 250.000976562 621.000976562 l 1,41,-1
 139.000976562 511.000976562 l 1,42,-1
 99.0009765625 545.000976562 l 1,36,-1
EndSplineSet
EndChar

StartChar: atilde
Encoding: 227 227 161
Width: 500
Flags: W
LayerCount: 2
Fore
SplineSet
393.5 416 m 128,-1,1
 444.999511718 365 444.999511718 365 445.001953125 243.000976562 c 2,2,-1
 445.001953125 0.0009765625 l 1,3,-1
 367.001953125 0.0009765625 l 1,4,-1
 367.001953125 70.0009765625 l 1,5,6
 325.001953125 -10.9990234375 325.001953125 -10.9990234375 211.001953125 -10.9990234375 c 0,7,8
 135.001464844 -10.9990234375 135.001464844 -10.9990234375 92.0009765625 23.5009765625 c 128,-1,9
 49.0004882812 58.0009765625 49.0004882812 58.0009765625 49.0009765625 115.000976562 c 0,10,11
 49.0009765625 163.000976562 49.0009765625 163.000976562 80.0009765625 199.000976562 c 128,-1,12
 111.001464844 235.000976562 111.001464844 235.000976562 163.500976562 254.500976562 c 128,-1,13
 216.000976562 274.000976562 216.000976562 274.000976562 279.000976562 274.000976562 c 0,14,15
 336.000976562 274.000976562 336.000976562 274.000976562 382.000976562 268.000976562 c 1,16,17
 376.000976562 345.000488281 376.000976562 345.000488281 341.500976562 376.500976562 c 128,-1,18
 307.000976562 408.000976562 307.000976562 408.000976562 239.000976562 408.000976562 c 0,19,20
 205.000488281 408.000976562 205.000488281 408.000976562 173.500976562 395.000976562 c 128,-1,21
 142.000976562 382.000488281 142.000976562 382.000488281 116.000976562 357 c 1,22,-1
 81.0009765625 403 l 1,23,24
 145.001464844 467.000488282 145.001464844 467.000488282 244.000976562 467 c 0,25,0
 342.000488281 467 342.000488281 467 393.5 416 c 128,-1,1
335.001953125 87.5009765625 m 128,-1,27
 378.002441406 131.000976562 378.002441406 131.000976562 382.001953125 213.000976562 c 1,28,29
 337.001953125 220.001464844 337.001953125 220.001464844 285.001953125 220.000976562 c 0,30,31
 209.001464844 220.000976562 209.001464844 220.000976562 165.001953125 195.000976562 c 128,-1,32
 121.002441406 170.000488281 121.002441406 170.000488281 121.001953125 119.000976562 c 0,33,34
 121.001953125 44.0009765627 121.001953125 44.0009765627 218.001953125 44.0009765625 c 0,35,26
 292.001464844 44.0009765625 292.001464844 44.0009765625 335.001953125 87.5009765625 c 128,-1,27
421.000976562 649.000976562 m 1,36,37
 398.998180208 606.996570337 398.998180208 606.996570337 378.501953125 590.5 c 128,-1,38
 358.001464844 574 358.001464844 574 328.001953125 574 c 0,39,40
 307.001953125 574 307.001953125 574 290.501953125 581.5 c 128,-1,41
 274.001953125 589 274.001953125 589 252.001953125 604 c 0,42,43
 233.001464844 616 233.001464844 616 221.500976562 622 c 128,-1,44
 210.000488281 628 210.000488281 628 196.000976562 628 c 0,45,46
 178.000976562 628 178.000976562 628 165.000976562 617.5 c 128,-1,47
 152.000488281 607 152.000488281 607 140.000976562 581 c 1,48,-1
 91.0009765625 603 l 1,49,50
 106.000976562 639 106.000976562 639 131.500976562 661 c 128,-1,51
 157.000976562 683.000488282 157.000976562 683.000488282 194.000976562 683 c 0,52,53
 215.000976562 683 215.000976562 683 230.000976562 675.5 c 128,-1,54
 245.000976562 668 245.000976562 668 266.000976562 654 c 0,55,56
 283.000488281 640.999511718 283.000488281 640.999511718 296.000976562 635 c 128,-1,57
 309.001464844 629 309.001464844 629 324.000976562 629 c 0,58,59
 340.001464844 629 340.001464844 629 350.500976562 639 c 128,-1,60
 361.000976562 649.000488282 361.000976562 649.000488282 375.000976562 677.000976562 c 1,61,-1
 421.000976562 649.000976562 l 1,36,37
EndSplineSet
EndChar

